%TF.GenerationSoftware,KiCad,Pcbnew,5.1.10-88a1d61d58~88~ubuntu18.04.1*%
%TF.CreationDate,2021-11-09T17:01:34+11:00*%
%TF.ProjectId,Rockling,526f636b-6c69-46e6-972e-6b696361645f,rev?*%
%TF.SameCoordinates,PX42c1d80PY7bfa480*%
%TF.FileFunction,Paste,Top*%
%TF.FilePolarity,Positive*%
%FSLAX46Y46*%
G04 Gerber Fmt 4.6, Leading zero omitted, Abs format (unit mm)*
G04 Created by KiCad (PCBNEW 5.1.10-88a1d61d58~88~ubuntu18.04.1) date 2021-11-09 17:01:34*
%MOMM*%
%LPD*%
G01*
G04 APERTURE LIST*
G04 APERTURE END LIST*
%TO.C,R4*%
G36*
G01*
X77725000Y41075000D02*
X78275000Y41075000D01*
G75*
G02*
X78475000Y40875000I0J-200000D01*
G01*
X78475000Y40475000D01*
G75*
G02*
X78275000Y40275000I-200000J0D01*
G01*
X77725000Y40275000D01*
G75*
G02*
X77525000Y40475000I0J200000D01*
G01*
X77525000Y40875000D01*
G75*
G02*
X77725000Y41075000I200000J0D01*
G01*
G37*
G36*
G01*
X77725000Y42725000D02*
X78275000Y42725000D01*
G75*
G02*
X78475000Y42525000I0J-200000D01*
G01*
X78475000Y42125000D01*
G75*
G02*
X78275000Y41925000I-200000J0D01*
G01*
X77725000Y41925000D01*
G75*
G02*
X77525000Y42125000I0J200000D01*
G01*
X77525000Y42525000D01*
G75*
G02*
X77725000Y42725000I200000J0D01*
G01*
G37*
%TD*%
%TO.C,D2*%
G36*
G01*
X77743750Y44150000D02*
X78256250Y44150000D01*
G75*
G02*
X78475000Y43931250I0J-218750D01*
G01*
X78475000Y43493750D01*
G75*
G02*
X78256250Y43275000I-218750J0D01*
G01*
X77743750Y43275000D01*
G75*
G02*
X77525000Y43493750I0J218750D01*
G01*
X77525000Y43931250D01*
G75*
G02*
X77743750Y44150000I218750J0D01*
G01*
G37*
G36*
G01*
X77743750Y45725000D02*
X78256250Y45725000D01*
G75*
G02*
X78475000Y45506250I0J-218750D01*
G01*
X78475000Y45068750D01*
G75*
G02*
X78256250Y44850000I-218750J0D01*
G01*
X77743750Y44850000D01*
G75*
G02*
X77525000Y45068750I0J218750D01*
G01*
X77525000Y45506250D01*
G75*
G02*
X77743750Y45725000I218750J0D01*
G01*
G37*
%TD*%
%TO.C,R3*%
G36*
G01*
X77875000Y19425000D02*
X77325000Y19425000D01*
G75*
G02*
X77125000Y19625000I0J200000D01*
G01*
X77125000Y20025000D01*
G75*
G02*
X77325000Y20225000I200000J0D01*
G01*
X77875000Y20225000D01*
G75*
G02*
X78075000Y20025000I0J-200000D01*
G01*
X78075000Y19625000D01*
G75*
G02*
X77875000Y19425000I-200000J0D01*
G01*
G37*
G36*
G01*
X77875000Y17775000D02*
X77325000Y17775000D01*
G75*
G02*
X77125000Y17975000I0J200000D01*
G01*
X77125000Y18375000D01*
G75*
G02*
X77325000Y18575000I200000J0D01*
G01*
X77875000Y18575000D01*
G75*
G02*
X78075000Y18375000I0J-200000D01*
G01*
X78075000Y17975000D01*
G75*
G02*
X77875000Y17775000I-200000J0D01*
G01*
G37*
%TD*%
%TO.C,D1*%
G36*
G01*
X77856250Y16250000D02*
X77343750Y16250000D01*
G75*
G02*
X77125000Y16468750I0J218750D01*
G01*
X77125000Y16906250D01*
G75*
G02*
X77343750Y17125000I218750J0D01*
G01*
X77856250Y17125000D01*
G75*
G02*
X78075000Y16906250I0J-218750D01*
G01*
X78075000Y16468750D01*
G75*
G02*
X77856250Y16250000I-218750J0D01*
G01*
G37*
G36*
G01*
X77856250Y14675000D02*
X77343750Y14675000D01*
G75*
G02*
X77125000Y14893750I0J218750D01*
G01*
X77125000Y15331250D01*
G75*
G02*
X77343750Y15550000I218750J0D01*
G01*
X77856250Y15550000D01*
G75*
G02*
X78075000Y15331250I0J-218750D01*
G01*
X78075000Y14893750D01*
G75*
G02*
X77856250Y14675000I-218750J0D01*
G01*
G37*
%TD*%
M02*
