M48
INCH,TZ
T10C0.008
T11C0.010
T12C0.012
T13C0.024
T14C0.028
T15C0.029
T16C0.034
T17C0.035
T18C0.039
T19C0.047
T20C0.161
%
T10
X020276Y012205
X020276Y011811
X020276Y011417
X020669Y012205
X020669Y011811
X020669Y011417
X021063Y012205
X021063Y011811
X021063Y011417
T11
X002362Y012500
X003051Y009744
X003150Y011812
X003348Y012894
X003543Y011811
X003937Y009252
X003938Y011812
X004488Y005512
X005039Y005984
X005118Y017441
X005413Y011969
X005610Y007895
X005906Y009841
X006161Y013601
X006201Y018012
X006299Y017618
X006299Y006102
X006398Y011516
X006496Y005020
X006791Y017520
X006890Y005217
X006988Y006594
X007087Y021260
X007087Y005827
X007638Y013228
X008031Y012205
X008071Y017756
X008664Y016026
X009134Y005827
X009600Y012164
X009744Y011220
X010039Y007776
X010512Y007992
X010631Y011812
X010684Y010039
X011024Y011812
X011024Y011418
X011418Y012599
X011418Y012205
X011418Y011418
X011418Y011024
X011811Y018701
X011811Y017913
X011811Y011811
X011811Y005906
X011811Y005118
X011812Y012993
X011812Y012599
X011812Y012205
X011812Y011024
X011812Y010631
X012106Y004724
X012205Y012599
X012205Y012205
X012205Y011812
X012205Y011418
X012599Y012205
X012599Y011812
X012599Y011418
X012993Y011812
X013234Y009788
X013386Y007677
X013386Y003740
X013484Y013583
X013701Y013287
X013878Y008465
X014016Y013071
X015059Y003642
X015118Y012362
X015118Y010079
X015531Y011988
X015827Y012283
X015827Y008523
X016142Y007481
X016299Y011575
X016299Y005276
X016772Y006299
X016890Y009685
X017893Y012106
X017913Y011811
X018200Y018216
X019094Y012697
X019193Y008071
X019291Y011024
X019685Y010335
X019980Y010039
X020276Y010236
X020658Y010225
X020963Y010201
X021850Y017520
X021850Y006299
X021949Y008169
X022047Y018110
X022441Y012303
X023130Y008760
X024449Y007520
X025295Y012992
X025354Y010630
X025433Y012126
X025433Y011496
X025787Y011811
X026142Y012126
X026221Y010649
X027047Y011811
X027066Y011417
X027165Y013976
X028248Y013976
X028346Y014469
X028445Y011811
X029921Y010925
T12
X001490Y013988
X002362Y009547
X002756Y013583
X003150Y013287
X003152Y010653
X003346Y015157
X003346Y009252
X003740Y013386
X003958Y010855
X004035Y008071
X004207Y008562
X005097Y013661
X005118Y016043
X005217Y011417
X005333Y009845
X005413Y009252
X005758Y013633
X005972Y020248
X006158Y002398
X006398Y013780
X006988Y011417
X007087Y012677
X007504Y009624
X007579Y010630
X007579Y009941
X007696Y008286
X007776Y011614
X007972Y010236
X008268Y015827
X008563Y015453
X008661Y007579
X009154Y014862
X009252Y015157
X009252Y016634
X009252Y010827
X009567Y015354
X009744Y013484
X009784Y010879
X009980Y010413
X010138Y013878
X010145Y013393
X010276Y020354
X010276Y003307
X010531Y016240
X010560Y008380
X010562Y017373
X010591Y003661
X010598Y013411
X010630Y019961
X010925Y009547
X010941Y008989
X010945Y016654
X010965Y014705
X011024Y019685
X011024Y003937
X011181Y016319
X011339Y014094
X011417Y019488
X011417Y004134
X011516Y016279
X011615Y015906
X011811Y019390
X011811Y004232
X011969Y015591
X012205Y019488
X012205Y004134
X012209Y014156
X012402Y007480
X012509Y006308
X012598Y019685
X012598Y003937
X012650Y014156
X012697Y015059
X012697Y009941
X012894Y006201
X012930Y013721
X013031Y019921
X013031Y003661
X013091Y014665
X013091Y005610
X013189Y016457
X013346Y003307
X013386Y020276
X013484Y014035
X013583Y020669
X013583Y002953
X013681Y016043
X013780Y022638
X013780Y022244
X013780Y021850
X013780Y021457
X013780Y021063
X013780Y002559
X013780Y002165
X013780Y001772
X013780Y001378
X013780Y000984
X013878Y007185
X014075Y015650
X014238Y012454
X014665Y013091
X014764Y015256
X014882Y012598
X014970Y008012
X015059Y015049
X015217Y008278
X015274Y014764
X015354Y009154
X015453Y002067
X015536Y011625
X015591Y009921
X015650Y005020
X015650Y014085
X015748Y011417
X015906Y010925
X016043Y001772
X016447Y011024
X016614Y017795
X016634Y005020
X017028Y005807
X017067Y006683
X017126Y012196
X017323Y002461
X017397Y005633
X017402Y007323
X017815Y013780
X017815Y013189
X017953Y012728
X017953Y011103
X017953Y010548
X018012Y006791
X018110Y015453
X018286Y013189
X018504Y010925
X018701Y009252
X018701Y015453
X018976Y011575
X019088Y012297
X019291Y015453
X019496Y009889
X019783Y007579
X019882Y015453
X019983Y008561
X020079Y017126
X020936Y009125
X021063Y013937
X021152Y006011
X021629Y006756
X021680Y010650
X022244Y015453
X022803Y006651
X022835Y015453
X023130Y013189
X023130Y012598
X023130Y012008
X023130Y011024
X023130Y010039
X023386Y009528
X023425Y015453
X023425Y014075
X024497Y014112
X024508Y014469
X024508Y013189
X024508Y012598
X024508Y011417
X024508Y010039
X024512Y010982
X024914Y010033
X025784Y010131
X025787Y014665
X026181Y009252
X026490Y010055
X026575Y014567
X026865Y010800
X027165Y014567
X027165Y013091
X027300Y008638
X027362Y008268
X027559Y010433
X028093Y010873
X028346Y012598
X028346Y012205
X028766Y011024
X029252Y013504
X029365Y013102
X029528Y011220
X029685Y015472
X029694Y016299
X029901Y007957
X029921Y017520
X030118Y016929
X030220Y008625
X030315Y015354
T13
X018269Y020217
X020412Y018464
T14
X008661Y011811
X011811Y014961
X011811Y008661
X014038Y009584
X014961Y011811
X020441Y009681
X021441Y009681
X022441Y011681
X022441Y010681
X022441Y009681
X022480Y007244
X023465Y007638
T15
X028937Y016339
X028937Y015551
X028937Y014764
X028937Y013976
T16
X017893Y019285
X019285Y017893
T17
X001735Y009105
X001885Y015023
X002040Y008153
X002238Y015959
X014657Y021848
X015606Y021530
T18
X016933Y003861
X017640Y004568
X017640Y003153
X018347Y005275
X018347Y003861
X019054Y005982
X019054Y004568
X019761Y006689
X019761Y005275
X020469Y005982
X024484Y016642
X024484Y015642
X027264Y006681
X027484Y016642
X027484Y015642
X028264Y006681
T19
X002917Y006358
T20
X011811Y021457
X011811Y002165
M30

