M48
; DRILL file {KiCad 5.1.10-88a1d61d58~88~ubuntu18.04.1} date Tue Nov  9 17:15:51 2021
; FORMAT={-:-/ absolute / inch / decimal}
; #@! TF.CreationDate,2021-11-09T17:15:51+11:00
; #@! TF.GenerationSoftware,Kicad,Pcbnew,5.1.10-88a1d61d58~88~ubuntu18.04.1
; #@! TF.FileFunction,Plated,1,4,PTH
FMAT,2
INCH
T1C0.0079
T2C0.0098
T3C0.0118
T4C0.0236
T5C0.0276
T6C0.0295
T7C0.0335
T8C0.0354
T9C0.0394
T10C0.0472
T11C0.1614
%
G90
G05
T1
X2.0276Y1.2205
X2.0276Y1.1811
X2.0276Y1.1417
X2.0669Y1.2205
X2.0669Y1.1811
X2.0669Y1.1417
X2.1063Y1.2205
X2.1063Y1.1811
X2.1063Y1.1417
T2
X0.2362Y1.25
X0.3051Y0.9744
X0.315Y1.1812
X0.3348Y1.2894
X0.3543Y1.1811
X0.3937Y0.9252
X0.3938Y1.1812
X0.4488Y0.5512
X0.5039Y0.5984
X0.5118Y1.7441
X0.5807Y1.1504
X0.5906Y0.9841
X0.6161Y1.3601
X0.6201Y1.8012
X0.6299Y1.7618
X0.6299Y0.6102
X0.6496Y0.502
X0.6693Y0.7972
X0.6791Y1.752
X0.689Y0.5217
X0.6988Y0.6594
X0.7087Y2.126
X0.7087Y0.5827
X0.7244Y1.3071
X0.8031Y1.2205
X0.8071Y1.7756
X0.8664Y1.6026
X0.9134Y0.5827
X0.96Y1.2164
X0.9744Y1.122
X1.0039Y0.7797
X1.0512Y0.7992
X1.0631Y1.1812
X1.0684Y1.0039
X1.1024Y0.4724
X1.1024Y1.1812
X1.1024Y1.1418
X1.1418Y1.2599
X1.1418Y1.2205
X1.1418Y1.1418
X1.1418Y1.1024
X1.1811Y1.8701
X1.1811Y1.7913
X1.1811Y1.1811
X1.1811Y0.5906
X1.1811Y0.5118
X1.1812Y1.2993
X1.1812Y1.2599
X1.1812Y1.2205
X1.1812Y1.1024
X1.1812Y1.0631
X1.2205Y1.2599
X1.2205Y1.2205
X1.2205Y1.1812
X1.2205Y1.1418
X1.2599Y1.2205
X1.2599Y1.1812
X1.2599Y1.1418
X1.2993Y1.1812
X1.3234Y0.9788
X1.3465Y0.7756
X1.3484Y1.3583
X1.3701Y1.3287
X1.378Y0.4134
X1.3878Y0.8465
X1.4016Y1.3071
X1.5059Y0.3642
X1.5118Y1.2362
X1.5118Y1.0079
X1.5531Y1.1988
X1.5827Y1.2283
X1.5827Y0.8523
X1.6142Y0.7481
X1.6299Y1.1575
X1.6299Y0.5276
X1.6772Y0.6299
X1.689Y0.9685
X1.7233Y1.7414
X1.7893Y1.2106
X1.7913Y1.1811
X1.9094Y1.2697
X1.9193Y0.8071
X1.9291Y1.1024
X1.9685Y1.0335
X1.998Y1.0039
X2.0276Y1.0236
X2.0658Y1.0225
X2.0963Y1.0201
X2.185Y1.752
X2.185Y0.6299
X2.1949Y0.8169
X2.2047Y1.811
X2.2441Y1.2303
X2.313Y0.876
X2.4449Y0.752
X2.5295Y1.2992
X2.5354Y1.063
X2.5433Y1.2126
X2.5433Y1.1496
X2.5787Y1.1811
X2.6142Y1.2126
X2.6221Y1.0649
X2.7047Y1.1811
X2.7066Y1.1417
X2.7165Y1.3976
X2.8248Y1.3976
X2.8346Y1.4469
X2.8445Y1.1811
X2.9921Y1.0925
T3
X0.149Y1.3988
X0.1575Y1.1811
X0.2362Y0.9547
X0.2756Y1.3583
X0.315Y1.3287
X0.3152Y1.0653
X0.3346Y1.752
X0.374Y1.3496
X0.3937Y1.752
X0.3937Y1.3079
X0.3958Y1.0855
X0.4035Y0.8071
X0.4207Y0.8562
X0.4724Y1.2894
X0.5097Y1.3661
X0.5118Y1.6043
X0.5217Y1.1417
X0.5333Y0.9845
X0.5413Y0.9252
X0.5758Y1.3633
X0.5972Y2.0248
X0.6158Y0.2398
X0.7087Y1.378
X0.7087Y1.2708
X0.7185Y1.0728
X0.7504Y0.9624
X0.7559Y1.3307
X0.7579Y1.1811
X0.7579Y1.0335
X0.7579Y0.9941
X0.7696Y0.8286
X0.8071Y1.9783
X0.8071Y1.8602
X0.8268Y1.5827
X0.8563Y1.5453
X0.8563Y1.4961
X0.8661Y0.7579
X0.9154Y1.4862
X0.9252Y1.5157
X0.9252Y1.6634
X0.9252Y1.0827
X0.9547Y1.5453
X0.9744Y1.3484
X0.9784Y1.0879
X0.998Y1.0413
X1.0138Y1.3878
X1.0145Y1.3393
X1.0276Y2.0354
X1.0276Y0.3307
X1.0531Y1.624
X1.056Y0.838
X1.0562Y1.7373
X1.0591Y0.3661
X1.0598Y1.3411
X1.063Y1.9961
X1.0925Y0.9547
X1.0941Y0.8989
X1.0945Y1.6654
X1.0945Y1.3976
X1.0965Y1.4705
X1.1024Y1.9685
X1.1024Y0.3937
X1.1181Y1.6319
X1.126Y1.3976
X1.1339Y1.4508
X1.1417Y1.9488
X1.1417Y0.4134
X1.1496Y0.6929
X1.1516Y1.6279
X1.1575Y1.3976
X1.1615Y1.5906
X1.1811Y1.939
X1.1811Y0.6929
X1.1811Y0.4232
X1.1969Y1.5591
X1.2047Y0.5512
X1.2205Y1.9488
X1.2205Y0.4134
X1.2283Y1.3976
X1.25Y0.6033
X1.2598Y1.9685
X1.2598Y0.3937
X1.2697Y1.5059
X1.2756Y1.3976
X1.2894Y0.6201
X1.2992Y1.4567
X1.3031Y1.9921
X1.3031Y0.3661
X1.3071Y0.4252
X1.3156Y1.3718
X1.3189Y1.6456
X1.327Y0.5682
X1.3346Y0.3307
X1.3386Y2.0276
X1.3425Y1.3976
X1.3583Y2.0669
X1.3583Y0.2953
X1.3681Y1.6043
X1.378Y2.2638
X1.378Y2.2244
X1.378Y2.185
X1.378Y2.1457
X1.378Y2.1063
X1.378Y0.2559
X1.378Y0.2165
X1.378Y0.1772
X1.378Y0.1378
X1.378Y0.0984
X1.3976Y0.7244
X1.4075Y1.565
X1.4238Y1.2454
X1.4665Y1.3091
X1.4764Y1.5256
X1.4882Y1.2598
X1.497Y0.8012
X1.5059Y1.5049
X1.5217Y0.8278
X1.5274Y1.4764
X1.5354Y0.9154
X1.5453Y0.2067
X1.5536Y1.1625
X1.5591Y0.9921
X1.565Y0.502
X1.565Y1.4085
X1.5748Y1.1417
X1.5906Y1.0925
X1.6043Y0.1772
X1.6447Y1.1024
X1.6614Y1.7795
X1.6634Y0.502
X1.7028Y0.5807
X1.7067Y0.6683
X1.7126Y1.2196
X1.7397Y0.5633
X1.7402Y0.7323
X1.748Y0.2441
X1.7815Y1.378
X1.7815Y1.3189
X1.7953Y1.2728
X1.7953Y1.1103
X1.7953Y1.0548
X1.8012Y0.6791
X1.811Y1.5453
X1.8286Y1.3189
X1.8504Y1.0925
X1.8701Y0.9252
X1.8701Y1.5453
X1.8976Y1.1575
X1.9088Y1.2297
X1.9291Y1.5453
X1.9496Y0.9889
X1.9783Y0.7579
X1.9882Y1.5453
X1.9983Y0.8561
X2.0079Y1.7126
X2.0936Y0.9125
X2.1063Y1.3937
X2.1152Y0.6011
X2.126Y0.5118
X2.1629Y0.6756
X2.168Y1.065
X2.2244Y1.5453
X2.2803Y0.6651
X2.2835Y1.5453
X2.313Y1.3189
X2.313Y1.2598
X2.313Y1.2008
X2.313Y1.1024
X2.313Y1.0039
X2.3386Y0.9528
X2.3425Y1.5453
X2.3425Y1.4075
X2.4016Y0.748
X2.4497Y1.4112
X2.4508Y1.4469
X2.4508Y1.3189
X2.4508Y1.2598
X2.4508Y1.1417
X2.4508Y1.0039
X2.4512Y1.0982
X2.4914Y1.0033
X2.5784Y1.0131
X2.5787Y1.4665
X2.6181Y0.9252
X2.649Y1.0055
X2.6575Y1.4567
X2.6865Y1.08
X2.7165Y1.4567
X2.7165Y1.3091
X2.73Y0.8638
X2.7333Y0.8297
X2.7559Y1.0433
X2.8093Y1.0873
X2.8346Y1.2598
X2.8346Y1.2205
X2.8766Y1.1024
X2.9252Y1.3504
X2.9365Y1.3102
X2.9528Y1.122
X2.9685Y1.5472
X2.9694Y1.6299
X2.9901Y0.7957
X2.9921Y1.752
X3.0118Y1.6929
X3.022Y0.8625
X3.0315Y1.5354
T5
X0.8661Y1.1811
X1.1811Y1.4961
X1.1811Y0.8661
X1.4038Y0.9584
X1.4961Y1.1811
X2.0441Y0.9681
X2.1441Y0.9681
X2.2441Y1.1681
X2.2441Y1.0681
X2.2441Y0.9681
X2.248Y0.7244
X2.3465Y0.7638
T6
X2.8937Y1.6339
X2.8937Y1.5551
X2.8937Y1.4764
X2.8937Y1.3976
T7
X1.7893Y1.9285
X1.9285Y1.7893
T8
X0.1735Y0.9105
X0.1885Y1.5023
X0.204Y0.8153
X0.2238Y1.5959
X1.4657Y2.1848
X1.5606Y2.153
T9
X1.6933Y0.3861
X1.764Y0.4568
X1.764Y0.3153
X1.8347Y0.5275
X1.8347Y0.3861
X1.9054Y0.5982
X1.9054Y0.4568
X1.9761Y0.6689
X1.9761Y0.5275
X2.0469Y0.5982
X2.4484Y1.6642
X2.4484Y1.5642
X2.689Y0.6654
X2.7484Y1.6642
X2.7484Y1.5642
X2.789Y0.6654
T10
X0.2917Y0.6358
T11
X1.1811Y2.1457
X1.1811Y0.2165
T4
G00X1.8269Y2.0217
M15
G01X1.8464Y2.0412
M16
G05
G00X2.0412Y1.8464
M15
G01X2.0217Y1.8269
M16
G05
T0
M30
