%TF.GenerationSoftware,KiCad,Pcbnew,5.1.10-88a1d61d58~88~ubuntu18.04.1*%
%TF.CreationDate,2021-11-09T17:01:34+11:00*%
%TF.ProjectId,Rockling,526f636b-6c69-46e6-972e-6b696361645f,rev?*%
%TF.SameCoordinates,PX42c1d80PY7bfa480*%
%TF.FileFunction,Legend,Top*%
%TF.FilePolarity,Positive*%
%FSLAX46Y46*%
G04 Gerber Fmt 4.6, Leading zero omitted, Abs format (unit mm)*
G04 Created by KiCad (PCBNEW 5.1.10-88a1d61d58~88~ubuntu18.04.1) date 2021-11-09 17:01:34*
%MOMM*%
%LPD*%
G01*
G04 APERTURE LIST*
%ADD10C,0.150000*%
%ADD11C,0.120000*%
%ADD12C,0.010000*%
%ADD13C,0.100000*%
%ADD14C,5.000000*%
%ADD15C,1.500000*%
%ADD16C,2.000000*%
%ADD17O,1.700000X1.700000*%
%ADD18R,1.700000X1.700000*%
%ADD19C,2.500000*%
%ADD20R,1.500000X1.000000*%
%ADD21C,0.350000*%
%ADD22C,1.580000*%
%ADD23R,1.580000X1.580000*%
%ADD24C,1.700000*%
%ADD25C,1.450000*%
%ADD26O,1.750000X1.200000*%
G04 APERTURE END LIST*
D10*
X40921428Y53087620D02*
X40921428Y54087620D01*
X41159523Y54087620D01*
X41302380Y54040000D01*
X41397619Y53944762D01*
X41445238Y53849524D01*
X41492857Y53659048D01*
X41492857Y53516191D01*
X41445238Y53325715D01*
X41397619Y53230477D01*
X41302380Y53135239D01*
X41159523Y53087620D01*
X40921428Y53087620D01*
X41921428Y53087620D02*
X41921428Y53754286D01*
X41921428Y54087620D02*
X41873809Y54040000D01*
X41921428Y53992381D01*
X41969047Y54040000D01*
X41921428Y54087620D01*
X41921428Y53992381D01*
X42397619Y53754286D02*
X42397619Y52754286D01*
X42397619Y53706667D02*
X42492857Y53754286D01*
X42683333Y53754286D01*
X42778571Y53706667D01*
X42826190Y53659048D01*
X42873809Y53563810D01*
X42873809Y53278096D01*
X42826190Y53182858D01*
X42778571Y53135239D01*
X42683333Y53087620D01*
X42492857Y53087620D01*
X42397619Y53135239D01*
X43254761Y53992381D02*
X43302380Y54040000D01*
X43397619Y54087620D01*
X43635714Y54087620D01*
X43730952Y54040000D01*
X43778571Y53992381D01*
X43826190Y53897143D01*
X43826190Y53801905D01*
X43778571Y53659048D01*
X43207142Y53087620D01*
X43826190Y53087620D01*
D11*
%TO.C,R4*%
X77477500Y41737258D02*
X77477500Y41262742D01*
X78522500Y41737258D02*
X78522500Y41262742D01*
%TO.C,D2*%
X77265000Y45985000D02*
X77265000Y43700000D01*
X78735000Y45985000D02*
X77265000Y45985000D01*
X78735000Y43700000D02*
X78735000Y45985000D01*
%TO.C,R3*%
X78122500Y18762742D02*
X78122500Y19237258D01*
X77077500Y18762742D02*
X77077500Y19237258D01*
%TO.C,D1*%
X78335000Y14415000D02*
X78335000Y16700000D01*
X76865000Y14415000D02*
X78335000Y14415000D01*
X76865000Y16700000D02*
X76865000Y14415000D01*
D12*
%TO.C,Rockling101*%
G36*
X24584204Y54411363D02*
G01*
X24869114Y54343696D01*
X25144072Y54235080D01*
X25409749Y54085320D01*
X25666813Y53894222D01*
X25839071Y53738592D01*
X26070033Y53491677D01*
X26290821Y53209047D01*
X26501703Y52890085D01*
X26702948Y52534174D01*
X26894824Y52140697D01*
X27077599Y51709037D01*
X27251542Y51238577D01*
X27416921Y50728700D01*
X27574004Y50178790D01*
X27723059Y49588229D01*
X27810807Y49204811D01*
X27937869Y48592208D01*
X28057912Y47938553D01*
X28170857Y47244559D01*
X28276624Y46510935D01*
X28375134Y45738391D01*
X28466309Y44927636D01*
X28550069Y44079382D01*
X28626336Y43194339D01*
X28695030Y42273216D01*
X28756072Y41316724D01*
X28809384Y40325573D01*
X28817559Y40156061D01*
X28826007Y39978181D01*
X28834408Y39801538D01*
X28842391Y39633945D01*
X28849582Y39483214D01*
X28855610Y39357157D01*
X28860103Y39263586D01*
X28860956Y39245894D01*
X28868859Y39069170D01*
X28877341Y38855515D01*
X28886244Y38610327D01*
X28895408Y38339001D01*
X28904673Y38046934D01*
X28913881Y37739523D01*
X28922870Y37422164D01*
X28931482Y37100254D01*
X28939557Y36779189D01*
X28946936Y36464366D01*
X28953458Y36161181D01*
X28956099Y36028561D01*
X28963268Y35664787D01*
X28969956Y35340795D01*
X28976272Y35054038D01*
X28982327Y34801968D01*
X28988229Y34582039D01*
X28994089Y34391702D01*
X29000015Y34228412D01*
X29006118Y34089620D01*
X29012506Y33972779D01*
X29019290Y33875343D01*
X29026580Y33794763D01*
X29034483Y33728493D01*
X29043111Y33673986D01*
X29052572Y33628693D01*
X29060631Y33598022D01*
X29154906Y33346697D01*
X29287938Y33111916D01*
X29459110Y32894667D01*
X29566033Y32786078D01*
X29772082Y32619566D01*
X29999256Y32489150D01*
X30248434Y32394449D01*
X30520496Y32335079D01*
X30633179Y32321400D01*
X30774710Y32311450D01*
X30937550Y32306069D01*
X31113376Y32304976D01*
X31293864Y32307892D01*
X31470692Y32314537D01*
X31635537Y32324631D01*
X31780076Y32337893D01*
X31895986Y32354044D01*
X31951166Y32365733D01*
X32204602Y32451990D01*
X32440807Y32572918D01*
X32655615Y32724947D01*
X32844859Y32904510D01*
X33004371Y33108039D01*
X33129987Y33331967D01*
X33159618Y33400555D01*
X33201407Y33508390D01*
X33232773Y33603003D01*
X33255105Y33693568D01*
X33269789Y33789260D01*
X33278214Y33899253D01*
X33281767Y34032720D01*
X33281836Y34198835D01*
X33281772Y34208228D01*
X33279259Y34356205D01*
X33273639Y34542921D01*
X33265109Y34764910D01*
X33253867Y35018705D01*
X33240111Y35300841D01*
X33224038Y35607852D01*
X33205847Y35936272D01*
X33185734Y36282636D01*
X33163898Y36643477D01*
X33140536Y37015331D01*
X33115846Y37394730D01*
X33090025Y37778209D01*
X33063272Y38162303D01*
X33035784Y38543545D01*
X33030043Y38621478D01*
X32991580Y39132811D01*
X32951548Y39647168D01*
X32909712Y40167020D01*
X32865838Y40694836D01*
X32819692Y41233086D01*
X32771039Y41784239D01*
X32719643Y42350765D01*
X32665271Y42935134D01*
X32607688Y43539816D01*
X32546659Y44167281D01*
X32481949Y44819997D01*
X32413325Y45500436D01*
X32340551Y46211066D01*
X32263392Y46954358D01*
X32181615Y47732780D01*
X32094984Y48548804D01*
X32023634Y49215394D01*
X31982072Y49602132D01*
X31944751Y49949096D01*
X31911463Y50258612D01*
X31881999Y50533007D01*
X31856154Y50774605D01*
X31833718Y50985733D01*
X31814485Y51168716D01*
X31798247Y51325880D01*
X31784796Y51459550D01*
X31773925Y51572053D01*
X31765426Y51665714D01*
X31759092Y51742858D01*
X31754715Y51805812D01*
X31752087Y51856902D01*
X31751001Y51898451D01*
X31751249Y51932788D01*
X31752624Y51962237D01*
X31754919Y51989123D01*
X31757924Y52015773D01*
X31761434Y52044513D01*
X31765241Y52077668D01*
X31766815Y52092839D01*
X31818813Y52411935D01*
X31908322Y52715522D01*
X32033383Y53000872D01*
X32192034Y53265255D01*
X32382315Y53505943D01*
X32602267Y53720205D01*
X32849927Y53905314D01*
X33123336Y54058540D01*
X33205778Y54096024D01*
X33497804Y54199994D01*
X33795550Y54263334D01*
X34095518Y54286732D01*
X34394212Y54270874D01*
X34688134Y54216449D01*
X34973788Y54124145D01*
X35247676Y53994648D01*
X35506302Y53828647D01*
X35746167Y53626828D01*
X35784927Y53588906D01*
X35998685Y53346564D01*
X36175154Y53084741D01*
X36313719Y52804649D01*
X36413765Y52507500D01*
X36468087Y52242228D01*
X36477265Y52173696D01*
X36490451Y52065637D01*
X36507372Y51920639D01*
X36527756Y51741290D01*
X36551330Y51530180D01*
X36577822Y51289896D01*
X36606959Y51023028D01*
X36638470Y50732164D01*
X36672082Y50419893D01*
X36707523Y50088804D01*
X36744519Y49741485D01*
X36782800Y49380524D01*
X36822092Y49008511D01*
X36862123Y48628035D01*
X36902621Y48241683D01*
X36943314Y47852045D01*
X36983929Y47461709D01*
X37024193Y47073264D01*
X37063835Y46689298D01*
X37102583Y46312401D01*
X37140163Y45945161D01*
X37176303Y45590166D01*
X37210731Y45250005D01*
X37243176Y44927267D01*
X37273363Y44624541D01*
X37301022Y44344415D01*
X37325879Y44089478D01*
X37326556Y44082478D01*
X37433372Y42952165D01*
X37533034Y41844449D01*
X37625379Y40761542D01*
X37710243Y39705658D01*
X37787463Y38679013D01*
X37856875Y37683819D01*
X37918316Y36722290D01*
X37971622Y35796641D01*
X38016630Y34909085D01*
X38036749Y34462228D01*
X38043960Y34309258D01*
X38052064Y34162278D01*
X38060535Y34029217D01*
X38068846Y33918003D01*
X38076470Y33836562D01*
X38080373Y33806061D01*
X38142249Y33540875D01*
X38242751Y33292845D01*
X38381473Y33062745D01*
X38558007Y32851348D01*
X38611581Y32798076D01*
X38804874Y32636008D01*
X39013116Y32507810D01*
X39244539Y32408890D01*
X39390801Y32363622D01*
X39480477Y32345801D01*
X39603799Y32330755D01*
X39752153Y32318767D01*
X39916924Y32310116D01*
X40089498Y32305084D01*
X40261261Y32303951D01*
X40423599Y32306998D01*
X40567898Y32314507D01*
X40652749Y32322472D01*
X40924410Y32374024D01*
X41175827Y32462600D01*
X41408477Y32588891D01*
X41623835Y32753583D01*
X41671929Y32797775D01*
X41859107Y33003009D01*
X42009110Y33228293D01*
X42122755Y33474997D01*
X42177466Y33647311D01*
X42190059Y33699604D01*
X42199599Y33754091D01*
X42206424Y33817237D01*
X42210875Y33895502D01*
X42213291Y33995349D01*
X42214014Y34123240D01*
X42213383Y34285638D01*
X42213111Y34324644D01*
X42210099Y34549588D01*
X42204204Y34812399D01*
X42195622Y35108725D01*
X42184552Y35434210D01*
X42171193Y35784503D01*
X42155743Y36155249D01*
X42138399Y36542095D01*
X42119362Y36940688D01*
X42098827Y37346673D01*
X42076995Y37755699D01*
X42054063Y38163410D01*
X42030230Y38565454D01*
X42005694Y38957477D01*
X41993774Y39140061D01*
X41938129Y39935976D01*
X41877725Y40715916D01*
X41812862Y41477137D01*
X41743841Y42216895D01*
X41670958Y42932445D01*
X41594516Y43621043D01*
X41514812Y44279943D01*
X41432145Y44906401D01*
X41346816Y45497673D01*
X41259124Y46051014D01*
X41206520Y46357894D01*
X41177469Y46525113D01*
X41155573Y46659816D01*
X41139868Y46771038D01*
X41129395Y46867812D01*
X41123192Y46959172D01*
X41120297Y47054150D01*
X41119748Y47161780D01*
X41119783Y47172811D01*
X41127643Y47393891D01*
X41151644Y47588880D01*
X41195002Y47772002D01*
X41260931Y47957476D01*
X41334365Y48121865D01*
X41482677Y48384988D01*
X41660164Y48620095D01*
X41863495Y48825721D01*
X42089334Y49000402D01*
X42334351Y49142672D01*
X42595210Y49251066D01*
X42868579Y49324118D01*
X43151125Y49360362D01*
X43439514Y49358334D01*
X43730413Y49316569D01*
X43931499Y49263613D01*
X44208282Y49154996D01*
X44464600Y49010819D01*
X44697663Y48833988D01*
X44904680Y48627411D01*
X45082861Y48393995D01*
X45229414Y48136647D01*
X45341550Y47858274D01*
X45369639Y47765478D01*
X45397665Y47652463D01*
X45429674Y47501015D01*
X45465126Y47314791D01*
X45503480Y47097450D01*
X45544197Y46852647D01*
X45586736Y46584042D01*
X45630558Y46295292D01*
X45675121Y45990053D01*
X45719887Y45671985D01*
X45764313Y45344745D01*
X45807862Y45011990D01*
X45849991Y44677377D01*
X45890161Y44344566D01*
X45927832Y44017212D01*
X45941712Y43891978D01*
X46052103Y42822372D01*
X46153166Y41714374D01*
X46244695Y40570931D01*
X46326487Y39394989D01*
X46398338Y38189495D01*
X46460043Y36957395D01*
X46511399Y35701635D01*
X46513738Y35636978D01*
X46525462Y35312326D01*
X46535904Y35027173D01*
X46545212Y34778708D01*
X46553536Y34564121D01*
X46561024Y34380600D01*
X46567825Y34225335D01*
X46574089Y34095517D01*
X46579964Y33988333D01*
X46585599Y33900975D01*
X46591144Y33830630D01*
X46596747Y33774489D01*
X46602558Y33729740D01*
X46608724Y33693574D01*
X46615396Y33663180D01*
X46619145Y33648613D01*
X46697819Y33410266D01*
X46800000Y33200000D01*
X46931363Y33007502D01*
X47042906Y32878666D01*
X47220063Y32708854D01*
X47402187Y32573974D01*
X47600398Y32467074D01*
X47825813Y32381204D01*
X47851407Y32373157D01*
X47903628Y32357258D01*
X47949777Y32344587D01*
X47995368Y32334770D01*
X48045915Y32327434D01*
X48106931Y32322207D01*
X48183930Y32318714D01*
X48282426Y32316583D01*
X48407933Y32315441D01*
X48565963Y32314913D01*
X48715166Y32314689D01*
X48924725Y32314782D01*
X49097869Y32316251D01*
X49240512Y32319990D01*
X49358569Y32326893D01*
X49457956Y32337855D01*
X49544588Y32353769D01*
X49624379Y32375528D01*
X49703244Y32404028D01*
X49787099Y32440161D01*
X49881858Y32484822D01*
X49900499Y32493821D01*
X50137484Y32631119D01*
X50346238Y32799586D01*
X50525217Y32997682D01*
X50672876Y33223866D01*
X50715722Y33307000D01*
X50798624Y33508287D01*
X50852417Y33713452D01*
X50879718Y33934653D01*
X50884495Y34091811D01*
X50882721Y34231160D01*
X50877515Y34409185D01*
X50869109Y34622386D01*
X50857738Y34867266D01*
X50843633Y35140326D01*
X50827029Y35438066D01*
X50808158Y35756989D01*
X50787254Y36093596D01*
X50764550Y36444388D01*
X50740278Y36805866D01*
X50714673Y37174532D01*
X50687967Y37546887D01*
X50660394Y37919432D01*
X50632186Y38288669D01*
X50603577Y38651099D01*
X50574800Y39003224D01*
X50546088Y39341544D01*
X50517674Y39662561D01*
X50501505Y39838561D01*
X50481826Y40074208D01*
X50470294Y40271272D01*
X50466959Y40428675D01*
X50469635Y40516410D01*
X50507686Y40800184D01*
X50584658Y41074099D01*
X50698333Y41333340D01*
X50846490Y41573093D01*
X51026908Y41788543D01*
X51080967Y41842022D01*
X51203271Y41953134D01*
X51313895Y42040620D01*
X51427036Y42114361D01*
X51556889Y42184236D01*
X51609508Y42209893D01*
X51763200Y42277888D01*
X51904475Y42326768D01*
X52045895Y42359191D01*
X52200025Y42377817D01*
X52379428Y42385303D01*
X52440499Y42385776D01*
X52627615Y42381890D01*
X52785866Y42367700D01*
X52928034Y42340487D01*
X53066903Y42297529D01*
X53215254Y42236107D01*
X53275066Y42208177D01*
X53524217Y42066073D01*
X53748851Y41891208D01*
X53946035Y41687241D01*
X54112834Y41457829D01*
X54246317Y41206628D01*
X54343548Y40937298D01*
X54366720Y40847051D01*
X54381121Y40769072D01*
X54397606Y40651604D01*
X54415967Y40497430D01*
X54435998Y40309330D01*
X54457491Y40090089D01*
X54480239Y39842487D01*
X54504035Y39569308D01*
X54528672Y39273333D01*
X54553943Y38957345D01*
X54579641Y38624126D01*
X54605558Y38276459D01*
X54631488Y37917124D01*
X54657223Y37548906D01*
X54682556Y37174585D01*
X54707281Y36796945D01*
X54731189Y36418767D01*
X54754074Y36042834D01*
X54775729Y35671928D01*
X54795947Y35308832D01*
X54814520Y34956327D01*
X54831242Y34617195D01*
X54832564Y34589228D01*
X54843052Y34372572D01*
X54852594Y34193008D01*
X54861790Y34045324D01*
X54871242Y33924307D01*
X54881550Y33824744D01*
X54893315Y33741423D01*
X54907138Y33669130D01*
X54923620Y33602654D01*
X54943362Y33536781D01*
X54959497Y33488077D01*
X55064000Y33244822D01*
X55203088Y33022935D01*
X55373252Y32825323D01*
X55570980Y32654890D01*
X55792763Y32514540D01*
X56035092Y32407181D01*
X56294457Y32335715D01*
X56367207Y32322911D01*
X56458486Y32313655D01*
X56586815Y32308013D01*
X56747057Y32306105D01*
X56934074Y32308052D01*
X56969128Y32308797D01*
X57128194Y32313027D01*
X57252493Y32318031D01*
X57349593Y32324511D01*
X57427060Y32333168D01*
X57492461Y32344705D01*
X57553364Y32359823D01*
X57569627Y32364495D01*
X57822303Y32459666D01*
X58054644Y32588886D01*
X58263663Y32748614D01*
X58446376Y32935307D01*
X58599797Y33145423D01*
X58720941Y33375420D01*
X58806823Y33621755D01*
X58854457Y33880887D01*
X58855389Y33890082D01*
X58858547Y33958024D01*
X58858620Y34058592D01*
X58855824Y34182204D01*
X58850377Y34319284D01*
X58842496Y34460231D01*
X58832864Y34621244D01*
X58827308Y34748510D01*
X58825821Y34850416D01*
X58828393Y34935350D01*
X58835017Y35011701D01*
X58841873Y35063284D01*
X58902636Y35335005D01*
X59000274Y35589525D01*
X59132452Y35823666D01*
X59296834Y36034252D01*
X59491086Y36218108D01*
X59712873Y36372056D01*
X59861466Y36450287D01*
X60112647Y36545664D01*
X60369152Y36600881D01*
X60626965Y36617072D01*
X60882069Y36595367D01*
X61130448Y36536899D01*
X61368088Y36442798D01*
X61590972Y36314196D01*
X61795085Y36152226D01*
X61976410Y35958018D01*
X62072014Y35827367D01*
X62140413Y35719917D01*
X62197935Y35617225D01*
X62245906Y35513861D01*
X62285654Y35404395D01*
X62318506Y35283398D01*
X62345790Y35145441D01*
X62368834Y34985095D01*
X62388966Y34796931D01*
X62407511Y34575518D01*
X62419757Y34405204D01*
X62433387Y34212410D01*
X62445524Y34055984D01*
X62456868Y33930019D01*
X62468118Y33828607D01*
X62479973Y33745839D01*
X62493131Y33675808D01*
X62508292Y33612605D01*
X62517422Y33579704D01*
X62612083Y33326081D01*
X62742269Y33093194D01*
X62905144Y32883869D01*
X63097875Y32700935D01*
X63317625Y32547219D01*
X63561561Y32425548D01*
X63736831Y32363449D01*
X63784089Y32350114D01*
X63831103Y32339449D01*
X63883459Y32331070D01*
X63946745Y32324595D01*
X64026548Y32319644D01*
X64128455Y32315834D01*
X64258053Y32312783D01*
X64420929Y32310110D01*
X64541203Y32308473D01*
X64757183Y32306306D01*
X64936781Y32306363D01*
X65085921Y32309259D01*
X65210523Y32315607D01*
X65316510Y32326022D01*
X65409804Y32341119D01*
X65496326Y32361513D01*
X65581998Y32387818D01*
X65672742Y32420649D01*
X65691552Y32427872D01*
X65929518Y32542271D01*
X66147503Y32692522D01*
X66341855Y32875418D01*
X66508922Y33087754D01*
X66586534Y33213573D01*
X66618928Y33273355D01*
X66647133Y33331951D01*
X66673554Y33396257D01*
X66700596Y33473168D01*
X66730661Y33569579D01*
X66766155Y33692385D01*
X66809482Y33848481D01*
X66815263Y33869561D01*
X67033480Y34595372D01*
X67282877Y35293071D01*
X67563976Y35963744D01*
X67877301Y36608474D01*
X68223375Y37228344D01*
X68602721Y37824440D01*
X68976657Y38346311D01*
X69418062Y38894738D01*
X69892967Y39418151D01*
X70399997Y39915535D01*
X70937777Y40385877D01*
X71504935Y40828161D01*
X72100095Y41241375D01*
X72721884Y41624502D01*
X73368928Y41976530D01*
X74039853Y42296443D01*
X74697249Y42569363D01*
X74927576Y42656774D01*
X75122975Y42727369D01*
X75286896Y42782191D01*
X75422791Y42822283D01*
X75534112Y42848688D01*
X75624311Y42862452D01*
X75675413Y42865122D01*
X75845807Y42845406D01*
X76003255Y42787971D01*
X76141950Y42696397D01*
X76256084Y42574260D01*
X76320724Y42467516D01*
X76350481Y42401213D01*
X76368341Y42341528D01*
X76377194Y42273289D01*
X76379931Y42181319D01*
X76379999Y42156311D01*
X76379999Y41965811D01*
X76164708Y41500144D01*
X75745071Y40542101D01*
X75363893Y39566684D01*
X75021355Y38574601D01*
X74717639Y37566561D01*
X74452925Y36543269D01*
X74227395Y35505435D01*
X74041230Y34453765D01*
X73894611Y33388967D01*
X73787719Y32311749D01*
X73777158Y32176228D01*
X73721797Y31206209D01*
X73700515Y30219908D01*
X73713068Y29225818D01*
X73759208Y28232433D01*
X73838689Y27248246D01*
X73947055Y26313061D01*
X74101091Y25304383D01*
X74292005Y24301007D01*
X74518773Y23306574D01*
X74780370Y22324726D01*
X75075772Y21359104D01*
X75403956Y20413349D01*
X75763896Y19491103D01*
X76057468Y18809478D01*
X76139611Y18626700D01*
X76206255Y18478113D01*
X76258958Y18359164D01*
X76299278Y18265297D01*
X76328775Y18191960D01*
X76349005Y18134598D01*
X76361527Y18088657D01*
X76367899Y18049585D01*
X76369680Y18012826D01*
X76368428Y17973827D01*
X76365701Y17928034D01*
X76364781Y17911380D01*
X76346523Y17756870D01*
X76306490Y17629675D01*
X76239917Y17518345D01*
X76166661Y17435316D01*
X76071573Y17350932D01*
X75977753Y17294087D01*
X75873441Y17260320D01*
X75746877Y17245165D01*
X75660332Y17243144D01*
X75585378Y17243539D01*
X75524416Y17246070D01*
X75469134Y17252758D01*
X75411221Y17265625D01*
X75342364Y17286692D01*
X75254252Y17317980D01*
X75138573Y17361511D01*
X75076923Y17385017D01*
X74598614Y17574975D01*
X74123820Y17777942D01*
X73660576Y17990140D01*
X73216916Y18207785D01*
X72800874Y18427098D01*
X72495916Y18599689D01*
X71842304Y19004333D01*
X71223605Y19431945D01*
X70640017Y19882276D01*
X70091739Y20355075D01*
X69578968Y20850094D01*
X69101903Y21367083D01*
X68660743Y21905794D01*
X68255686Y22465975D01*
X67886930Y23047379D01*
X67554674Y23649756D01*
X67259116Y24272856D01*
X67000455Y24916430D01*
X66778888Y25580229D01*
X66687230Y25900579D01*
X66624990Y26113849D01*
X66562457Y26293970D01*
X66496408Y26450025D01*
X66480907Y26482394D01*
X66432856Y26577344D01*
X66389516Y26652544D01*
X66342932Y26718705D01*
X66285149Y26786533D01*
X66208212Y26866736D01*
X66158474Y26916413D01*
X65979504Y27077330D01*
X65798700Y27204268D01*
X65608401Y27300573D01*
X65400946Y27369589D01*
X65168677Y27414662D01*
X64971166Y27434940D01*
X64741984Y27447923D01*
X64521211Y27453992D01*
X64316432Y27453228D01*
X64135232Y27445712D01*
X63985196Y27431524D01*
X63935012Y27423896D01*
X63670389Y27356965D01*
X63423976Y27252784D01*
X63198682Y27113574D01*
X62997417Y26941557D01*
X62823094Y26738955D01*
X62678622Y26507990D01*
X62643746Y26438183D01*
X62602055Y26345512D01*
X62567791Y26256589D01*
X62539885Y26165300D01*
X62517272Y26065529D01*
X62498884Y25951161D01*
X62483652Y25816082D01*
X62470511Y25654176D01*
X62458392Y25459329D01*
X62451956Y25339394D01*
X62436668Y25045659D01*
X62423007Y24790752D01*
X62410588Y24571215D01*
X62399030Y24383592D01*
X62387950Y24224423D01*
X62376966Y24090252D01*
X62365694Y23977620D01*
X62353752Y23883071D01*
X62340758Y23803147D01*
X62326329Y23734389D01*
X62310083Y23673341D01*
X62291637Y23616545D01*
X62270608Y23560543D01*
X62249372Y23508478D01*
X62122921Y23254801D01*
X61967954Y23032272D01*
X61783709Y22840074D01*
X61569429Y22677392D01*
X61371690Y22565894D01*
X61123454Y22467271D01*
X60864662Y22408251D01*
X60600069Y22388971D01*
X60334431Y22409567D01*
X60072503Y22470175D01*
X59922652Y22524336D01*
X59691231Y22642142D01*
X59480618Y22794116D01*
X59293864Y22975996D01*
X59134022Y23183520D01*
X59004144Y23412427D01*
X58907282Y23658456D01*
X58846487Y23917343D01*
X58830656Y24049201D01*
X58828528Y24111920D01*
X58829026Y24209676D01*
X58831933Y24335269D01*
X58837035Y24481498D01*
X58844116Y24641163D01*
X58852960Y24807064D01*
X58853762Y24820811D01*
X58867994Y25073894D01*
X58878548Y25289165D01*
X58885394Y25470989D01*
X58888502Y25623730D01*
X58887841Y25751751D01*
X58883381Y25859417D01*
X58875092Y25951093D01*
X58862943Y26031141D01*
X58846905Y26103928D01*
X58844824Y26111978D01*
X58756207Y26370891D01*
X58633234Y26608962D01*
X58479031Y26823353D01*
X58296725Y27011223D01*
X58089445Y27169733D01*
X57860318Y27296043D01*
X57612471Y27387312D01*
X57387194Y27435546D01*
X57288041Y27445536D01*
X57161093Y27451587D01*
X57015107Y27453939D01*
X56858837Y27452833D01*
X56701036Y27448509D01*
X56550459Y27441207D01*
X56415861Y27431168D01*
X56305995Y27418632D01*
X56229616Y27403839D01*
X56229332Y27403759D01*
X55973134Y27310741D01*
X55735827Y27182154D01*
X55521289Y27021227D01*
X55333399Y26831189D01*
X55176036Y26615270D01*
X55087345Y26453015D01*
X55056179Y26387403D01*
X55029148Y26327624D01*
X55005820Y26270126D01*
X54985765Y26211354D01*
X54968552Y26147757D01*
X54953751Y26075782D01*
X54940931Y25991874D01*
X54929661Y25892482D01*
X54919511Y25774051D01*
X54910050Y25633030D01*
X54900847Y25465865D01*
X54891473Y25269004D01*
X54881495Y25038892D01*
X54870485Y24771977D01*
X54863870Y24609144D01*
X54848958Y24264443D01*
X54831673Y23905430D01*
X54812239Y23534911D01*
X54790878Y23155694D01*
X54767813Y22770584D01*
X54743267Y22382390D01*
X54717463Y21993916D01*
X54690624Y21607970D01*
X54662972Y21227359D01*
X54634731Y20854889D01*
X54606124Y20493367D01*
X54577372Y20145599D01*
X54548700Y19814392D01*
X54520330Y19502552D01*
X54492484Y19212887D01*
X54465387Y18948203D01*
X54439260Y18711306D01*
X54414327Y18505003D01*
X54390810Y18332101D01*
X54368932Y18195407D01*
X54348917Y18097726D01*
X54345833Y18085643D01*
X54253140Y17816053D01*
X54124537Y17565018D01*
X53963172Y17335926D01*
X53772191Y17132167D01*
X53554743Y16957130D01*
X53313976Y16814204D01*
X53070471Y16712589D01*
X52791963Y16639776D01*
X52512166Y16608192D01*
X52234643Y16617009D01*
X51962952Y16665400D01*
X51700653Y16752539D01*
X51451306Y16877598D01*
X51218471Y17039751D01*
X51063220Y17178838D01*
X50871982Y17397724D01*
X50715742Y17639258D01*
X50595910Y17900323D01*
X50513896Y18177799D01*
X50471111Y18468568D01*
X50469447Y18491978D01*
X50466970Y18572742D01*
X50469029Y18675719D01*
X50475880Y18805031D01*
X50487783Y18964800D01*
X50504995Y19159148D01*
X50522396Y19338644D01*
X50563694Y19764949D01*
X50604118Y20206062D01*
X50643408Y20658030D01*
X50681305Y21116897D01*
X50717549Y21578707D01*
X50751879Y22039505D01*
X50784035Y22495335D01*
X50813759Y22942243D01*
X50840789Y23376273D01*
X50864866Y23793468D01*
X50885730Y24189875D01*
X50903121Y24561537D01*
X50916779Y24904499D01*
X50926443Y25214806D01*
X50931856Y25488502D01*
X50932747Y25582811D01*
X50933286Y25725383D01*
X50932397Y25834140D01*
X50929287Y25917597D01*
X50923163Y25984268D01*
X50913234Y26042668D01*
X50898707Y26101310D01*
X50878789Y26168710D01*
X50877963Y26171403D01*
X50775731Y26436985D01*
X50640883Y26676564D01*
X50475124Y26888445D01*
X50280164Y27070934D01*
X50057707Y27222339D01*
X49809462Y27340964D01*
X49641958Y27397712D01*
X49595850Y27410544D01*
X49551975Y27420849D01*
X49505162Y27428901D01*
X49450239Y27434977D01*
X49382034Y27439350D01*
X49295376Y27442296D01*
X49185092Y27444091D01*
X49046011Y27445010D01*
X48872962Y27445328D01*
X48746916Y27445344D01*
X48016666Y27445209D01*
X47836749Y27385287D01*
X47576661Y27277959D01*
X47341527Y27138762D01*
X47133667Y26970319D01*
X46955398Y26775249D01*
X46809039Y26556173D01*
X46696907Y26315710D01*
X46621321Y26056481D01*
X46610107Y25998777D01*
X46605764Y25955472D01*
X46600947Y25874126D01*
X46595796Y25759028D01*
X46590451Y25614468D01*
X46585052Y25444735D01*
X46579740Y25254115D01*
X46574653Y25046900D01*
X46569933Y24827377D01*
X46567183Y24683228D01*
X46551974Y23890470D01*
X46535760Y23137669D01*
X46518437Y22422457D01*
X46499897Y21742466D01*
X46480035Y21095329D01*
X46458744Y20478680D01*
X46435918Y19890149D01*
X46411452Y19327371D01*
X46385238Y18787976D01*
X46357172Y18269599D01*
X46327145Y17769872D01*
X46295054Y17286427D01*
X46260790Y16816897D01*
X46224249Y16358914D01*
X46185324Y15910111D01*
X46162852Y15666228D01*
X46130080Y15331735D01*
X46094508Y14994063D01*
X46056655Y14656874D01*
X46017037Y14323831D01*
X45976174Y13998597D01*
X45934583Y13684834D01*
X45892783Y13386205D01*
X45851292Y13106374D01*
X45810628Y12849001D01*
X45771309Y12617751D01*
X45733855Y12416285D01*
X45698782Y12248268D01*
X45666609Y12117360D01*
X45655142Y12077751D01*
X45624887Y11992802D01*
X45581390Y11887711D01*
X45531850Y11779408D01*
X45506398Y11728038D01*
X45353774Y11473436D01*
X45173285Y11247591D01*
X44968478Y11051442D01*
X44742900Y10885926D01*
X44500097Y10751981D01*
X44243614Y10650547D01*
X43977000Y10582562D01*
X43703799Y10548963D01*
X43427559Y10550689D01*
X43151825Y10588678D01*
X42880145Y10663869D01*
X42616065Y10777200D01*
X42398061Y10905667D01*
X42155932Y11092999D01*
X41944978Y11308024D01*
X41766682Y11548258D01*
X41622533Y11811213D01*
X41514015Y12094405D01*
X41442616Y12395347D01*
X41422911Y12536628D01*
X41413484Y12637216D01*
X41409021Y12731184D01*
X41410099Y12826298D01*
X41417293Y12930322D01*
X41431180Y13051023D01*
X41452336Y13196164D01*
X41481337Y13373510D01*
X41487866Y13411978D01*
X41568470Y13909201D01*
X41643736Y14424405D01*
X41713828Y14959624D01*
X41778911Y15516894D01*
X41839149Y16098250D01*
X41894708Y16705728D01*
X41945750Y17341363D01*
X41992442Y18007189D01*
X42034948Y18705243D01*
X42073431Y19437560D01*
X42108058Y20206175D01*
X42138991Y21013124D01*
X42163779Y21772811D01*
X42173440Y22107734D01*
X42182849Y22461576D01*
X42191872Y22827680D01*
X42200374Y23199391D01*
X42208222Y23570055D01*
X42215282Y23933015D01*
X42221419Y24281616D01*
X42226499Y24609203D01*
X42230389Y24909121D01*
X42232954Y25174713D01*
X42233295Y25222978D01*
X42234449Y25441059D01*
X42234268Y25622282D01*
X42231990Y25772117D01*
X42226853Y25896034D01*
X42218096Y25999505D01*
X42204955Y26088000D01*
X42186670Y26166989D01*
X42162477Y26241944D01*
X42131614Y26318335D01*
X42093320Y26401633D01*
X42059322Y26471811D01*
X41923570Y26707587D01*
X41762145Y26910526D01*
X41572365Y27083335D01*
X41351550Y27228722D01*
X41264499Y27274594D01*
X41169215Y27320965D01*
X41085769Y27358108D01*
X41007781Y27387042D01*
X40928869Y27408787D01*
X40842653Y27424364D01*
X40742752Y27434793D01*
X40622784Y27441093D01*
X40476369Y27444286D01*
X40297127Y27445390D01*
X40195582Y27445478D01*
X40018382Y27445318D01*
X39877637Y27444584D01*
X39767470Y27442891D01*
X39682003Y27439858D01*
X39615359Y27435101D01*
X39561660Y27428236D01*
X39515029Y27418882D01*
X39469587Y27406654D01*
X39434328Y27395863D01*
X39176703Y27294178D01*
X38941381Y27159282D01*
X38731322Y26994148D01*
X38549483Y26801747D01*
X38398824Y26585052D01*
X38282305Y26347035D01*
X38226314Y26182434D01*
X38214009Y26133385D01*
X38202920Y26075353D01*
X38192891Y26005419D01*
X38183766Y25920660D01*
X38175389Y25818157D01*
X38167604Y25694989D01*
X38160255Y25548235D01*
X38153186Y25374975D01*
X38146240Y25172289D01*
X38139261Y24937254D01*
X38132094Y24666952D01*
X38124583Y24358461D01*
X38121305Y24217561D01*
X38094973Y23230527D01*
X38060514Y22203657D01*
X38018032Y21138641D01*
X37967633Y20037171D01*
X37909420Y18900935D01*
X37843499Y17731623D01*
X37769974Y16530926D01*
X37688951Y15300534D01*
X37600534Y14042135D01*
X37504827Y12757421D01*
X37401936Y11448082D01*
X37291964Y10115806D01*
X37175018Y8762285D01*
X37136356Y8327373D01*
X37114998Y8093740D01*
X37096016Y7897840D01*
X37078853Y7735171D01*
X37062955Y7601233D01*
X37047766Y7491528D01*
X37032730Y7401554D01*
X37017293Y7326812D01*
X37008337Y7290206D01*
X36910193Y6993445D01*
X36776105Y6715342D01*
X36609022Y6458682D01*
X36411896Y6226246D01*
X36187677Y6020817D01*
X35939315Y5845179D01*
X35669763Y5702113D01*
X35381969Y5594403D01*
X35149663Y5537285D01*
X34897616Y5506263D01*
X34628522Y5504438D01*
X34355073Y5530885D01*
X34089964Y5584676D01*
X33955497Y5624514D01*
X33677831Y5738888D01*
X33419363Y5888781D01*
X33182639Y6070791D01*
X32970205Y6281515D01*
X32784608Y6517551D01*
X32628396Y6775497D01*
X32504114Y7051950D01*
X32414309Y7343508D01*
X32361528Y7646769D01*
X32351534Y7767391D01*
X32348746Y7850523D01*
X32349433Y7948288D01*
X32353871Y8065629D01*
X32362333Y8207487D01*
X32375092Y8378804D01*
X32392421Y8584522D01*
X32403897Y8712978D01*
X32514464Y9960044D01*
X32619450Y11201977D01*
X32718693Y12436062D01*
X32812029Y13659583D01*
X32899293Y14869826D01*
X32980323Y16064077D01*
X33054954Y17239620D01*
X33123024Y18393742D01*
X33184368Y19523726D01*
X33238823Y20626860D01*
X33286226Y21700427D01*
X33326412Y22741713D01*
X33359218Y23748003D01*
X33384481Y24716583D01*
X33393119Y25127728D01*
X33396796Y25328893D01*
X33399154Y25493056D01*
X33400061Y25625532D01*
X33399387Y25731636D01*
X33397002Y25816682D01*
X33392776Y25885986D01*
X33386577Y25944863D01*
X33378276Y25998626D01*
X33370773Y26037894D01*
X33297324Y26298230D01*
X33187525Y26541207D01*
X33044202Y26763083D01*
X32870186Y26960117D01*
X32668302Y27128567D01*
X32444747Y27263010D01*
X32341910Y27313530D01*
X32251102Y27354788D01*
X32166470Y27387721D01*
X32082161Y27413266D01*
X31992321Y27432358D01*
X31891098Y27445934D01*
X31772637Y27454931D01*
X31631086Y27460285D01*
X31460590Y27462932D01*
X31255298Y27463808D01*
X31189166Y27463864D01*
X30996260Y27463789D01*
X30840295Y27463191D01*
X30715879Y27461785D01*
X30617619Y27459288D01*
X30540124Y27455416D01*
X30478001Y27449885D01*
X30425858Y27442411D01*
X30378304Y27432711D01*
X30329946Y27420499D01*
X30321332Y27418174D01*
X30061560Y27326552D01*
X29822549Y27199891D01*
X29607280Y27041182D01*
X29418732Y26853416D01*
X29259886Y26639583D01*
X29133720Y26402675D01*
X29043216Y26145680D01*
X29039516Y26131728D01*
X29030471Y26096155D01*
X29022478Y26061164D01*
X29015416Y26023845D01*
X29009167Y25981287D01*
X29003610Y25930583D01*
X28998625Y25868822D01*
X28994093Y25793096D01*
X28989894Y25700495D01*
X28985908Y25588109D01*
X28982015Y25453030D01*
X28978095Y25292348D01*
X28974028Y25103154D01*
X28969695Y24882538D01*
X28964976Y24627592D01*
X28959751Y24335405D01*
X28955436Y24090561D01*
X28932011Y22926623D01*
X28903355Y21804398D01*
X28869442Y20723584D01*
X28830245Y19683881D01*
X28785736Y18684990D01*
X28735888Y17726610D01*
X28680674Y16808440D01*
X28620067Y15930180D01*
X28554039Y15091531D01*
X28482565Y14292191D01*
X28405616Y13531860D01*
X28323165Y12810239D01*
X28235185Y12127026D01*
X28141650Y11481922D01*
X28042532Y10874626D01*
X27937803Y10304838D01*
X27827437Y9772257D01*
X27711407Y9276584D01*
X27589686Y8817518D01*
X27568896Y8744728D01*
X27431463Y8293819D01*
X27290680Y7882795D01*
X27145353Y7509262D01*
X26994288Y7170827D01*
X26836292Y6865095D01*
X26670169Y6589674D01*
X26494726Y6342169D01*
X26308769Y6120187D01*
X26205947Y6012473D01*
X26012038Y5831099D01*
X25824922Y5684134D01*
X25636223Y5566462D01*
X25437561Y5472969D01*
X25220559Y5398542D01*
X25182529Y5387772D01*
X25038444Y5357449D01*
X24865516Y5335980D01*
X24676399Y5323852D01*
X24483751Y5321553D01*
X24300225Y5329571D01*
X24142643Y5347707D01*
X24052075Y5364854D01*
X23934315Y5390583D01*
X23802856Y5421775D01*
X23671189Y5455314D01*
X23634643Y5465102D01*
X22619303Y5761349D01*
X21622488Y6094090D01*
X20645189Y6462810D01*
X19688393Y6866991D01*
X18753090Y7306118D01*
X17840270Y7779675D01*
X16950920Y8287146D01*
X16086031Y8828014D01*
X15246591Y9401764D01*
X14433589Y10007879D01*
X13648015Y10645844D01*
X13557332Y10723064D01*
X13376298Y10879415D01*
X13198652Y11035535D01*
X13027789Y11188258D01*
X12867103Y11334417D01*
X12719991Y11470846D01*
X12589846Y11594378D01*
X12480065Y11701846D01*
X12394041Y11790084D01*
X12335170Y11855924D01*
X12315886Y11881021D01*
X12250811Y12008818D01*
X12223421Y12142517D01*
X12231017Y12275657D01*
X12270901Y12401778D01*
X12340374Y12514417D01*
X12436737Y12607115D01*
X12557294Y12673409D01*
X12658476Y12701324D01*
X12733489Y12713053D01*
X12832961Y12726938D01*
X12939265Y12740557D01*
X12975249Y12744862D01*
X13264186Y12799531D01*
X13544089Y12893076D01*
X13811145Y13022362D01*
X14061538Y13184253D01*
X14291454Y13375616D01*
X14497079Y13593314D01*
X14674597Y13834214D01*
X14820195Y14095180D01*
X14920384Y14343404D01*
X15001293Y14648708D01*
X15041843Y14954194D01*
X15043597Y15256746D01*
X15008119Y15553246D01*
X14936972Y15840576D01*
X14831722Y16115620D01*
X14693930Y16375260D01*
X14525163Y16616378D01*
X14326982Y16835858D01*
X14100953Y17030581D01*
X13848639Y17197432D01*
X13571604Y17333291D01*
X13386391Y17401147D01*
X13312336Y17424720D01*
X13244659Y17445168D01*
X13179960Y17462633D01*
X13114839Y17477258D01*
X13045898Y17489185D01*
X12969738Y17498557D01*
X12882959Y17505516D01*
X12782163Y17510204D01*
X12663950Y17512764D01*
X12524921Y17513338D01*
X12361677Y17512068D01*
X12170818Y17509098D01*
X11948947Y17504568D01*
X11692663Y17498623D01*
X11398567Y17491403D01*
X11293893Y17488796D01*
X10952997Y17480776D01*
X10651260Y17474780D01*
X10385554Y17470862D01*
X10152752Y17469080D01*
X9949725Y17469489D01*
X9773346Y17472147D01*
X9620486Y17477110D01*
X9488017Y17484433D01*
X9372810Y17494173D01*
X9271739Y17506387D01*
X9181675Y17521131D01*
X9149719Y17527401D01*
X8816616Y17616121D01*
X8505140Y17741166D01*
X8214556Y17902920D01*
X7944132Y18101761D01*
X7806645Y18224294D01*
X7688273Y18341129D01*
X7584467Y18454479D01*
X7490995Y18570774D01*
X7403625Y18696443D01*
X7318123Y18837913D01*
X7230258Y19001615D01*
X7135796Y19193976D01*
X7057527Y19362121D01*
X6653714Y20293601D01*
X6286410Y21242941D01*
X5956082Y22207791D01*
X5663197Y23185801D01*
X5408223Y24174619D01*
X5191627Y25171896D01*
X5013875Y26175281D01*
X4875437Y27182423D01*
X4776777Y28190974D01*
X4718365Y29198581D01*
X4700666Y30202895D01*
X4720578Y31117894D01*
X4783504Y32160116D01*
X4886314Y33189930D01*
X5028679Y34206631D01*
X5210272Y35209512D01*
X5430768Y36197866D01*
X5689837Y37170988D01*
X5697622Y37196053D01*
X11081301Y37196053D01*
X11082960Y37005964D01*
X11086982Y36826470D01*
X11093365Y36666381D01*
X11102111Y36534509D01*
X11108434Y36473061D01*
X11194353Y35947298D01*
X11318782Y35436842D01*
X11480269Y34943240D01*
X11677363Y34468035D01*
X11908614Y34012775D01*
X12172570Y33579003D01*
X12467782Y33168267D01*
X12792798Y32782112D01*
X13146167Y32422082D01*
X13526439Y32089724D01*
X13932162Y31786583D01*
X14361887Y31514205D01*
X14814162Y31274135D01*
X15287536Y31067918D01*
X15780560Y30897101D01*
X16291781Y30763228D01*
X16510082Y30718669D01*
X16613963Y30700406D01*
X16723881Y30683751D01*
X16847882Y30667701D01*
X16994012Y30651253D01*
X17170316Y30633404D01*
X17272082Y30623660D01*
X17368301Y30617735D01*
X17495874Y30614404D01*
X17643911Y30613565D01*
X17801519Y30615114D01*
X17957807Y30618948D01*
X18101882Y30624962D01*
X18218138Y30632654D01*
X18748238Y30698065D01*
X19266776Y30804013D01*
X19772416Y30949956D01*
X20263823Y31135351D01*
X20739664Y31359656D01*
X21198605Y31622329D01*
X21639310Y31922828D01*
X21907582Y32131804D01*
X22287126Y32469380D01*
X22638310Y32836194D01*
X22959862Y33229423D01*
X23250509Y33646241D01*
X23508980Y34083824D01*
X23734000Y34539347D01*
X23924299Y35009985D01*
X24078602Y35492913D01*
X24195639Y35985307D01*
X24274135Y36484341D01*
X24312819Y36987191D01*
X24311447Y37467894D01*
X24268151Y38005057D01*
X24184866Y38530169D01*
X24062225Y39041773D01*
X23900861Y39538413D01*
X23701407Y40018633D01*
X23464496Y40480977D01*
X23190761Y40923989D01*
X22880835Y41346212D01*
X22535350Y41746191D01*
X22383864Y41903119D01*
X21998826Y42260383D01*
X21591842Y42582784D01*
X21165147Y42869923D01*
X20720975Y43121404D01*
X20261561Y43336831D01*
X19789139Y43515805D01*
X19305945Y43657930D01*
X18814212Y43762808D01*
X18316176Y43830044D01*
X17814071Y43859240D01*
X17310132Y43849998D01*
X16806594Y43801922D01*
X16305690Y43714615D01*
X15809656Y43587680D01*
X15320727Y43420719D01*
X14886837Y43235070D01*
X14417744Y42991266D01*
X13973678Y42714189D01*
X13555915Y42405608D01*
X13165733Y42067295D01*
X12804409Y41701019D01*
X12473219Y41308550D01*
X12173440Y40891660D01*
X11906350Y40452117D01*
X11673226Y39991694D01*
X11475344Y39512159D01*
X11313981Y39015283D01*
X11190415Y38502836D01*
X11108434Y37997061D01*
X11098283Y37886153D01*
X11090494Y37741787D01*
X11085068Y37572775D01*
X11082003Y37387927D01*
X11081301Y37196053D01*
X5697622Y37196053D01*
X5987153Y38128170D01*
X6322390Y39068707D01*
X6695219Y39991891D01*
X7105313Y40897017D01*
X7552346Y41783378D01*
X8035990Y42650268D01*
X8555917Y43496980D01*
X9111802Y44322808D01*
X9703316Y45127046D01*
X10330132Y45908986D01*
X10991923Y46667923D01*
X11688363Y47403150D01*
X12419123Y48113961D01*
X12721249Y48391549D01*
X13474834Y49044921D01*
X14261421Y49672771D01*
X15079642Y50274294D01*
X15928132Y50848684D01*
X16805523Y51395136D01*
X17710450Y51912845D01*
X18641545Y52401007D01*
X19597441Y52858815D01*
X20576772Y53285465D01*
X21578172Y53680151D01*
X21896999Y53797380D01*
X22123596Y53878244D01*
X22354649Y53958771D01*
X22584777Y54037215D01*
X22808597Y54111829D01*
X23020727Y54180865D01*
X23215785Y54242577D01*
X23388389Y54295219D01*
X23533156Y54337042D01*
X23644705Y54366300D01*
X23663070Y54370608D01*
X23981852Y54424624D01*
X24288673Y54438274D01*
X24584204Y54411363D01*
G37*
X24584204Y54411363D02*
X24869114Y54343696D01*
X25144072Y54235080D01*
X25409749Y54085320D01*
X25666813Y53894222D01*
X25839071Y53738592D01*
X26070033Y53491677D01*
X26290821Y53209047D01*
X26501703Y52890085D01*
X26702948Y52534174D01*
X26894824Y52140697D01*
X27077599Y51709037D01*
X27251542Y51238577D01*
X27416921Y50728700D01*
X27574004Y50178790D01*
X27723059Y49588229D01*
X27810807Y49204811D01*
X27937869Y48592208D01*
X28057912Y47938553D01*
X28170857Y47244559D01*
X28276624Y46510935D01*
X28375134Y45738391D01*
X28466309Y44927636D01*
X28550069Y44079382D01*
X28626336Y43194339D01*
X28695030Y42273216D01*
X28756072Y41316724D01*
X28809384Y40325573D01*
X28817559Y40156061D01*
X28826007Y39978181D01*
X28834408Y39801538D01*
X28842391Y39633945D01*
X28849582Y39483214D01*
X28855610Y39357157D01*
X28860103Y39263586D01*
X28860956Y39245894D01*
X28868859Y39069170D01*
X28877341Y38855515D01*
X28886244Y38610327D01*
X28895408Y38339001D01*
X28904673Y38046934D01*
X28913881Y37739523D01*
X28922870Y37422164D01*
X28931482Y37100254D01*
X28939557Y36779189D01*
X28946936Y36464366D01*
X28953458Y36161181D01*
X28956099Y36028561D01*
X28963268Y35664787D01*
X28969956Y35340795D01*
X28976272Y35054038D01*
X28982327Y34801968D01*
X28988229Y34582039D01*
X28994089Y34391702D01*
X29000015Y34228412D01*
X29006118Y34089620D01*
X29012506Y33972779D01*
X29019290Y33875343D01*
X29026580Y33794763D01*
X29034483Y33728493D01*
X29043111Y33673986D01*
X29052572Y33628693D01*
X29060631Y33598022D01*
X29154906Y33346697D01*
X29287938Y33111916D01*
X29459110Y32894667D01*
X29566033Y32786078D01*
X29772082Y32619566D01*
X29999256Y32489150D01*
X30248434Y32394449D01*
X30520496Y32335079D01*
X30633179Y32321400D01*
X30774710Y32311450D01*
X30937550Y32306069D01*
X31113376Y32304976D01*
X31293864Y32307892D01*
X31470692Y32314537D01*
X31635537Y32324631D01*
X31780076Y32337893D01*
X31895986Y32354044D01*
X31951166Y32365733D01*
X32204602Y32451990D01*
X32440807Y32572918D01*
X32655615Y32724947D01*
X32844859Y32904510D01*
X33004371Y33108039D01*
X33129987Y33331967D01*
X33159618Y33400555D01*
X33201407Y33508390D01*
X33232773Y33603003D01*
X33255105Y33693568D01*
X33269789Y33789260D01*
X33278214Y33899253D01*
X33281767Y34032720D01*
X33281836Y34198835D01*
X33281772Y34208228D01*
X33279259Y34356205D01*
X33273639Y34542921D01*
X33265109Y34764910D01*
X33253867Y35018705D01*
X33240111Y35300841D01*
X33224038Y35607852D01*
X33205847Y35936272D01*
X33185734Y36282636D01*
X33163898Y36643477D01*
X33140536Y37015331D01*
X33115846Y37394730D01*
X33090025Y37778209D01*
X33063272Y38162303D01*
X33035784Y38543545D01*
X33030043Y38621478D01*
X32991580Y39132811D01*
X32951548Y39647168D01*
X32909712Y40167020D01*
X32865838Y40694836D01*
X32819692Y41233086D01*
X32771039Y41784239D01*
X32719643Y42350765D01*
X32665271Y42935134D01*
X32607688Y43539816D01*
X32546659Y44167281D01*
X32481949Y44819997D01*
X32413325Y45500436D01*
X32340551Y46211066D01*
X32263392Y46954358D01*
X32181615Y47732780D01*
X32094984Y48548804D01*
X32023634Y49215394D01*
X31982072Y49602132D01*
X31944751Y49949096D01*
X31911463Y50258612D01*
X31881999Y50533007D01*
X31856154Y50774605D01*
X31833718Y50985733D01*
X31814485Y51168716D01*
X31798247Y51325880D01*
X31784796Y51459550D01*
X31773925Y51572053D01*
X31765426Y51665714D01*
X31759092Y51742858D01*
X31754715Y51805812D01*
X31752087Y51856902D01*
X31751001Y51898451D01*
X31751249Y51932788D01*
X31752624Y51962237D01*
X31754919Y51989123D01*
X31757924Y52015773D01*
X31761434Y52044513D01*
X31765241Y52077668D01*
X31766815Y52092839D01*
X31818813Y52411935D01*
X31908322Y52715522D01*
X32033383Y53000872D01*
X32192034Y53265255D01*
X32382315Y53505943D01*
X32602267Y53720205D01*
X32849927Y53905314D01*
X33123336Y54058540D01*
X33205778Y54096024D01*
X33497804Y54199994D01*
X33795550Y54263334D01*
X34095518Y54286732D01*
X34394212Y54270874D01*
X34688134Y54216449D01*
X34973788Y54124145D01*
X35247676Y53994648D01*
X35506302Y53828647D01*
X35746167Y53626828D01*
X35784927Y53588906D01*
X35998685Y53346564D01*
X36175154Y53084741D01*
X36313719Y52804649D01*
X36413765Y52507500D01*
X36468087Y52242228D01*
X36477265Y52173696D01*
X36490451Y52065637D01*
X36507372Y51920639D01*
X36527756Y51741290D01*
X36551330Y51530180D01*
X36577822Y51289896D01*
X36606959Y51023028D01*
X36638470Y50732164D01*
X36672082Y50419893D01*
X36707523Y50088804D01*
X36744519Y49741485D01*
X36782800Y49380524D01*
X36822092Y49008511D01*
X36862123Y48628035D01*
X36902621Y48241683D01*
X36943314Y47852045D01*
X36983929Y47461709D01*
X37024193Y47073264D01*
X37063835Y46689298D01*
X37102583Y46312401D01*
X37140163Y45945161D01*
X37176303Y45590166D01*
X37210731Y45250005D01*
X37243176Y44927267D01*
X37273363Y44624541D01*
X37301022Y44344415D01*
X37325879Y44089478D01*
X37326556Y44082478D01*
X37433372Y42952165D01*
X37533034Y41844449D01*
X37625379Y40761542D01*
X37710243Y39705658D01*
X37787463Y38679013D01*
X37856875Y37683819D01*
X37918316Y36722290D01*
X37971622Y35796641D01*
X38016630Y34909085D01*
X38036749Y34462228D01*
X38043960Y34309258D01*
X38052064Y34162278D01*
X38060535Y34029217D01*
X38068846Y33918003D01*
X38076470Y33836562D01*
X38080373Y33806061D01*
X38142249Y33540875D01*
X38242751Y33292845D01*
X38381473Y33062745D01*
X38558007Y32851348D01*
X38611581Y32798076D01*
X38804874Y32636008D01*
X39013116Y32507810D01*
X39244539Y32408890D01*
X39390801Y32363622D01*
X39480477Y32345801D01*
X39603799Y32330755D01*
X39752153Y32318767D01*
X39916924Y32310116D01*
X40089498Y32305084D01*
X40261261Y32303951D01*
X40423599Y32306998D01*
X40567898Y32314507D01*
X40652749Y32322472D01*
X40924410Y32374024D01*
X41175827Y32462600D01*
X41408477Y32588891D01*
X41623835Y32753583D01*
X41671929Y32797775D01*
X41859107Y33003009D01*
X42009110Y33228293D01*
X42122755Y33474997D01*
X42177466Y33647311D01*
X42190059Y33699604D01*
X42199599Y33754091D01*
X42206424Y33817237D01*
X42210875Y33895502D01*
X42213291Y33995349D01*
X42214014Y34123240D01*
X42213383Y34285638D01*
X42213111Y34324644D01*
X42210099Y34549588D01*
X42204204Y34812399D01*
X42195622Y35108725D01*
X42184552Y35434210D01*
X42171193Y35784503D01*
X42155743Y36155249D01*
X42138399Y36542095D01*
X42119362Y36940688D01*
X42098827Y37346673D01*
X42076995Y37755699D01*
X42054063Y38163410D01*
X42030230Y38565454D01*
X42005694Y38957477D01*
X41993774Y39140061D01*
X41938129Y39935976D01*
X41877725Y40715916D01*
X41812862Y41477137D01*
X41743841Y42216895D01*
X41670958Y42932445D01*
X41594516Y43621043D01*
X41514812Y44279943D01*
X41432145Y44906401D01*
X41346816Y45497673D01*
X41259124Y46051014D01*
X41206520Y46357894D01*
X41177469Y46525113D01*
X41155573Y46659816D01*
X41139868Y46771038D01*
X41129395Y46867812D01*
X41123192Y46959172D01*
X41120297Y47054150D01*
X41119748Y47161780D01*
X41119783Y47172811D01*
X41127643Y47393891D01*
X41151644Y47588880D01*
X41195002Y47772002D01*
X41260931Y47957476D01*
X41334365Y48121865D01*
X41482677Y48384988D01*
X41660164Y48620095D01*
X41863495Y48825721D01*
X42089334Y49000402D01*
X42334351Y49142672D01*
X42595210Y49251066D01*
X42868579Y49324118D01*
X43151125Y49360362D01*
X43439514Y49358334D01*
X43730413Y49316569D01*
X43931499Y49263613D01*
X44208282Y49154996D01*
X44464600Y49010819D01*
X44697663Y48833988D01*
X44904680Y48627411D01*
X45082861Y48393995D01*
X45229414Y48136647D01*
X45341550Y47858274D01*
X45369639Y47765478D01*
X45397665Y47652463D01*
X45429674Y47501015D01*
X45465126Y47314791D01*
X45503480Y47097450D01*
X45544197Y46852647D01*
X45586736Y46584042D01*
X45630558Y46295292D01*
X45675121Y45990053D01*
X45719887Y45671985D01*
X45764313Y45344745D01*
X45807862Y45011990D01*
X45849991Y44677377D01*
X45890161Y44344566D01*
X45927832Y44017212D01*
X45941712Y43891978D01*
X46052103Y42822372D01*
X46153166Y41714374D01*
X46244695Y40570931D01*
X46326487Y39394989D01*
X46398338Y38189495D01*
X46460043Y36957395D01*
X46511399Y35701635D01*
X46513738Y35636978D01*
X46525462Y35312326D01*
X46535904Y35027173D01*
X46545212Y34778708D01*
X46553536Y34564121D01*
X46561024Y34380600D01*
X46567825Y34225335D01*
X46574089Y34095517D01*
X46579964Y33988333D01*
X46585599Y33900975D01*
X46591144Y33830630D01*
X46596747Y33774489D01*
X46602558Y33729740D01*
X46608724Y33693574D01*
X46615396Y33663180D01*
X46619145Y33648613D01*
X46697819Y33410266D01*
X46800000Y33200000D01*
X46931363Y33007502D01*
X47042906Y32878666D01*
X47220063Y32708854D01*
X47402187Y32573974D01*
X47600398Y32467074D01*
X47825813Y32381204D01*
X47851407Y32373157D01*
X47903628Y32357258D01*
X47949777Y32344587D01*
X47995368Y32334770D01*
X48045915Y32327434D01*
X48106931Y32322207D01*
X48183930Y32318714D01*
X48282426Y32316583D01*
X48407933Y32315441D01*
X48565963Y32314913D01*
X48715166Y32314689D01*
X48924725Y32314782D01*
X49097869Y32316251D01*
X49240512Y32319990D01*
X49358569Y32326893D01*
X49457956Y32337855D01*
X49544588Y32353769D01*
X49624379Y32375528D01*
X49703244Y32404028D01*
X49787099Y32440161D01*
X49881858Y32484822D01*
X49900499Y32493821D01*
X50137484Y32631119D01*
X50346238Y32799586D01*
X50525217Y32997682D01*
X50672876Y33223866D01*
X50715722Y33307000D01*
X50798624Y33508287D01*
X50852417Y33713452D01*
X50879718Y33934653D01*
X50884495Y34091811D01*
X50882721Y34231160D01*
X50877515Y34409185D01*
X50869109Y34622386D01*
X50857738Y34867266D01*
X50843633Y35140326D01*
X50827029Y35438066D01*
X50808158Y35756989D01*
X50787254Y36093596D01*
X50764550Y36444388D01*
X50740278Y36805866D01*
X50714673Y37174532D01*
X50687967Y37546887D01*
X50660394Y37919432D01*
X50632186Y38288669D01*
X50603577Y38651099D01*
X50574800Y39003224D01*
X50546088Y39341544D01*
X50517674Y39662561D01*
X50501505Y39838561D01*
X50481826Y40074208D01*
X50470294Y40271272D01*
X50466959Y40428675D01*
X50469635Y40516410D01*
X50507686Y40800184D01*
X50584658Y41074099D01*
X50698333Y41333340D01*
X50846490Y41573093D01*
X51026908Y41788543D01*
X51080967Y41842022D01*
X51203271Y41953134D01*
X51313895Y42040620D01*
X51427036Y42114361D01*
X51556889Y42184236D01*
X51609508Y42209893D01*
X51763200Y42277888D01*
X51904475Y42326768D01*
X52045895Y42359191D01*
X52200025Y42377817D01*
X52379428Y42385303D01*
X52440499Y42385776D01*
X52627615Y42381890D01*
X52785866Y42367700D01*
X52928034Y42340487D01*
X53066903Y42297529D01*
X53215254Y42236107D01*
X53275066Y42208177D01*
X53524217Y42066073D01*
X53748851Y41891208D01*
X53946035Y41687241D01*
X54112834Y41457829D01*
X54246317Y41206628D01*
X54343548Y40937298D01*
X54366720Y40847051D01*
X54381121Y40769072D01*
X54397606Y40651604D01*
X54415967Y40497430D01*
X54435998Y40309330D01*
X54457491Y40090089D01*
X54480239Y39842487D01*
X54504035Y39569308D01*
X54528672Y39273333D01*
X54553943Y38957345D01*
X54579641Y38624126D01*
X54605558Y38276459D01*
X54631488Y37917124D01*
X54657223Y37548906D01*
X54682556Y37174585D01*
X54707281Y36796945D01*
X54731189Y36418767D01*
X54754074Y36042834D01*
X54775729Y35671928D01*
X54795947Y35308832D01*
X54814520Y34956327D01*
X54831242Y34617195D01*
X54832564Y34589228D01*
X54843052Y34372572D01*
X54852594Y34193008D01*
X54861790Y34045324D01*
X54871242Y33924307D01*
X54881550Y33824744D01*
X54893315Y33741423D01*
X54907138Y33669130D01*
X54923620Y33602654D01*
X54943362Y33536781D01*
X54959497Y33488077D01*
X55064000Y33244822D01*
X55203088Y33022935D01*
X55373252Y32825323D01*
X55570980Y32654890D01*
X55792763Y32514540D01*
X56035092Y32407181D01*
X56294457Y32335715D01*
X56367207Y32322911D01*
X56458486Y32313655D01*
X56586815Y32308013D01*
X56747057Y32306105D01*
X56934074Y32308052D01*
X56969128Y32308797D01*
X57128194Y32313027D01*
X57252493Y32318031D01*
X57349593Y32324511D01*
X57427060Y32333168D01*
X57492461Y32344705D01*
X57553364Y32359823D01*
X57569627Y32364495D01*
X57822303Y32459666D01*
X58054644Y32588886D01*
X58263663Y32748614D01*
X58446376Y32935307D01*
X58599797Y33145423D01*
X58720941Y33375420D01*
X58806823Y33621755D01*
X58854457Y33880887D01*
X58855389Y33890082D01*
X58858547Y33958024D01*
X58858620Y34058592D01*
X58855824Y34182204D01*
X58850377Y34319284D01*
X58842496Y34460231D01*
X58832864Y34621244D01*
X58827308Y34748510D01*
X58825821Y34850416D01*
X58828393Y34935350D01*
X58835017Y35011701D01*
X58841873Y35063284D01*
X58902636Y35335005D01*
X59000274Y35589525D01*
X59132452Y35823666D01*
X59296834Y36034252D01*
X59491086Y36218108D01*
X59712873Y36372056D01*
X59861466Y36450287D01*
X60112647Y36545664D01*
X60369152Y36600881D01*
X60626965Y36617072D01*
X60882069Y36595367D01*
X61130448Y36536899D01*
X61368088Y36442798D01*
X61590972Y36314196D01*
X61795085Y36152226D01*
X61976410Y35958018D01*
X62072014Y35827367D01*
X62140413Y35719917D01*
X62197935Y35617225D01*
X62245906Y35513861D01*
X62285654Y35404395D01*
X62318506Y35283398D01*
X62345790Y35145441D01*
X62368834Y34985095D01*
X62388966Y34796931D01*
X62407511Y34575518D01*
X62419757Y34405204D01*
X62433387Y34212410D01*
X62445524Y34055984D01*
X62456868Y33930019D01*
X62468118Y33828607D01*
X62479973Y33745839D01*
X62493131Y33675808D01*
X62508292Y33612605D01*
X62517422Y33579704D01*
X62612083Y33326081D01*
X62742269Y33093194D01*
X62905144Y32883869D01*
X63097875Y32700935D01*
X63317625Y32547219D01*
X63561561Y32425548D01*
X63736831Y32363449D01*
X63784089Y32350114D01*
X63831103Y32339449D01*
X63883459Y32331070D01*
X63946745Y32324595D01*
X64026548Y32319644D01*
X64128455Y32315834D01*
X64258053Y32312783D01*
X64420929Y32310110D01*
X64541203Y32308473D01*
X64757183Y32306306D01*
X64936781Y32306363D01*
X65085921Y32309259D01*
X65210523Y32315607D01*
X65316510Y32326022D01*
X65409804Y32341119D01*
X65496326Y32361513D01*
X65581998Y32387818D01*
X65672742Y32420649D01*
X65691552Y32427872D01*
X65929518Y32542271D01*
X66147503Y32692522D01*
X66341855Y32875418D01*
X66508922Y33087754D01*
X66586534Y33213573D01*
X66618928Y33273355D01*
X66647133Y33331951D01*
X66673554Y33396257D01*
X66700596Y33473168D01*
X66730661Y33569579D01*
X66766155Y33692385D01*
X66809482Y33848481D01*
X66815263Y33869561D01*
X67033480Y34595372D01*
X67282877Y35293071D01*
X67563976Y35963744D01*
X67877301Y36608474D01*
X68223375Y37228344D01*
X68602721Y37824440D01*
X68976657Y38346311D01*
X69418062Y38894738D01*
X69892967Y39418151D01*
X70399997Y39915535D01*
X70937777Y40385877D01*
X71504935Y40828161D01*
X72100095Y41241375D01*
X72721884Y41624502D01*
X73368928Y41976530D01*
X74039853Y42296443D01*
X74697249Y42569363D01*
X74927576Y42656774D01*
X75122975Y42727369D01*
X75286896Y42782191D01*
X75422791Y42822283D01*
X75534112Y42848688D01*
X75624311Y42862452D01*
X75675413Y42865122D01*
X75845807Y42845406D01*
X76003255Y42787971D01*
X76141950Y42696397D01*
X76256084Y42574260D01*
X76320724Y42467516D01*
X76350481Y42401213D01*
X76368341Y42341528D01*
X76377194Y42273289D01*
X76379931Y42181319D01*
X76379999Y42156311D01*
X76379999Y41965811D01*
X76164708Y41500144D01*
X75745071Y40542101D01*
X75363893Y39566684D01*
X75021355Y38574601D01*
X74717639Y37566561D01*
X74452925Y36543269D01*
X74227395Y35505435D01*
X74041230Y34453765D01*
X73894611Y33388967D01*
X73787719Y32311749D01*
X73777158Y32176228D01*
X73721797Y31206209D01*
X73700515Y30219908D01*
X73713068Y29225818D01*
X73759208Y28232433D01*
X73838689Y27248246D01*
X73947055Y26313061D01*
X74101091Y25304383D01*
X74292005Y24301007D01*
X74518773Y23306574D01*
X74780370Y22324726D01*
X75075772Y21359104D01*
X75403956Y20413349D01*
X75763896Y19491103D01*
X76057468Y18809478D01*
X76139611Y18626700D01*
X76206255Y18478113D01*
X76258958Y18359164D01*
X76299278Y18265297D01*
X76328775Y18191960D01*
X76349005Y18134598D01*
X76361527Y18088657D01*
X76367899Y18049585D01*
X76369680Y18012826D01*
X76368428Y17973827D01*
X76365701Y17928034D01*
X76364781Y17911380D01*
X76346523Y17756870D01*
X76306490Y17629675D01*
X76239917Y17518345D01*
X76166661Y17435316D01*
X76071573Y17350932D01*
X75977753Y17294087D01*
X75873441Y17260320D01*
X75746877Y17245165D01*
X75660332Y17243144D01*
X75585378Y17243539D01*
X75524416Y17246070D01*
X75469134Y17252758D01*
X75411221Y17265625D01*
X75342364Y17286692D01*
X75254252Y17317980D01*
X75138573Y17361511D01*
X75076923Y17385017D01*
X74598614Y17574975D01*
X74123820Y17777942D01*
X73660576Y17990140D01*
X73216916Y18207785D01*
X72800874Y18427098D01*
X72495916Y18599689D01*
X71842304Y19004333D01*
X71223605Y19431945D01*
X70640017Y19882276D01*
X70091739Y20355075D01*
X69578968Y20850094D01*
X69101903Y21367083D01*
X68660743Y21905794D01*
X68255686Y22465975D01*
X67886930Y23047379D01*
X67554674Y23649756D01*
X67259116Y24272856D01*
X67000455Y24916430D01*
X66778888Y25580229D01*
X66687230Y25900579D01*
X66624990Y26113849D01*
X66562457Y26293970D01*
X66496408Y26450025D01*
X66480907Y26482394D01*
X66432856Y26577344D01*
X66389516Y26652544D01*
X66342932Y26718705D01*
X66285149Y26786533D01*
X66208212Y26866736D01*
X66158474Y26916413D01*
X65979504Y27077330D01*
X65798700Y27204268D01*
X65608401Y27300573D01*
X65400946Y27369589D01*
X65168677Y27414662D01*
X64971166Y27434940D01*
X64741984Y27447923D01*
X64521211Y27453992D01*
X64316432Y27453228D01*
X64135232Y27445712D01*
X63985196Y27431524D01*
X63935012Y27423896D01*
X63670389Y27356965D01*
X63423976Y27252784D01*
X63198682Y27113574D01*
X62997417Y26941557D01*
X62823094Y26738955D01*
X62678622Y26507990D01*
X62643746Y26438183D01*
X62602055Y26345512D01*
X62567791Y26256589D01*
X62539885Y26165300D01*
X62517272Y26065529D01*
X62498884Y25951161D01*
X62483652Y25816082D01*
X62470511Y25654176D01*
X62458392Y25459329D01*
X62451956Y25339394D01*
X62436668Y25045659D01*
X62423007Y24790752D01*
X62410588Y24571215D01*
X62399030Y24383592D01*
X62387950Y24224423D01*
X62376966Y24090252D01*
X62365694Y23977620D01*
X62353752Y23883071D01*
X62340758Y23803147D01*
X62326329Y23734389D01*
X62310083Y23673341D01*
X62291637Y23616545D01*
X62270608Y23560543D01*
X62249372Y23508478D01*
X62122921Y23254801D01*
X61967954Y23032272D01*
X61783709Y22840074D01*
X61569429Y22677392D01*
X61371690Y22565894D01*
X61123454Y22467271D01*
X60864662Y22408251D01*
X60600069Y22388971D01*
X60334431Y22409567D01*
X60072503Y22470175D01*
X59922652Y22524336D01*
X59691231Y22642142D01*
X59480618Y22794116D01*
X59293864Y22975996D01*
X59134022Y23183520D01*
X59004144Y23412427D01*
X58907282Y23658456D01*
X58846487Y23917343D01*
X58830656Y24049201D01*
X58828528Y24111920D01*
X58829026Y24209676D01*
X58831933Y24335269D01*
X58837035Y24481498D01*
X58844116Y24641163D01*
X58852960Y24807064D01*
X58853762Y24820811D01*
X58867994Y25073894D01*
X58878548Y25289165D01*
X58885394Y25470989D01*
X58888502Y25623730D01*
X58887841Y25751751D01*
X58883381Y25859417D01*
X58875092Y25951093D01*
X58862943Y26031141D01*
X58846905Y26103928D01*
X58844824Y26111978D01*
X58756207Y26370891D01*
X58633234Y26608962D01*
X58479031Y26823353D01*
X58296725Y27011223D01*
X58089445Y27169733D01*
X57860318Y27296043D01*
X57612471Y27387312D01*
X57387194Y27435546D01*
X57288041Y27445536D01*
X57161093Y27451587D01*
X57015107Y27453939D01*
X56858837Y27452833D01*
X56701036Y27448509D01*
X56550459Y27441207D01*
X56415861Y27431168D01*
X56305995Y27418632D01*
X56229616Y27403839D01*
X56229332Y27403759D01*
X55973134Y27310741D01*
X55735827Y27182154D01*
X55521289Y27021227D01*
X55333399Y26831189D01*
X55176036Y26615270D01*
X55087345Y26453015D01*
X55056179Y26387403D01*
X55029148Y26327624D01*
X55005820Y26270126D01*
X54985765Y26211354D01*
X54968552Y26147757D01*
X54953751Y26075782D01*
X54940931Y25991874D01*
X54929661Y25892482D01*
X54919511Y25774051D01*
X54910050Y25633030D01*
X54900847Y25465865D01*
X54891473Y25269004D01*
X54881495Y25038892D01*
X54870485Y24771977D01*
X54863870Y24609144D01*
X54848958Y24264443D01*
X54831673Y23905430D01*
X54812239Y23534911D01*
X54790878Y23155694D01*
X54767813Y22770584D01*
X54743267Y22382390D01*
X54717463Y21993916D01*
X54690624Y21607970D01*
X54662972Y21227359D01*
X54634731Y20854889D01*
X54606124Y20493367D01*
X54577372Y20145599D01*
X54548700Y19814392D01*
X54520330Y19502552D01*
X54492484Y19212887D01*
X54465387Y18948203D01*
X54439260Y18711306D01*
X54414327Y18505003D01*
X54390810Y18332101D01*
X54368932Y18195407D01*
X54348917Y18097726D01*
X54345833Y18085643D01*
X54253140Y17816053D01*
X54124537Y17565018D01*
X53963172Y17335926D01*
X53772191Y17132167D01*
X53554743Y16957130D01*
X53313976Y16814204D01*
X53070471Y16712589D01*
X52791963Y16639776D01*
X52512166Y16608192D01*
X52234643Y16617009D01*
X51962952Y16665400D01*
X51700653Y16752539D01*
X51451306Y16877598D01*
X51218471Y17039751D01*
X51063220Y17178838D01*
X50871982Y17397724D01*
X50715742Y17639258D01*
X50595910Y17900323D01*
X50513896Y18177799D01*
X50471111Y18468568D01*
X50469447Y18491978D01*
X50466970Y18572742D01*
X50469029Y18675719D01*
X50475880Y18805031D01*
X50487783Y18964800D01*
X50504995Y19159148D01*
X50522396Y19338644D01*
X50563694Y19764949D01*
X50604118Y20206062D01*
X50643408Y20658030D01*
X50681305Y21116897D01*
X50717549Y21578707D01*
X50751879Y22039505D01*
X50784035Y22495335D01*
X50813759Y22942243D01*
X50840789Y23376273D01*
X50864866Y23793468D01*
X50885730Y24189875D01*
X50903121Y24561537D01*
X50916779Y24904499D01*
X50926443Y25214806D01*
X50931856Y25488502D01*
X50932747Y25582811D01*
X50933286Y25725383D01*
X50932397Y25834140D01*
X50929287Y25917597D01*
X50923163Y25984268D01*
X50913234Y26042668D01*
X50898707Y26101310D01*
X50878789Y26168710D01*
X50877963Y26171403D01*
X50775731Y26436985D01*
X50640883Y26676564D01*
X50475124Y26888445D01*
X50280164Y27070934D01*
X50057707Y27222339D01*
X49809462Y27340964D01*
X49641958Y27397712D01*
X49595850Y27410544D01*
X49551975Y27420849D01*
X49505162Y27428901D01*
X49450239Y27434977D01*
X49382034Y27439350D01*
X49295376Y27442296D01*
X49185092Y27444091D01*
X49046011Y27445010D01*
X48872962Y27445328D01*
X48746916Y27445344D01*
X48016666Y27445209D01*
X47836749Y27385287D01*
X47576661Y27277959D01*
X47341527Y27138762D01*
X47133667Y26970319D01*
X46955398Y26775249D01*
X46809039Y26556173D01*
X46696907Y26315710D01*
X46621321Y26056481D01*
X46610107Y25998777D01*
X46605764Y25955472D01*
X46600947Y25874126D01*
X46595796Y25759028D01*
X46590451Y25614468D01*
X46585052Y25444735D01*
X46579740Y25254115D01*
X46574653Y25046900D01*
X46569933Y24827377D01*
X46567183Y24683228D01*
X46551974Y23890470D01*
X46535760Y23137669D01*
X46518437Y22422457D01*
X46499897Y21742466D01*
X46480035Y21095329D01*
X46458744Y20478680D01*
X46435918Y19890149D01*
X46411452Y19327371D01*
X46385238Y18787976D01*
X46357172Y18269599D01*
X46327145Y17769872D01*
X46295054Y17286427D01*
X46260790Y16816897D01*
X46224249Y16358914D01*
X46185324Y15910111D01*
X46162852Y15666228D01*
X46130080Y15331735D01*
X46094508Y14994063D01*
X46056655Y14656874D01*
X46017037Y14323831D01*
X45976174Y13998597D01*
X45934583Y13684834D01*
X45892783Y13386205D01*
X45851292Y13106374D01*
X45810628Y12849001D01*
X45771309Y12617751D01*
X45733855Y12416285D01*
X45698782Y12248268D01*
X45666609Y12117360D01*
X45655142Y12077751D01*
X45624887Y11992802D01*
X45581390Y11887711D01*
X45531850Y11779408D01*
X45506398Y11728038D01*
X45353774Y11473436D01*
X45173285Y11247591D01*
X44968478Y11051442D01*
X44742900Y10885926D01*
X44500097Y10751981D01*
X44243614Y10650547D01*
X43977000Y10582562D01*
X43703799Y10548963D01*
X43427559Y10550689D01*
X43151825Y10588678D01*
X42880145Y10663869D01*
X42616065Y10777200D01*
X42398061Y10905667D01*
X42155932Y11092999D01*
X41944978Y11308024D01*
X41766682Y11548258D01*
X41622533Y11811213D01*
X41514015Y12094405D01*
X41442616Y12395347D01*
X41422911Y12536628D01*
X41413484Y12637216D01*
X41409021Y12731184D01*
X41410099Y12826298D01*
X41417293Y12930322D01*
X41431180Y13051023D01*
X41452336Y13196164D01*
X41481337Y13373510D01*
X41487866Y13411978D01*
X41568470Y13909201D01*
X41643736Y14424405D01*
X41713828Y14959624D01*
X41778911Y15516894D01*
X41839149Y16098250D01*
X41894708Y16705728D01*
X41945750Y17341363D01*
X41992442Y18007189D01*
X42034948Y18705243D01*
X42073431Y19437560D01*
X42108058Y20206175D01*
X42138991Y21013124D01*
X42163779Y21772811D01*
X42173440Y22107734D01*
X42182849Y22461576D01*
X42191872Y22827680D01*
X42200374Y23199391D01*
X42208222Y23570055D01*
X42215282Y23933015D01*
X42221419Y24281616D01*
X42226499Y24609203D01*
X42230389Y24909121D01*
X42232954Y25174713D01*
X42233295Y25222978D01*
X42234449Y25441059D01*
X42234268Y25622282D01*
X42231990Y25772117D01*
X42226853Y25896034D01*
X42218096Y25999505D01*
X42204955Y26088000D01*
X42186670Y26166989D01*
X42162477Y26241944D01*
X42131614Y26318335D01*
X42093320Y26401633D01*
X42059322Y26471811D01*
X41923570Y26707587D01*
X41762145Y26910526D01*
X41572365Y27083335D01*
X41351550Y27228722D01*
X41264499Y27274594D01*
X41169215Y27320965D01*
X41085769Y27358108D01*
X41007781Y27387042D01*
X40928869Y27408787D01*
X40842653Y27424364D01*
X40742752Y27434793D01*
X40622784Y27441093D01*
X40476369Y27444286D01*
X40297127Y27445390D01*
X40195582Y27445478D01*
X40018382Y27445318D01*
X39877637Y27444584D01*
X39767470Y27442891D01*
X39682003Y27439858D01*
X39615359Y27435101D01*
X39561660Y27428236D01*
X39515029Y27418882D01*
X39469587Y27406654D01*
X39434328Y27395863D01*
X39176703Y27294178D01*
X38941381Y27159282D01*
X38731322Y26994148D01*
X38549483Y26801747D01*
X38398824Y26585052D01*
X38282305Y26347035D01*
X38226314Y26182434D01*
X38214009Y26133385D01*
X38202920Y26075353D01*
X38192891Y26005419D01*
X38183766Y25920660D01*
X38175389Y25818157D01*
X38167604Y25694989D01*
X38160255Y25548235D01*
X38153186Y25374975D01*
X38146240Y25172289D01*
X38139261Y24937254D01*
X38132094Y24666952D01*
X38124583Y24358461D01*
X38121305Y24217561D01*
X38094973Y23230527D01*
X38060514Y22203657D01*
X38018032Y21138641D01*
X37967633Y20037171D01*
X37909420Y18900935D01*
X37843499Y17731623D01*
X37769974Y16530926D01*
X37688951Y15300534D01*
X37600534Y14042135D01*
X37504827Y12757421D01*
X37401936Y11448082D01*
X37291964Y10115806D01*
X37175018Y8762285D01*
X37136356Y8327373D01*
X37114998Y8093740D01*
X37096016Y7897840D01*
X37078853Y7735171D01*
X37062955Y7601233D01*
X37047766Y7491528D01*
X37032730Y7401554D01*
X37017293Y7326812D01*
X37008337Y7290206D01*
X36910193Y6993445D01*
X36776105Y6715342D01*
X36609022Y6458682D01*
X36411896Y6226246D01*
X36187677Y6020817D01*
X35939315Y5845179D01*
X35669763Y5702113D01*
X35381969Y5594403D01*
X35149663Y5537285D01*
X34897616Y5506263D01*
X34628522Y5504438D01*
X34355073Y5530885D01*
X34089964Y5584676D01*
X33955497Y5624514D01*
X33677831Y5738888D01*
X33419363Y5888781D01*
X33182639Y6070791D01*
X32970205Y6281515D01*
X32784608Y6517551D01*
X32628396Y6775497D01*
X32504114Y7051950D01*
X32414309Y7343508D01*
X32361528Y7646769D01*
X32351534Y7767391D01*
X32348746Y7850523D01*
X32349433Y7948288D01*
X32353871Y8065629D01*
X32362333Y8207487D01*
X32375092Y8378804D01*
X32392421Y8584522D01*
X32403897Y8712978D01*
X32514464Y9960044D01*
X32619450Y11201977D01*
X32718693Y12436062D01*
X32812029Y13659583D01*
X32899293Y14869826D01*
X32980323Y16064077D01*
X33054954Y17239620D01*
X33123024Y18393742D01*
X33184368Y19523726D01*
X33238823Y20626860D01*
X33286226Y21700427D01*
X33326412Y22741713D01*
X33359218Y23748003D01*
X33384481Y24716583D01*
X33393119Y25127728D01*
X33396796Y25328893D01*
X33399154Y25493056D01*
X33400061Y25625532D01*
X33399387Y25731636D01*
X33397002Y25816682D01*
X33392776Y25885986D01*
X33386577Y25944863D01*
X33378276Y25998626D01*
X33370773Y26037894D01*
X33297324Y26298230D01*
X33187525Y26541207D01*
X33044202Y26763083D01*
X32870186Y26960117D01*
X32668302Y27128567D01*
X32444747Y27263010D01*
X32341910Y27313530D01*
X32251102Y27354788D01*
X32166470Y27387721D01*
X32082161Y27413266D01*
X31992321Y27432358D01*
X31891098Y27445934D01*
X31772637Y27454931D01*
X31631086Y27460285D01*
X31460590Y27462932D01*
X31255298Y27463808D01*
X31189166Y27463864D01*
X30996260Y27463789D01*
X30840295Y27463191D01*
X30715879Y27461785D01*
X30617619Y27459288D01*
X30540124Y27455416D01*
X30478001Y27449885D01*
X30425858Y27442411D01*
X30378304Y27432711D01*
X30329946Y27420499D01*
X30321332Y27418174D01*
X30061560Y27326552D01*
X29822549Y27199891D01*
X29607280Y27041182D01*
X29418732Y26853416D01*
X29259886Y26639583D01*
X29133720Y26402675D01*
X29043216Y26145680D01*
X29039516Y26131728D01*
X29030471Y26096155D01*
X29022478Y26061164D01*
X29015416Y26023845D01*
X29009167Y25981287D01*
X29003610Y25930583D01*
X28998625Y25868822D01*
X28994093Y25793096D01*
X28989894Y25700495D01*
X28985908Y25588109D01*
X28982015Y25453030D01*
X28978095Y25292348D01*
X28974028Y25103154D01*
X28969695Y24882538D01*
X28964976Y24627592D01*
X28959751Y24335405D01*
X28955436Y24090561D01*
X28932011Y22926623D01*
X28903355Y21804398D01*
X28869442Y20723584D01*
X28830245Y19683881D01*
X28785736Y18684990D01*
X28735888Y17726610D01*
X28680674Y16808440D01*
X28620067Y15930180D01*
X28554039Y15091531D01*
X28482565Y14292191D01*
X28405616Y13531860D01*
X28323165Y12810239D01*
X28235185Y12127026D01*
X28141650Y11481922D01*
X28042532Y10874626D01*
X27937803Y10304838D01*
X27827437Y9772257D01*
X27711407Y9276584D01*
X27589686Y8817518D01*
X27568896Y8744728D01*
X27431463Y8293819D01*
X27290680Y7882795D01*
X27145353Y7509262D01*
X26994288Y7170827D01*
X26836292Y6865095D01*
X26670169Y6589674D01*
X26494726Y6342169D01*
X26308769Y6120187D01*
X26205947Y6012473D01*
X26012038Y5831099D01*
X25824922Y5684134D01*
X25636223Y5566462D01*
X25437561Y5472969D01*
X25220559Y5398542D01*
X25182529Y5387772D01*
X25038444Y5357449D01*
X24865516Y5335980D01*
X24676399Y5323852D01*
X24483751Y5321553D01*
X24300225Y5329571D01*
X24142643Y5347707D01*
X24052075Y5364854D01*
X23934315Y5390583D01*
X23802856Y5421775D01*
X23671189Y5455314D01*
X23634643Y5465102D01*
X22619303Y5761349D01*
X21622488Y6094090D01*
X20645189Y6462810D01*
X19688393Y6866991D01*
X18753090Y7306118D01*
X17840270Y7779675D01*
X16950920Y8287146D01*
X16086031Y8828014D01*
X15246591Y9401764D01*
X14433589Y10007879D01*
X13648015Y10645844D01*
X13557332Y10723064D01*
X13376298Y10879415D01*
X13198652Y11035535D01*
X13027789Y11188258D01*
X12867103Y11334417D01*
X12719991Y11470846D01*
X12589846Y11594378D01*
X12480065Y11701846D01*
X12394041Y11790084D01*
X12335170Y11855924D01*
X12315886Y11881021D01*
X12250811Y12008818D01*
X12223421Y12142517D01*
X12231017Y12275657D01*
X12270901Y12401778D01*
X12340374Y12514417D01*
X12436737Y12607115D01*
X12557294Y12673409D01*
X12658476Y12701324D01*
X12733489Y12713053D01*
X12832961Y12726938D01*
X12939265Y12740557D01*
X12975249Y12744862D01*
X13264186Y12799531D01*
X13544089Y12893076D01*
X13811145Y13022362D01*
X14061538Y13184253D01*
X14291454Y13375616D01*
X14497079Y13593314D01*
X14674597Y13834214D01*
X14820195Y14095180D01*
X14920384Y14343404D01*
X15001293Y14648708D01*
X15041843Y14954194D01*
X15043597Y15256746D01*
X15008119Y15553246D01*
X14936972Y15840576D01*
X14831722Y16115620D01*
X14693930Y16375260D01*
X14525163Y16616378D01*
X14326982Y16835858D01*
X14100953Y17030581D01*
X13848639Y17197432D01*
X13571604Y17333291D01*
X13386391Y17401147D01*
X13312336Y17424720D01*
X13244659Y17445168D01*
X13179960Y17462633D01*
X13114839Y17477258D01*
X13045898Y17489185D01*
X12969738Y17498557D01*
X12882959Y17505516D01*
X12782163Y17510204D01*
X12663950Y17512764D01*
X12524921Y17513338D01*
X12361677Y17512068D01*
X12170818Y17509098D01*
X11948947Y17504568D01*
X11692663Y17498623D01*
X11398567Y17491403D01*
X11293893Y17488796D01*
X10952997Y17480776D01*
X10651260Y17474780D01*
X10385554Y17470862D01*
X10152752Y17469080D01*
X9949725Y17469489D01*
X9773346Y17472147D01*
X9620486Y17477110D01*
X9488017Y17484433D01*
X9372810Y17494173D01*
X9271739Y17506387D01*
X9181675Y17521131D01*
X9149719Y17527401D01*
X8816616Y17616121D01*
X8505140Y17741166D01*
X8214556Y17902920D01*
X7944132Y18101761D01*
X7806645Y18224294D01*
X7688273Y18341129D01*
X7584467Y18454479D01*
X7490995Y18570774D01*
X7403625Y18696443D01*
X7318123Y18837913D01*
X7230258Y19001615D01*
X7135796Y19193976D01*
X7057527Y19362121D01*
X6653714Y20293601D01*
X6286410Y21242941D01*
X5956082Y22207791D01*
X5663197Y23185801D01*
X5408223Y24174619D01*
X5191627Y25171896D01*
X5013875Y26175281D01*
X4875437Y27182423D01*
X4776777Y28190974D01*
X4718365Y29198581D01*
X4700666Y30202895D01*
X4720578Y31117894D01*
X4783504Y32160116D01*
X4886314Y33189930D01*
X5028679Y34206631D01*
X5210272Y35209512D01*
X5430768Y36197866D01*
X5689837Y37170988D01*
X5697622Y37196053D01*
X11081301Y37196053D01*
X11082960Y37005964D01*
X11086982Y36826470D01*
X11093365Y36666381D01*
X11102111Y36534509D01*
X11108434Y36473061D01*
X11194353Y35947298D01*
X11318782Y35436842D01*
X11480269Y34943240D01*
X11677363Y34468035D01*
X11908614Y34012775D01*
X12172570Y33579003D01*
X12467782Y33168267D01*
X12792798Y32782112D01*
X13146167Y32422082D01*
X13526439Y32089724D01*
X13932162Y31786583D01*
X14361887Y31514205D01*
X14814162Y31274135D01*
X15287536Y31067918D01*
X15780560Y30897101D01*
X16291781Y30763228D01*
X16510082Y30718669D01*
X16613963Y30700406D01*
X16723881Y30683751D01*
X16847882Y30667701D01*
X16994012Y30651253D01*
X17170316Y30633404D01*
X17272082Y30623660D01*
X17368301Y30617735D01*
X17495874Y30614404D01*
X17643911Y30613565D01*
X17801519Y30615114D01*
X17957807Y30618948D01*
X18101882Y30624962D01*
X18218138Y30632654D01*
X18748238Y30698065D01*
X19266776Y30804013D01*
X19772416Y30949956D01*
X20263823Y31135351D01*
X20739664Y31359656D01*
X21198605Y31622329D01*
X21639310Y31922828D01*
X21907582Y32131804D01*
X22287126Y32469380D01*
X22638310Y32836194D01*
X22959862Y33229423D01*
X23250509Y33646241D01*
X23508980Y34083824D01*
X23734000Y34539347D01*
X23924299Y35009985D01*
X24078602Y35492913D01*
X24195639Y35985307D01*
X24274135Y36484341D01*
X24312819Y36987191D01*
X24311447Y37467894D01*
X24268151Y38005057D01*
X24184866Y38530169D01*
X24062225Y39041773D01*
X23900861Y39538413D01*
X23701407Y40018633D01*
X23464496Y40480977D01*
X23190761Y40923989D01*
X22880835Y41346212D01*
X22535350Y41746191D01*
X22383864Y41903119D01*
X21998826Y42260383D01*
X21591842Y42582784D01*
X21165147Y42869923D01*
X20720975Y43121404D01*
X20261561Y43336831D01*
X19789139Y43515805D01*
X19305945Y43657930D01*
X18814212Y43762808D01*
X18316176Y43830044D01*
X17814071Y43859240D01*
X17310132Y43849998D01*
X16806594Y43801922D01*
X16305690Y43714615D01*
X15809656Y43587680D01*
X15320727Y43420719D01*
X14886837Y43235070D01*
X14417744Y42991266D01*
X13973678Y42714189D01*
X13555915Y42405608D01*
X13165733Y42067295D01*
X12804409Y41701019D01*
X12473219Y41308550D01*
X12173440Y40891660D01*
X11906350Y40452117D01*
X11673226Y39991694D01*
X11475344Y39512159D01*
X11313981Y39015283D01*
X11190415Y38502836D01*
X11108434Y37997061D01*
X11098283Y37886153D01*
X11090494Y37741787D01*
X11085068Y37572775D01*
X11082003Y37387927D01*
X11081301Y37196053D01*
X5697622Y37196053D01*
X5987153Y38128170D01*
X6322390Y39068707D01*
X6695219Y39991891D01*
X7105313Y40897017D01*
X7552346Y41783378D01*
X8035990Y42650268D01*
X8555917Y43496980D01*
X9111802Y44322808D01*
X9703316Y45127046D01*
X10330132Y45908986D01*
X10991923Y46667923D01*
X11688363Y47403150D01*
X12419123Y48113961D01*
X12721249Y48391549D01*
X13474834Y49044921D01*
X14261421Y49672771D01*
X15079642Y50274294D01*
X15928132Y50848684D01*
X16805523Y51395136D01*
X17710450Y51912845D01*
X18641545Y52401007D01*
X19597441Y52858815D01*
X20576772Y53285465D01*
X21578172Y53680151D01*
X21896999Y53797380D01*
X22123596Y53878244D01*
X22354649Y53958771D01*
X22584777Y54037215D01*
X22808597Y54111829D01*
X23020727Y54180865D01*
X23215785Y54242577D01*
X23388389Y54295219D01*
X23533156Y54337042D01*
X23644705Y54366300D01*
X23663070Y54370608D01*
X23981852Y54424624D01*
X24288673Y54438274D01*
X24584204Y54411363D01*
D11*
%TO.C,GROUND101*%
X8858200Y16149000D02*
G75*
G03*
X8858200Y16149000I-1450000J0D01*
G01*
%TO.C,R4*%
D10*
X77052380Y40033334D02*
X76576190Y39700000D01*
X77052380Y39461905D02*
X76052380Y39461905D01*
X76052380Y39842858D01*
X76100000Y39938096D01*
X76147619Y39985715D01*
X76242857Y40033334D01*
X76385714Y40033334D01*
X76480952Y39985715D01*
X76528571Y39938096D01*
X76576190Y39842858D01*
X76576190Y39461905D01*
X76385714Y40890477D02*
X77052380Y40890477D01*
X76004761Y40652381D02*
X76719047Y40414286D01*
X76719047Y41033334D01*
%TO.C,D2*%
X76952380Y43761905D02*
X75952380Y43761905D01*
X75952380Y44000000D01*
X76000000Y44142858D01*
X76095238Y44238096D01*
X76190476Y44285715D01*
X76380952Y44333334D01*
X76523809Y44333334D01*
X76714285Y44285715D01*
X76809523Y44238096D01*
X76904761Y44142858D01*
X76952380Y44000000D01*
X76952380Y43761905D01*
X76047619Y44714286D02*
X76000000Y44761905D01*
X75952380Y44857143D01*
X75952380Y45095239D01*
X76000000Y45190477D01*
X76047619Y45238096D01*
X76142857Y45285715D01*
X76238095Y45285715D01*
X76380952Y45238096D01*
X76952380Y44666667D01*
X76952380Y45285715D01*
%TO.C,TP102*%
D13*
X21200000Y28566667D02*
X21233333Y28600000D01*
X21300000Y28633334D01*
X21466666Y28633334D01*
X21533333Y28600000D01*
X21566666Y28566667D01*
X21600000Y28500000D01*
X21600000Y28433334D01*
X21566666Y28333334D01*
X21166666Y27933334D01*
X21600000Y27933334D01*
X21833333Y28400000D02*
X22000000Y27933334D01*
X22166666Y28400000D01*
X22766666Y28633334D02*
X22433333Y28633334D01*
X22400000Y28300000D01*
X22433333Y28333334D01*
X22500000Y28366667D01*
X22666666Y28366667D01*
X22733333Y28333334D01*
X22766666Y28300000D01*
X22800000Y28233334D01*
X22800000Y28066667D01*
X22766666Y28000000D01*
X22733333Y27966667D01*
X22666666Y27933334D01*
X22500000Y27933334D01*
X22433333Y27966667D01*
X22400000Y28000000D01*
%TO.C,TP802*%
X30216666Y40283334D02*
X30450000Y39583334D01*
X30683333Y40283334D01*
X31050000Y40283334D02*
X31183333Y40283334D01*
X31250000Y40250000D01*
X31316666Y40183334D01*
X31350000Y40050000D01*
X31350000Y39816667D01*
X31316666Y39683334D01*
X31250000Y39616667D01*
X31183333Y39583334D01*
X31050000Y39583334D01*
X30983333Y39616667D01*
X30916666Y39683334D01*
X30883333Y39816667D01*
X30883333Y40050000D01*
X30916666Y40183334D01*
X30983333Y40250000D01*
X31050000Y40283334D01*
X31983333Y39583334D02*
X31650000Y39583334D01*
X31650000Y40283334D01*
%TO.C,TP801*%
X29766666Y19933334D02*
X29766666Y20633334D01*
X30033333Y20633334D01*
X30100000Y20600000D01*
X30133333Y20566667D01*
X30166666Y20500000D01*
X30166666Y20400000D01*
X30133333Y20333334D01*
X30100000Y20300000D01*
X30033333Y20266667D01*
X29766666Y20266667D01*
X30466666Y19933334D02*
X30466666Y20633334D01*
X30700000Y20633334D02*
X31100000Y20633334D01*
X30900000Y19933334D02*
X30900000Y20633334D01*
X31733333Y20000000D02*
X31700000Y19966667D01*
X31600000Y19933334D01*
X31533333Y19933334D01*
X31433333Y19966667D01*
X31366666Y20033334D01*
X31333333Y20100000D01*
X31300000Y20233334D01*
X31300000Y20333334D01*
X31333333Y20466667D01*
X31366666Y20533334D01*
X31433333Y20600000D01*
X31533333Y20633334D01*
X31600000Y20633334D01*
X31700000Y20600000D01*
X31733333Y20566667D01*
X32033333Y19933334D02*
X32033333Y20633334D01*
X32033333Y20300000D02*
X32433333Y20300000D01*
X32433333Y19933334D02*
X32433333Y20633334D01*
%TO.C,TP5*%
X55883333Y34083334D02*
X55883333Y34783334D01*
X56116666Y34283334D01*
X56350000Y34783334D01*
X56350000Y34083334D01*
X57083333Y34150000D02*
X57050000Y34116667D01*
X56950000Y34083334D01*
X56883333Y34083334D01*
X56783333Y34116667D01*
X56716666Y34183334D01*
X56683333Y34250000D01*
X56650000Y34383334D01*
X56650000Y34483334D01*
X56683333Y34616667D01*
X56716666Y34683334D01*
X56783333Y34750000D01*
X56883333Y34783334D01*
X56950000Y34783334D01*
X57050000Y34750000D01*
X57083333Y34716667D01*
X57716666Y34083334D02*
X57383333Y34083334D01*
X57383333Y34783334D01*
X57950000Y34083334D02*
X57950000Y34783334D01*
X58350000Y34083334D02*
X58050000Y34483334D01*
X58350000Y34783334D02*
X57950000Y34383334D01*
%TO.C,TP4*%
X49383333Y24083334D02*
X49383333Y24783334D01*
X49550000Y24783334D01*
X49650000Y24750000D01*
X49716666Y24683334D01*
X49750000Y24616667D01*
X49783333Y24483334D01*
X49783333Y24383334D01*
X49750000Y24250000D01*
X49716666Y24183334D01*
X49650000Y24116667D01*
X49550000Y24083334D01*
X49383333Y24083334D01*
X50083333Y24083334D02*
X50083333Y24783334D01*
X50416666Y24083334D02*
X50416666Y24783334D01*
X50816666Y24083334D01*
X50816666Y24783334D01*
%TO.C,TP3*%
X55916666Y20716667D02*
X55216666Y20716667D01*
X55216666Y20883334D01*
X55250000Y20983334D01*
X55316666Y21050000D01*
X55383333Y21083334D01*
X55516666Y21116667D01*
X55616666Y21116667D01*
X55750000Y21083334D01*
X55816666Y21050000D01*
X55883333Y20983334D01*
X55916666Y20883334D01*
X55916666Y20716667D01*
X55216666Y21550000D02*
X55216666Y21683334D01*
X55250000Y21750000D01*
X55316666Y21816667D01*
X55450000Y21850000D01*
X55683333Y21850000D01*
X55816666Y21816667D01*
X55883333Y21750000D01*
X55916666Y21683334D01*
X55916666Y21550000D01*
X55883333Y21483334D01*
X55816666Y21416667D01*
X55683333Y21383334D01*
X55450000Y21383334D01*
X55316666Y21416667D01*
X55250000Y21483334D01*
X55216666Y21550000D01*
X55216666Y22150000D02*
X55783333Y22150000D01*
X55850000Y22183334D01*
X55883333Y22216667D01*
X55916666Y22283334D01*
X55916666Y22416667D01*
X55883333Y22483334D01*
X55850000Y22516667D01*
X55783333Y22550000D01*
X55216666Y22550000D01*
X55216666Y22783334D02*
X55216666Y23183334D01*
X55916666Y22983334D02*
X55216666Y22983334D01*
%TO.C,TP2*%
X55733333Y33083334D02*
X55400000Y33083334D01*
X55400000Y33783334D01*
X56366666Y33083334D02*
X56133333Y33416667D01*
X55966666Y33083334D02*
X55966666Y33783334D01*
X56233333Y33783334D01*
X56300000Y33750000D01*
X56333333Y33716667D01*
X56366666Y33650000D01*
X56366666Y33550000D01*
X56333333Y33483334D01*
X56300000Y33450000D01*
X56233333Y33416667D01*
X55966666Y33416667D01*
X57066666Y33150000D02*
X57033333Y33116667D01*
X56933333Y33083334D01*
X56866666Y33083334D01*
X56766666Y33116667D01*
X56700000Y33183334D01*
X56666666Y33250000D01*
X56633333Y33383334D01*
X56633333Y33483334D01*
X56666666Y33616667D01*
X56700000Y33683334D01*
X56766666Y33750000D01*
X56866666Y33783334D01*
X56933333Y33783334D01*
X57033333Y33750000D01*
X57066666Y33716667D01*
X57700000Y33083334D02*
X57366666Y33083334D01*
X57366666Y33783334D01*
X57933333Y33083334D02*
X57933333Y33783334D01*
X58333333Y33083334D02*
X58033333Y33483334D01*
X58333333Y33783334D02*
X57933333Y33383334D01*
%TO.C,TP1*%
X56883333Y20716667D02*
X56916666Y20816667D01*
X56916666Y20983334D01*
X56883333Y21050000D01*
X56850000Y21083334D01*
X56783333Y21116667D01*
X56716666Y21116667D01*
X56650000Y21083334D01*
X56616666Y21050000D01*
X56583333Y20983334D01*
X56550000Y20850000D01*
X56516666Y20783334D01*
X56483333Y20750000D01*
X56416666Y20716667D01*
X56350000Y20716667D01*
X56283333Y20750000D01*
X56250000Y20783334D01*
X56216666Y20850000D01*
X56216666Y21016667D01*
X56250000Y21116667D01*
X56850000Y21816667D02*
X56883333Y21783334D01*
X56916666Y21683334D01*
X56916666Y21616667D01*
X56883333Y21516667D01*
X56816666Y21450000D01*
X56750000Y21416667D01*
X56616666Y21383334D01*
X56516666Y21383334D01*
X56383333Y21416667D01*
X56316666Y21450000D01*
X56250000Y21516667D01*
X56216666Y21616667D01*
X56216666Y21683334D01*
X56250000Y21783334D01*
X56283333Y21816667D01*
X56916666Y22450000D02*
X56916666Y22116667D01*
X56216666Y22116667D01*
X56916666Y22683334D02*
X56216666Y22683334D01*
X56916666Y23083334D02*
X56516666Y22783334D01*
X56216666Y23083334D02*
X56616666Y22683334D01*
%TO.C,TP105*%
X57383333Y21083334D02*
X57383333Y21550000D01*
X57383333Y21783334D02*
X57350000Y21750000D01*
X57383333Y21716667D01*
X57416666Y21750000D01*
X57383333Y21783334D01*
X57383333Y21716667D01*
X57683333Y21716667D02*
X57716666Y21750000D01*
X57783333Y21783334D01*
X57950000Y21783334D01*
X58016666Y21750000D01*
X58050000Y21716667D01*
X58083333Y21650000D01*
X58083333Y21583334D01*
X58050000Y21483334D01*
X57650000Y21083334D01*
X58083333Y21083334D01*
X58683333Y21116667D02*
X58616666Y21083334D01*
X58483333Y21083334D01*
X58416666Y21116667D01*
X58383333Y21150000D01*
X58350000Y21216667D01*
X58350000Y21416667D01*
X58383333Y21483334D01*
X58416666Y21516667D01*
X58483333Y21550000D01*
X58616666Y21550000D01*
X58683333Y21516667D01*
X59350000Y21083334D02*
X58950000Y21083334D01*
X59150000Y21083334D02*
X59150000Y21783334D01*
X59083333Y21683334D01*
X59016666Y21616667D01*
X58950000Y21583334D01*
X59483333Y21016667D02*
X60016666Y21016667D01*
X60150000Y21116667D02*
X60250000Y21083334D01*
X60416666Y21083334D01*
X60483333Y21116667D01*
X60516666Y21150000D01*
X60550000Y21216667D01*
X60550000Y21283334D01*
X60516666Y21350000D01*
X60483333Y21383334D01*
X60416666Y21416667D01*
X60283333Y21450000D01*
X60216666Y21483334D01*
X60183333Y21516667D01*
X60150000Y21583334D01*
X60150000Y21650000D01*
X60183333Y21716667D01*
X60216666Y21750000D01*
X60283333Y21783334D01*
X60450000Y21783334D01*
X60550000Y21750000D01*
X60850000Y21083334D02*
X60850000Y21783334D01*
X61016666Y21783334D01*
X61116666Y21750000D01*
X61183333Y21683334D01*
X61216666Y21616667D01*
X61250000Y21483334D01*
X61250000Y21383334D01*
X61216666Y21250000D01*
X61183333Y21183334D01*
X61116666Y21116667D01*
X61016666Y21083334D01*
X60850000Y21083334D01*
X61516666Y21283334D02*
X61850000Y21283334D01*
X61450000Y21083334D02*
X61683333Y21783334D01*
X61916666Y21083334D01*
%TO.C,TP104*%
X55416666Y15200000D02*
X54950000Y15200000D01*
X54716666Y15200000D02*
X54750000Y15166667D01*
X54783333Y15200000D01*
X54750000Y15233334D01*
X54716666Y15200000D01*
X54783333Y15200000D01*
X54783333Y15500000D02*
X54750000Y15533334D01*
X54716666Y15600000D01*
X54716666Y15766667D01*
X54750000Y15833334D01*
X54783333Y15866667D01*
X54850000Y15900000D01*
X54916666Y15900000D01*
X55016666Y15866667D01*
X55416666Y15466667D01*
X55416666Y15900000D01*
X55383333Y16500000D02*
X55416666Y16433334D01*
X55416666Y16300000D01*
X55383333Y16233334D01*
X55350000Y16200000D01*
X55283333Y16166667D01*
X55083333Y16166667D01*
X55016666Y16200000D01*
X54983333Y16233334D01*
X54950000Y16300000D01*
X54950000Y16433334D01*
X54983333Y16500000D01*
X55416666Y17166667D02*
X55416666Y16766667D01*
X55416666Y16966667D02*
X54716666Y16966667D01*
X54816666Y16900000D01*
X54883333Y16833334D01*
X54916666Y16766667D01*
X55483333Y17300000D02*
X55483333Y17833334D01*
X55383333Y17966667D02*
X55416666Y18066667D01*
X55416666Y18233334D01*
X55383333Y18300000D01*
X55350000Y18333334D01*
X55283333Y18366667D01*
X55216666Y18366667D01*
X55150000Y18333334D01*
X55116666Y18300000D01*
X55083333Y18233334D01*
X55050000Y18100000D01*
X55016666Y18033334D01*
X54983333Y18000000D01*
X54916666Y17966667D01*
X54850000Y17966667D01*
X54783333Y18000000D01*
X54750000Y18033334D01*
X54716666Y18100000D01*
X54716666Y18266667D01*
X54750000Y18366667D01*
X55350000Y19066667D02*
X55383333Y19033334D01*
X55416666Y18933334D01*
X55416666Y18866667D01*
X55383333Y18766667D01*
X55316666Y18700000D01*
X55250000Y18666667D01*
X55116666Y18633334D01*
X55016666Y18633334D01*
X54883333Y18666667D01*
X54816666Y18700000D01*
X54750000Y18766667D01*
X54716666Y18866667D01*
X54716666Y18933334D01*
X54750000Y19033334D01*
X54783333Y19066667D01*
X55416666Y19700000D02*
X55416666Y19366667D01*
X54716666Y19366667D01*
%TO.C,TP103*%
X39266666Y33283334D02*
X39700000Y33283334D01*
X39466666Y33016667D01*
X39566666Y33016667D01*
X39633333Y32983334D01*
X39666666Y32950000D01*
X39700000Y32883334D01*
X39700000Y32716667D01*
X39666666Y32650000D01*
X39633333Y32616667D01*
X39566666Y32583334D01*
X39366666Y32583334D01*
X39300000Y32616667D01*
X39266666Y32650000D01*
X39933333Y33050000D02*
X40100000Y32583334D01*
X40266666Y33050000D01*
X40466666Y33283334D02*
X40900000Y33283334D01*
X40666666Y33016667D01*
X40766666Y33016667D01*
X40833333Y32983334D01*
X40866666Y32950000D01*
X40900000Y32883334D01*
X40900000Y32716667D01*
X40866666Y32650000D01*
X40833333Y32616667D01*
X40766666Y32583334D01*
X40566666Y32583334D01*
X40500000Y32616667D01*
X40466666Y32650000D01*
%TO.C,TP101*%
X38700150Y23583184D02*
X38300150Y23583184D01*
X38500150Y23583184D02*
X38500150Y24283184D01*
X38433483Y24183184D01*
X38366816Y24116517D01*
X38300150Y24083184D01*
X38933483Y24049850D02*
X39100150Y23583184D01*
X39266816Y24049850D01*
X39500150Y24216517D02*
X39533483Y24249850D01*
X39600150Y24283184D01*
X39766816Y24283184D01*
X39833483Y24249850D01*
X39866816Y24216517D01*
X39900150Y24149850D01*
X39900150Y24083184D01*
X39866816Y23983184D01*
X39466816Y23583184D01*
X39900150Y23583184D01*
%TO.C,Sp506*%
X2950040Y24966537D02*
X3416706Y24966537D01*
X2683373Y24799870D02*
X3183373Y24633204D01*
X3183373Y25066537D01*
X2716706Y25633204D02*
X2716706Y25499870D01*
X2750040Y25433204D01*
X2783373Y25399870D01*
X2883373Y25333204D01*
X3016706Y25299870D01*
X3283373Y25299870D01*
X3350040Y25333204D01*
X3383373Y25366537D01*
X3416706Y25433204D01*
X3416706Y25566537D01*
X3383373Y25633204D01*
X3350040Y25666537D01*
X3283373Y25699870D01*
X3116706Y25699870D01*
X3050040Y25666537D01*
X3016706Y25633204D01*
X2983373Y25566537D01*
X2983373Y25433204D01*
X3016706Y25366537D01*
X3050040Y25333204D01*
X3116706Y25299870D01*
X3416706Y25999870D02*
X2716706Y25999870D01*
X2983373Y25999870D02*
X2950040Y26066537D01*
X2950040Y26199870D01*
X2983373Y26266537D01*
X3016706Y26299870D01*
X3083373Y26333204D01*
X3283373Y26333204D01*
X3350040Y26299870D01*
X3383373Y26266537D01*
X3416706Y26199870D01*
X3416706Y26066537D01*
X3383373Y25999870D01*
X3483373Y26466537D02*
X3483373Y26999870D01*
X2950040Y27466537D02*
X3516706Y27466537D01*
X3583373Y27433204D01*
X3616706Y27399870D01*
X3650040Y27333204D01*
X3650040Y27233204D01*
X3616706Y27166537D01*
X3383373Y27466537D02*
X3416706Y27399870D01*
X3416706Y27266537D01*
X3383373Y27199870D01*
X3350040Y27166537D01*
X3283373Y27133204D01*
X3083373Y27133204D01*
X3016706Y27166537D01*
X2983373Y27199870D01*
X2950040Y27266537D01*
X2950040Y27399870D01*
X2983373Y27466537D01*
X2716706Y27933204D02*
X2716706Y27999870D01*
X2750040Y28066537D01*
X2783373Y28099870D01*
X2850040Y28133204D01*
X2983373Y28166537D01*
X3150040Y28166537D01*
X3283373Y28133204D01*
X3350040Y28099870D01*
X3383373Y28066537D01*
X3416706Y27999870D01*
X3416706Y27933204D01*
X3383373Y27866537D01*
X3350040Y27833204D01*
X3283373Y27799870D01*
X3150040Y27766537D01*
X2983373Y27766537D01*
X2850040Y27799870D01*
X2783373Y27833204D01*
X2750040Y27866537D01*
X2716706Y27933204D01*
%TO.C,Sp505*%
X36713333Y53594600D02*
X36713333Y53127934D01*
X36546666Y53861267D02*
X36380000Y53361267D01*
X36813333Y53361267D01*
X37180000Y53527934D02*
X37113333Y53561267D01*
X37080000Y53594600D01*
X37046666Y53661267D01*
X37046666Y53694600D01*
X37080000Y53761267D01*
X37113333Y53794600D01*
X37180000Y53827934D01*
X37313333Y53827934D01*
X37380000Y53794600D01*
X37413333Y53761267D01*
X37446666Y53694600D01*
X37446666Y53661267D01*
X37413333Y53594600D01*
X37380000Y53561267D01*
X37313333Y53527934D01*
X37180000Y53527934D01*
X37113333Y53494600D01*
X37080000Y53461267D01*
X37046666Y53394600D01*
X37046666Y53261267D01*
X37080000Y53194600D01*
X37113333Y53161267D01*
X37180000Y53127934D01*
X37313333Y53127934D01*
X37380000Y53161267D01*
X37413333Y53194600D01*
X37446666Y53261267D01*
X37446666Y53394600D01*
X37413333Y53461267D01*
X37380000Y53494600D01*
X37313333Y53527934D01*
X37746666Y53127934D02*
X37746666Y53827934D01*
X37746666Y53561267D02*
X37813333Y53594600D01*
X37946666Y53594600D01*
X38013333Y53561267D01*
X38046666Y53527934D01*
X38080000Y53461267D01*
X38080000Y53261267D01*
X38046666Y53194600D01*
X38013333Y53161267D01*
X37946666Y53127934D01*
X37813333Y53127934D01*
X37746666Y53161267D01*
%TO.C,Sp504*%
X4749970Y18716237D02*
X4783303Y18749570D01*
X4849970Y18782904D01*
X5016636Y18782904D01*
X5083303Y18749570D01*
X5116636Y18716237D01*
X5149970Y18649570D01*
X5149970Y18582904D01*
X5116636Y18482904D01*
X4716636Y18082904D01*
X5149970Y18082904D01*
X5416636Y18716237D02*
X5449970Y18749570D01*
X5516636Y18782904D01*
X5683303Y18782904D01*
X5749970Y18749570D01*
X5783303Y18716237D01*
X5816636Y18649570D01*
X5816636Y18582904D01*
X5783303Y18482904D01*
X5383303Y18082904D01*
X5816636Y18082904D01*
X6416636Y18082904D02*
X6416636Y18449570D01*
X6383303Y18516237D01*
X6316636Y18549570D01*
X6183303Y18549570D01*
X6116636Y18516237D01*
X6416636Y18116237D02*
X6349970Y18082904D01*
X6183303Y18082904D01*
X6116636Y18116237D01*
X6083303Y18182904D01*
X6083303Y18249570D01*
X6116636Y18316237D01*
X6183303Y18349570D01*
X6349970Y18349570D01*
X6416636Y18382904D01*
%TO.C,Sp503*%
X5616626Y43283294D02*
X5283293Y43283294D01*
X5249960Y42949960D01*
X5283293Y42983294D01*
X5349960Y43016627D01*
X5516626Y43016627D01*
X5583293Y42983294D01*
X5616626Y42949960D01*
X5649960Y42883294D01*
X5649960Y42716627D01*
X5616626Y42649960D01*
X5583293Y42616627D01*
X5516626Y42583294D01*
X5349960Y42583294D01*
X5283293Y42616627D01*
X5249960Y42649960D01*
X6083293Y43283294D02*
X6149960Y43283294D01*
X6216626Y43249960D01*
X6249960Y43216627D01*
X6283293Y43149960D01*
X6316626Y43016627D01*
X6316626Y42849960D01*
X6283293Y42716627D01*
X6249960Y42649960D01*
X6216626Y42616627D01*
X6149960Y42583294D01*
X6083293Y42583294D01*
X6016626Y42616627D01*
X5983293Y42649960D01*
X5949960Y42716627D01*
X5916626Y42849960D01*
X5916626Y43016627D01*
X5949960Y43149960D01*
X5983293Y43216627D01*
X6016626Y43249960D01*
X6083293Y43283294D01*
X6616626Y42583294D02*
X6616626Y43283294D01*
X6616626Y43016627D02*
X6683293Y43049960D01*
X6816626Y43049960D01*
X6883293Y43016627D01*
X6916626Y42983294D01*
X6949960Y42916627D01*
X6949960Y42716627D01*
X6916626Y42649960D01*
X6883293Y42616627D01*
X6816626Y42583294D01*
X6683293Y42583294D01*
X6616626Y42616627D01*
%TO.C,Sp501*%
X39154666Y53018634D02*
X38821333Y53018634D01*
X38788000Y52685300D01*
X38821333Y52718634D01*
X38888000Y52751967D01*
X39054666Y52751967D01*
X39121333Y52718634D01*
X39154666Y52685300D01*
X39188000Y52618634D01*
X39188000Y52451967D01*
X39154666Y52385300D01*
X39121333Y52351967D01*
X39054666Y52318634D01*
X38888000Y52318634D01*
X38821333Y52351967D01*
X38788000Y52385300D01*
X39854666Y52318634D02*
X39454666Y52318634D01*
X39654666Y52318634D02*
X39654666Y53018634D01*
X39588000Y52918634D01*
X39521333Y52851967D01*
X39454666Y52818634D01*
X40454666Y52318634D02*
X40454666Y52685300D01*
X40421333Y52751967D01*
X40354666Y52785300D01*
X40221333Y52785300D01*
X40154666Y52751967D01*
X40454666Y52351967D02*
X40388000Y52318634D01*
X40221333Y52318634D01*
X40154666Y52351967D01*
X40121333Y52418634D01*
X40121333Y52485300D01*
X40154666Y52551967D01*
X40221333Y52585300D01*
X40388000Y52585300D01*
X40454666Y52618634D01*
%TO.C,Sp1*%
X3083313Y36258800D02*
X3083313Y35792134D01*
X2916646Y36525467D02*
X2749980Y36025467D01*
X3183313Y36025467D01*
X3749980Y36258800D02*
X3749980Y35792134D01*
X3583313Y36525467D02*
X3416646Y36025467D01*
X3849980Y36025467D01*
X4116646Y35792134D02*
X4116646Y36492134D01*
X4116646Y36225467D02*
X4183313Y36258800D01*
X4316646Y36258800D01*
X4383313Y36225467D01*
X4416646Y36192134D01*
X4449980Y36125467D01*
X4449980Y35925467D01*
X4416646Y35858800D01*
X4383313Y35825467D01*
X4316646Y35792134D01*
X4183313Y35792134D01*
X4116646Y35825467D01*
%TO.C,R3*%
D10*
X77452380Y21333334D02*
X76976190Y21000000D01*
X77452380Y20761905D02*
X76452380Y20761905D01*
X76452380Y21142858D01*
X76500000Y21238096D01*
X76547619Y21285715D01*
X76642857Y21333334D01*
X76785714Y21333334D01*
X76880952Y21285715D01*
X76928571Y21238096D01*
X76976190Y21142858D01*
X76976190Y20761905D01*
X76452380Y21666667D02*
X76452380Y22285715D01*
X76833333Y21952381D01*
X76833333Y22095239D01*
X76880952Y22190477D01*
X76928571Y22238096D01*
X77023809Y22285715D01*
X77261904Y22285715D01*
X77357142Y22238096D01*
X77404761Y22190477D01*
X77452380Y22095239D01*
X77452380Y21809524D01*
X77404761Y21714286D01*
X77357142Y21666667D01*
%TO.C,D1*%
X76622380Y15161905D02*
X75622380Y15161905D01*
X75622380Y15400000D01*
X75670000Y15542858D01*
X75765238Y15638096D01*
X75860476Y15685715D01*
X76050952Y15733334D01*
X76193809Y15733334D01*
X76384285Y15685715D01*
X76479523Y15638096D01*
X76574761Y15542858D01*
X76622380Y15400000D01*
X76622380Y15161905D01*
X76622380Y16685715D02*
X76622380Y16114286D01*
X76622380Y16400000D02*
X75622380Y16400000D01*
X75765238Y16304762D01*
X75860476Y16209524D01*
X75908095Y16114286D01*
%TO.C,JP302*%
X37885804Y4944077D02*
X38034295Y4969099D01*
X38098696Y4949410D01*
X38185452Y4887675D01*
X38252520Y4761540D01*
X38255186Y4655094D01*
X38235497Y4590693D01*
X38173762Y4503936D01*
X37837401Y4325090D01*
X37367930Y5208037D01*
X37662246Y5364528D01*
X37768692Y5367194D01*
X37833093Y5347505D01*
X37919849Y5285771D01*
X37964561Y5201680D01*
X37967227Y5095234D01*
X37947538Y5030833D01*
X37885804Y4944077D01*
X37591488Y4787586D01*
X39098755Y4995763D02*
X38852841Y5458260D01*
X38766085Y5519994D01*
X38659639Y5517328D01*
X38491458Y5427905D01*
X38429724Y5341148D01*
X39076399Y5037809D02*
X39014665Y4951052D01*
X38804439Y4839273D01*
X38697993Y4836606D01*
X38611236Y4898341D01*
X38566525Y4982431D01*
X38563858Y5088877D01*
X38625593Y5175634D01*
X38835818Y5287413D01*
X38897553Y5374170D01*
X39875257Y5462569D02*
X39813522Y5375812D01*
X39645342Y5286389D01*
X39538896Y5283722D01*
X39474495Y5303412D01*
X39387738Y5365146D01*
X39253603Y5617417D01*
X39250937Y5723863D01*
X39270626Y5788264D01*
X39332361Y5875020D01*
X39500541Y5964444D01*
X39606987Y5967110D01*
X40276019Y5621726D02*
X39806547Y6504673D01*
X40181262Y6002798D02*
X40612379Y5800572D01*
X40299398Y6389204D02*
X40141884Y5873996D01*
X40551669Y6523338D02*
X40888030Y6702185D01*
X40990786Y6001774D02*
X40588381Y6758586D01*
X40585715Y6865032D01*
X40647449Y6951789D01*
X40731540Y6996500D01*
X41809332Y6490935D02*
X41747598Y6404178D01*
X41579417Y6314755D01*
X41472971Y6312089D01*
X41386215Y6373823D01*
X41207368Y6710184D01*
X41204702Y6816630D01*
X41266436Y6903387D01*
X41434617Y6992810D01*
X41541063Y6995476D01*
X41627820Y6933742D01*
X41672531Y6849652D01*
X41296791Y6542003D01*
X42566145Y6893339D02*
X42504410Y6806582D01*
X42336230Y6717159D01*
X42229784Y6714493D01*
X42143027Y6776227D01*
X41964181Y7112588D01*
X41961514Y7219034D01*
X42023249Y7305791D01*
X42191429Y7395214D01*
X42297875Y7397881D01*
X42384632Y7336146D01*
X42429343Y7252056D01*
X42053604Y6944408D01*
X43387358Y7276054D02*
X42917886Y8159001D01*
X43365002Y7318099D02*
X43303267Y7231342D01*
X43135087Y7141919D01*
X43028641Y7139253D01*
X42964240Y7158942D01*
X42877483Y7220676D01*
X42743349Y7472947D01*
X42740682Y7579393D01*
X42760371Y7643794D01*
X42822106Y7730551D01*
X42990286Y7819974D01*
X43096732Y7822640D01*
%TD*%
%LPC*%
D14*
%TO.C,D101*%
X20000000Y37500000D02*
G75*
G03*
X20000000Y37500000I-2500000J0D01*
G01*
%TD*%
D13*
%TO.C,JP1*%
G36*
X75850000Y37450000D02*
G01*
X75850000Y37950000D01*
X75850602Y37950000D01*
X75850602Y37974534D01*
X75855412Y38023365D01*
X75864984Y38071490D01*
X75879228Y38118445D01*
X75898005Y38163778D01*
X75921136Y38207051D01*
X75948396Y38247850D01*
X75979524Y38285779D01*
X76014221Y38320476D01*
X76052150Y38351604D01*
X76092949Y38378864D01*
X76136222Y38401995D01*
X76181555Y38420772D01*
X76228510Y38435016D01*
X76276635Y38444588D01*
X76325466Y38449398D01*
X76350000Y38449398D01*
X76350000Y38450000D01*
X76850000Y38450000D01*
X76850000Y38449398D01*
X76874534Y38449398D01*
X76923365Y38444588D01*
X76971490Y38435016D01*
X77018445Y38420772D01*
X77063778Y38401995D01*
X77107051Y38378864D01*
X77147850Y38351604D01*
X77185779Y38320476D01*
X77220476Y38285779D01*
X77251604Y38247850D01*
X77278864Y38207051D01*
X77301995Y38163778D01*
X77320772Y38118445D01*
X77335016Y38071490D01*
X77344588Y38023365D01*
X77349398Y37974534D01*
X77349398Y37950000D01*
X77350000Y37950000D01*
X77350000Y37450000D01*
X75850000Y37450000D01*
G37*
G36*
X77349398Y36650000D02*
G01*
X77349398Y36625466D01*
X77344588Y36576635D01*
X77335016Y36528510D01*
X77320772Y36481555D01*
X77301995Y36436222D01*
X77278864Y36392949D01*
X77251604Y36352150D01*
X77220476Y36314221D01*
X77185779Y36279524D01*
X77147850Y36248396D01*
X77107051Y36221136D01*
X77063778Y36198005D01*
X77018445Y36179228D01*
X76971490Y36164984D01*
X76923365Y36155412D01*
X76874534Y36150602D01*
X76850000Y36150602D01*
X76850000Y36150000D01*
X76350000Y36150000D01*
X76350000Y36150602D01*
X76325466Y36150602D01*
X76276635Y36155412D01*
X76228510Y36164984D01*
X76181555Y36179228D01*
X76136222Y36198005D01*
X76092949Y36221136D01*
X76052150Y36248396D01*
X76014221Y36279524D01*
X75979524Y36314221D01*
X75948396Y36352150D01*
X75921136Y36392949D01*
X75898005Y36436222D01*
X75879228Y36481555D01*
X75864984Y36528510D01*
X75855412Y36576635D01*
X75850602Y36625466D01*
X75850602Y36650000D01*
X75850000Y36650000D01*
X75850000Y37150000D01*
X77350000Y37150000D01*
X77350000Y36650000D01*
X77349398Y36650000D01*
G37*
%TD*%
%TO.C,R4*%
G36*
G01*
X77725000Y41075000D02*
X78275000Y41075000D01*
G75*
G02*
X78475000Y40875000I0J-200000D01*
G01*
X78475000Y40475000D01*
G75*
G02*
X78275000Y40275000I-200000J0D01*
G01*
X77725000Y40275000D01*
G75*
G02*
X77525000Y40475000I0J200000D01*
G01*
X77525000Y40875000D01*
G75*
G02*
X77725000Y41075000I200000J0D01*
G01*
G37*
G36*
G01*
X77725000Y42725000D02*
X78275000Y42725000D01*
G75*
G02*
X78475000Y42525000I0J-200000D01*
G01*
X78475000Y42125000D01*
G75*
G02*
X78275000Y41925000I-200000J0D01*
G01*
X77725000Y41925000D01*
G75*
G02*
X77525000Y42125000I0J200000D01*
G01*
X77525000Y42525000D01*
G75*
G02*
X77725000Y42725000I200000J0D01*
G01*
G37*
%TD*%
%TO.C,D2*%
G36*
G01*
X77743750Y44150000D02*
X78256250Y44150000D01*
G75*
G02*
X78475000Y43931250I0J-218750D01*
G01*
X78475000Y43493750D01*
G75*
G02*
X78256250Y43275000I-218750J0D01*
G01*
X77743750Y43275000D01*
G75*
G02*
X77525000Y43493750I0J218750D01*
G01*
X77525000Y43931250D01*
G75*
G02*
X77743750Y44150000I218750J0D01*
G01*
G37*
G36*
G01*
X77743750Y45725000D02*
X78256250Y45725000D01*
G75*
G02*
X78475000Y45506250I0J-218750D01*
G01*
X78475000Y45068750D01*
G75*
G02*
X78256250Y44850000I-218750J0D01*
G01*
X77743750Y44850000D01*
G75*
G02*
X77525000Y45068750I0J218750D01*
G01*
X77525000Y45506250D01*
G75*
G02*
X77743750Y45725000I218750J0D01*
G01*
G37*
%TD*%
D15*
%TO.C,TP102*%
X22000000Y30000000D03*
%TD*%
%TO.C,TP802*%
X30000000Y38000000D03*
%TD*%
%TO.C,TP801*%
X30000000Y22000000D03*
%TD*%
%TO.C,TP5*%
X57000000Y29670000D03*
%TD*%
%TO.C,TP4*%
X51920000Y24590000D03*
%TD*%
%TO.C,TP3*%
X54460000Y24590000D03*
%TD*%
%TO.C,TP2*%
X57000000Y27130000D03*
%TD*%
%TO.C,TP1*%
X57000000Y24590000D03*
%TD*%
%TO.C,TP105*%
X59600000Y19400000D03*
%TD*%
%TO.C,TP104*%
X57100000Y18400000D03*
%TD*%
%TO.C,TP103*%
X38000000Y30000000D03*
%TD*%
%TO.C,TP101*%
X35657000Y24343000D03*
%TD*%
D16*
%TO.C,Sp506*%
X4406800Y23127000D03*
%TD*%
%TO.C,Sp505*%
X37230000Y55494600D03*
%TD*%
%TO.C,Sp504*%
X5182300Y20708000D03*
%TD*%
%TO.C,Sp503*%
X5684100Y40535100D03*
%TD*%
%TO.C,Sp501*%
X39638000Y54685300D03*
%TD*%
%TO.C,Sp1*%
X4787200Y38158800D03*
%TD*%
%TO.C,R3*%
G36*
G01*
X77875000Y19425000D02*
X77325000Y19425000D01*
G75*
G02*
X77125000Y19625000I0J200000D01*
G01*
X77125000Y20025000D01*
G75*
G02*
X77325000Y20225000I200000J0D01*
G01*
X77875000Y20225000D01*
G75*
G02*
X78075000Y20025000I0J-200000D01*
G01*
X78075000Y19625000D01*
G75*
G02*
X77875000Y19425000I-200000J0D01*
G01*
G37*
G36*
G01*
X77875000Y17775000D02*
X77325000Y17775000D01*
G75*
G02*
X77125000Y17975000I0J200000D01*
G01*
X77125000Y18375000D01*
G75*
G02*
X77325000Y18575000I200000J0D01*
G01*
X77875000Y18575000D01*
G75*
G02*
X78075000Y18375000I0J-200000D01*
G01*
X78075000Y17975000D01*
G75*
G02*
X77875000Y17775000I-200000J0D01*
G01*
G37*
%TD*%
%TO.C,D1*%
G36*
G01*
X77856250Y16250000D02*
X77343750Y16250000D01*
G75*
G02*
X77125000Y16468750I0J218750D01*
G01*
X77125000Y16906250D01*
G75*
G02*
X77343750Y17125000I218750J0D01*
G01*
X77856250Y17125000D01*
G75*
G02*
X78075000Y16906250I0J-218750D01*
G01*
X78075000Y16468750D01*
G75*
G02*
X77856250Y16250000I-218750J0D01*
G01*
G37*
G36*
G01*
X77856250Y14675000D02*
X77343750Y14675000D01*
G75*
G02*
X77125000Y14893750I0J218750D01*
G01*
X77125000Y15331250D01*
G75*
G02*
X77343750Y15550000I218750J0D01*
G01*
X77856250Y15550000D01*
G75*
G02*
X78075000Y15331250I0J-218750D01*
G01*
X78075000Y14893750D01*
G75*
G02*
X77856250Y14675000I-218750J0D01*
G01*
G37*
%TD*%
D17*
%TO.C,P1*%
X70840000Y16900000D03*
D18*
X68300000Y16900000D03*
%TD*%
D13*
%TO.C,JP302*%
G36*
X42277905Y4533164D02*
G01*
X42256243Y4521646D01*
X42210869Y4502968D01*
X42163884Y4488826D01*
X42115738Y4479359D01*
X42066896Y4474656D01*
X42017829Y4474764D01*
X41969008Y4479679D01*
X41920905Y4489357D01*
X41873980Y4503703D01*
X41828689Y4522579D01*
X41785466Y4545804D01*
X41744727Y4573153D01*
X41706865Y4604364D01*
X41672244Y4639136D01*
X41641199Y4677134D01*
X41614028Y4717991D01*
X41602510Y4739653D01*
X41601978Y4739370D01*
X41367242Y5180844D01*
X41367774Y5181127D01*
X41356256Y5202789D01*
X41337578Y5248162D01*
X41323436Y5295148D01*
X41313969Y5343294D01*
X41309266Y5392136D01*
X41309374Y5441203D01*
X41314289Y5490024D01*
X41323967Y5538127D01*
X41338313Y5585052D01*
X41357189Y5630343D01*
X41380414Y5673566D01*
X41407763Y5714305D01*
X41438974Y5752167D01*
X41473746Y5786788D01*
X41511744Y5817832D01*
X41552601Y5845004D01*
X41574263Y5856522D01*
X41573980Y5857054D01*
X42015454Y6091789D01*
X42719661Y4767368D01*
X42278188Y4532632D01*
X42277905Y4533164D01*
G37*
G36*
X42280339Y6232632D02*
G01*
X42721812Y6467368D01*
X42722095Y6466836D01*
X42743757Y6478354D01*
X42789131Y6497032D01*
X42836116Y6511174D01*
X42884262Y6520641D01*
X42933104Y6525344D01*
X42982171Y6525236D01*
X43030992Y6520321D01*
X43079095Y6510643D01*
X43126020Y6496297D01*
X43171311Y6477421D01*
X43214534Y6454196D01*
X43255273Y6426847D01*
X43293135Y6395636D01*
X43327756Y6360864D01*
X43358801Y6322866D01*
X43385972Y6282009D01*
X43397490Y6260347D01*
X43398022Y6260630D01*
X43632758Y5819156D01*
X43632226Y5818873D01*
X43643744Y5797211D01*
X43662422Y5751838D01*
X43676564Y5704852D01*
X43686031Y5656706D01*
X43690734Y5607864D01*
X43690626Y5558797D01*
X43685711Y5509976D01*
X43676033Y5461873D01*
X43661687Y5414948D01*
X43642811Y5369657D01*
X43619586Y5326434D01*
X43592237Y5285695D01*
X43561026Y5247833D01*
X43526254Y5213212D01*
X43488256Y5182168D01*
X43447399Y5154996D01*
X43425737Y5143478D01*
X43426020Y5142946D01*
X42984546Y4908211D01*
X42280339Y6232632D01*
G37*
%TD*%
%TO.C,JP301*%
G36*
X61350000Y17050000D02*
G01*
X61350000Y17550000D01*
X61350602Y17550000D01*
X61350602Y17574534D01*
X61355412Y17623365D01*
X61364984Y17671490D01*
X61379228Y17718445D01*
X61398005Y17763778D01*
X61421136Y17807051D01*
X61448396Y17847850D01*
X61479524Y17885779D01*
X61514221Y17920476D01*
X61552150Y17951604D01*
X61592949Y17978864D01*
X61636222Y18001995D01*
X61681555Y18020772D01*
X61728510Y18035016D01*
X61776635Y18044588D01*
X61825466Y18049398D01*
X61850000Y18049398D01*
X61850000Y18050000D01*
X62350000Y18050000D01*
X62350000Y18049398D01*
X62374534Y18049398D01*
X62423365Y18044588D01*
X62471490Y18035016D01*
X62518445Y18020772D01*
X62563778Y18001995D01*
X62607051Y17978864D01*
X62647850Y17951604D01*
X62685779Y17920476D01*
X62720476Y17885779D01*
X62751604Y17847850D01*
X62778864Y17807051D01*
X62801995Y17763778D01*
X62820772Y17718445D01*
X62835016Y17671490D01*
X62844588Y17623365D01*
X62849398Y17574534D01*
X62849398Y17550000D01*
X62850000Y17550000D01*
X62850000Y17050000D01*
X61350000Y17050000D01*
G37*
G36*
X62849398Y16250000D02*
G01*
X62849398Y16225466D01*
X62844588Y16176635D01*
X62835016Y16128510D01*
X62820772Y16081555D01*
X62801995Y16036222D01*
X62778864Y15992949D01*
X62751604Y15952150D01*
X62720476Y15914221D01*
X62685779Y15879524D01*
X62647850Y15848396D01*
X62607051Y15821136D01*
X62563778Y15798005D01*
X62518445Y15779228D01*
X62471490Y15764984D01*
X62423365Y15755412D01*
X62374534Y15750602D01*
X62350000Y15750602D01*
X62350000Y15750000D01*
X61850000Y15750000D01*
X61850000Y15750602D01*
X61825466Y15750602D01*
X61776635Y15755412D01*
X61728510Y15764984D01*
X61681555Y15779228D01*
X61636222Y15798005D01*
X61592949Y15821136D01*
X61552150Y15848396D01*
X61514221Y15879524D01*
X61479524Y15914221D01*
X61448396Y15952150D01*
X61421136Y15992949D01*
X61398005Y16036222D01*
X61379228Y16081555D01*
X61364984Y16128510D01*
X61355412Y16176635D01*
X61350602Y16225466D01*
X61350602Y16250000D01*
X61350000Y16250000D01*
X61350000Y16750000D01*
X62850000Y16750000D01*
X62850000Y16250000D01*
X62849398Y16250000D01*
G37*
%TD*%
%TO.C,JP104*%
G36*
X60349398Y15750000D02*
G01*
X60349398Y15725466D01*
X60344588Y15676635D01*
X60335016Y15628510D01*
X60320772Y15581555D01*
X60301995Y15536222D01*
X60278864Y15492949D01*
X60251604Y15452150D01*
X60220476Y15414221D01*
X60185779Y15379524D01*
X60147850Y15348396D01*
X60107051Y15321136D01*
X60063778Y15298005D01*
X60018445Y15279228D01*
X59971490Y15264984D01*
X59923365Y15255412D01*
X59874534Y15250602D01*
X59850000Y15250602D01*
X59850000Y15250000D01*
X59350000Y15250000D01*
X59350000Y15250602D01*
X59325466Y15250602D01*
X59276635Y15255412D01*
X59228510Y15264984D01*
X59181555Y15279228D01*
X59136222Y15298005D01*
X59092949Y15321136D01*
X59052150Y15348396D01*
X59014221Y15379524D01*
X58979524Y15414221D01*
X58948396Y15452150D01*
X58921136Y15492949D01*
X58898005Y15536222D01*
X58879228Y15581555D01*
X58864984Y15628510D01*
X58855412Y15676635D01*
X58850602Y15725466D01*
X58850602Y15750000D01*
X58850000Y15750000D01*
X58850000Y16250000D01*
X60350000Y16250000D01*
X60350000Y15750000D01*
X60349398Y15750000D01*
G37*
G36*
X58850000Y16550000D02*
G01*
X58850000Y17050000D01*
X58850602Y17050000D01*
X58850602Y17074534D01*
X58855412Y17123365D01*
X58864984Y17171490D01*
X58879228Y17218445D01*
X58898005Y17263778D01*
X58921136Y17307051D01*
X58948396Y17347850D01*
X58979524Y17385779D01*
X59014221Y17420476D01*
X59052150Y17451604D01*
X59092949Y17478864D01*
X59136222Y17501995D01*
X59181555Y17520772D01*
X59228510Y17535016D01*
X59276635Y17544588D01*
X59325466Y17549398D01*
X59350000Y17549398D01*
X59350000Y17550000D01*
X59850000Y17550000D01*
X59850000Y17549398D01*
X59874534Y17549398D01*
X59923365Y17544588D01*
X59971490Y17535016D01*
X60018445Y17520772D01*
X60063778Y17501995D01*
X60107051Y17478864D01*
X60147850Y17451604D01*
X60185779Y17420476D01*
X60220476Y17385779D01*
X60251604Y17347850D01*
X60278864Y17307051D01*
X60301995Y17263778D01*
X60320772Y17218445D01*
X60335016Y17171490D01*
X60344588Y17123365D01*
X60349398Y17074534D01*
X60349398Y17050000D01*
X60350000Y17050000D01*
X60350000Y16550000D01*
X58850000Y16550000D01*
G37*
%TD*%
%TO.C,JP103*%
G36*
X57849398Y14750000D02*
G01*
X57849398Y14725466D01*
X57844588Y14676635D01*
X57835016Y14628510D01*
X57820772Y14581555D01*
X57801995Y14536222D01*
X57778864Y14492949D01*
X57751604Y14452150D01*
X57720476Y14414221D01*
X57685779Y14379524D01*
X57647850Y14348396D01*
X57607051Y14321136D01*
X57563778Y14298005D01*
X57518445Y14279228D01*
X57471490Y14264984D01*
X57423365Y14255412D01*
X57374534Y14250602D01*
X57350000Y14250602D01*
X57350000Y14250000D01*
X56850000Y14250000D01*
X56850000Y14250602D01*
X56825466Y14250602D01*
X56776635Y14255412D01*
X56728510Y14264984D01*
X56681555Y14279228D01*
X56636222Y14298005D01*
X56592949Y14321136D01*
X56552150Y14348396D01*
X56514221Y14379524D01*
X56479524Y14414221D01*
X56448396Y14452150D01*
X56421136Y14492949D01*
X56398005Y14536222D01*
X56379228Y14581555D01*
X56364984Y14628510D01*
X56355412Y14676635D01*
X56350602Y14725466D01*
X56350602Y14750000D01*
X56350000Y14750000D01*
X56350000Y15250000D01*
X57850000Y15250000D01*
X57850000Y14750000D01*
X57849398Y14750000D01*
G37*
G36*
X56350000Y15550000D02*
G01*
X56350000Y16050000D01*
X56350602Y16050000D01*
X56350602Y16074534D01*
X56355412Y16123365D01*
X56364984Y16171490D01*
X56379228Y16218445D01*
X56398005Y16263778D01*
X56421136Y16307051D01*
X56448396Y16347850D01*
X56479524Y16385779D01*
X56514221Y16420476D01*
X56552150Y16451604D01*
X56592949Y16478864D01*
X56636222Y16501995D01*
X56681555Y16520772D01*
X56728510Y16535016D01*
X56776635Y16544588D01*
X56825466Y16549398D01*
X56850000Y16549398D01*
X56850000Y16550000D01*
X57350000Y16550000D01*
X57350000Y16549398D01*
X57374534Y16549398D01*
X57423365Y16544588D01*
X57471490Y16535016D01*
X57518445Y16520772D01*
X57563778Y16501995D01*
X57607051Y16478864D01*
X57647850Y16451604D01*
X57685779Y16420476D01*
X57720476Y16385779D01*
X57751604Y16347850D01*
X57778864Y16307051D01*
X57801995Y16263778D01*
X57820772Y16218445D01*
X57835016Y16171490D01*
X57844588Y16123365D01*
X57849398Y16074534D01*
X57849398Y16050000D01*
X57850000Y16050000D01*
X57850000Y15550000D01*
X56350000Y15550000D01*
G37*
%TD*%
D19*
%TO.C,GROUND101*%
X7408200Y16149000D03*
%TD*%
D13*
%TO.C,JP102*%
G36*
X75250602Y35300000D02*
G01*
X75250602Y35324534D01*
X75255412Y35373365D01*
X75264984Y35421490D01*
X75279228Y35468445D01*
X75298005Y35513778D01*
X75321136Y35557051D01*
X75348396Y35597850D01*
X75379524Y35635779D01*
X75414221Y35670476D01*
X75452150Y35701604D01*
X75492949Y35728864D01*
X75536222Y35751995D01*
X75581555Y35770772D01*
X75628510Y35785016D01*
X75676635Y35794588D01*
X75725466Y35799398D01*
X75750000Y35799398D01*
X75750000Y35800000D01*
X76250000Y35800000D01*
X76250000Y35799398D01*
X76274534Y35799398D01*
X76323365Y35794588D01*
X76371490Y35785016D01*
X76418445Y35770772D01*
X76463778Y35751995D01*
X76507051Y35728864D01*
X76547850Y35701604D01*
X76585779Y35670476D01*
X76620476Y35635779D01*
X76651604Y35597850D01*
X76678864Y35557051D01*
X76701995Y35513778D01*
X76720772Y35468445D01*
X76735016Y35421490D01*
X76744588Y35373365D01*
X76749398Y35324534D01*
X76749398Y35300000D01*
X76750000Y35300000D01*
X76750000Y34750000D01*
X75250000Y34750000D01*
X75250000Y35300000D01*
X75250602Y35300000D01*
G37*
D20*
X76000000Y34000000D03*
D13*
G36*
X76750000Y33250000D02*
G01*
X76750000Y32700000D01*
X76749398Y32700000D01*
X76749398Y32675466D01*
X76744588Y32626635D01*
X76735016Y32578510D01*
X76720772Y32531555D01*
X76701995Y32486222D01*
X76678864Y32442949D01*
X76651604Y32402150D01*
X76620476Y32364221D01*
X76585779Y32329524D01*
X76547850Y32298396D01*
X76507051Y32271136D01*
X76463778Y32248005D01*
X76418445Y32229228D01*
X76371490Y32214984D01*
X76323365Y32205412D01*
X76274534Y32200602D01*
X76250000Y32200602D01*
X76250000Y32200000D01*
X75750000Y32200000D01*
X75750000Y32200602D01*
X75725466Y32200602D01*
X75676635Y32205412D01*
X75628510Y32214984D01*
X75581555Y32229228D01*
X75536222Y32248005D01*
X75492949Y32271136D01*
X75452150Y32298396D01*
X75414221Y32329524D01*
X75379524Y32364221D01*
X75348396Y32402150D01*
X75321136Y32442949D01*
X75298005Y32486222D01*
X75279228Y32531555D01*
X75264984Y32578510D01*
X75255412Y32626635D01*
X75250602Y32675466D01*
X75250602Y32700000D01*
X75250000Y32700000D01*
X75250000Y33250000D01*
X76750000Y33250000D01*
G37*
%TD*%
D21*
%TO.C,U101*%
X75484500Y30000000D03*
%TD*%
D22*
%TO.C,S101*%
X62190000Y39730000D03*
X69810000Y39730000D03*
X62190000Y42270000D03*
D23*
X69810000Y42270000D03*
%TD*%
D24*
%TO.C,J106*%
X66760000Y21500000D03*
X73760000Y21500000D03*
%TD*%
D13*
%TO.C,J102*%
G36*
X30357654Y9483860D02*
G01*
X30357656Y9483860D01*
X30359049Y9483792D01*
X30363217Y9483354D01*
X30367384Y9482975D01*
X30744704Y9429946D01*
X30746085Y9429742D01*
X30750211Y9428895D01*
X30754301Y9428115D01*
X31124641Y9338521D01*
X31124646Y9338520D01*
X31124652Y9338518D01*
X31125999Y9338182D01*
X31129976Y9336951D01*
X31134018Y9335762D01*
X31493846Y9210456D01*
X31493852Y9210454D01*
X31493859Y9210451D01*
X31495167Y9209985D01*
X31498997Y9208375D01*
X31502910Y9206794D01*
X31848792Y9046974D01*
X31848800Y9046971D01*
X31848809Y9046966D01*
X31850062Y9046376D01*
X31853748Y9044384D01*
X31857457Y9042444D01*
X32186091Y8849636D01*
X32186100Y8849631D01*
X32186110Y8849624D01*
X32187298Y8848916D01*
X32190719Y8846609D01*
X32194275Y8844282D01*
X32502533Y8620319D01*
X32503656Y8619490D01*
X32506852Y8616846D01*
X32510147Y8614197D01*
X32795079Y8361223D01*
X32796116Y8360288D01*
X32799052Y8357332D01*
X32802059Y8354387D01*
X33060946Y8074815D01*
X33061887Y8073784D01*
X33064534Y8070539D01*
X33067226Y8067331D01*
X33297595Y7763831D01*
X33298431Y7762713D01*
X33300728Y7759255D01*
X33303115Y7755770D01*
X33502768Y7431238D01*
X33503491Y7430043D01*
X33505467Y7426327D01*
X33507474Y7422676D01*
X33674502Y7080218D01*
X33674507Y7080210D01*
X33674511Y7080200D01*
X33675109Y7078951D01*
X33676700Y7075091D01*
X33678355Y7071230D01*
X33811167Y6714110D01*
X33811172Y6714099D01*
X33811176Y6714085D01*
X33811648Y6712788D01*
X33812855Y6708791D01*
X33814125Y6704787D01*
X33911454Y6336413D01*
X33911458Y6336399D01*
X33911462Y6336382D01*
X33911804Y6335048D01*
X33912607Y6330994D01*
X33913489Y6326843D01*
X33974408Y5950717D01*
X33974621Y5949338D01*
X33975028Y5945189D01*
X33975497Y5941008D01*
X33999422Y5560731D01*
X33999499Y5559337D01*
X33999499Y5557254D01*
X33999617Y5555150D01*
X33999997Y5500698D01*
X33999997Y5500050D01*
X33999999Y5500000D01*
X34000000Y1500000D01*
X33999995Y1499363D01*
X33999998Y1499302D01*
X33999995Y1499241D01*
X33999990Y1498604D01*
X33999707Y1494098D01*
X33999452Y1489547D01*
X33999399Y1489206D01*
X33999377Y1488853D01*
X33998651Y1484372D01*
X33997958Y1479892D01*
X33997870Y1479551D01*
X33997815Y1479209D01*
X33996666Y1474861D01*
X33995528Y1470429D01*
X33995408Y1470098D01*
X33995319Y1469763D01*
X33993732Y1465495D01*
X33992186Y1461248D01*
X33992037Y1460938D01*
X33991914Y1460606D01*
X33989905Y1456488D01*
X33987965Y1452438D01*
X33987785Y1452141D01*
X33987631Y1451825D01*
X33985254Y1447961D01*
X33982904Y1444081D01*
X33982694Y1443800D01*
X33982511Y1443503D01*
X33979759Y1439878D01*
X33977051Y1436258D01*
X33976818Y1436002D01*
X33976604Y1435721D01*
X33973508Y1432378D01*
X33970463Y1429043D01*
X33970203Y1428809D01*
X33969966Y1428553D01*
X33966570Y1425538D01*
X33963203Y1422506D01*
X33962923Y1422300D01*
X33962660Y1422066D01*
X33958994Y1419403D01*
X33955339Y1416708D01*
X33955036Y1416527D01*
X33954756Y1416324D01*
X33950883Y1414051D01*
X33946947Y1411705D01*
X33946628Y1411555D01*
X33946330Y1411380D01*
X33942268Y1409503D01*
X33938107Y1407545D01*
X33937772Y1407426D01*
X33937461Y1407282D01*
X33933243Y1405813D01*
X33928903Y1404268D01*
X33928559Y1404182D01*
X33928234Y1404069D01*
X33923869Y1403013D01*
X33919423Y1401904D01*
X33919076Y1401853D01*
X33918738Y1401771D01*
X33914301Y1401148D01*
X33909758Y1400477D01*
X33909402Y1400460D01*
X33909063Y1400412D01*
X33904553Y1400223D01*
X33900000Y1400000D01*
X26100000Y1400000D01*
X26099363Y1400005D01*
X26099302Y1400002D01*
X26099241Y1400005D01*
X26098604Y1400010D01*
X26094098Y1400293D01*
X26089547Y1400548D01*
X26089206Y1400601D01*
X26088853Y1400623D01*
X26084372Y1401349D01*
X26079892Y1402042D01*
X26079551Y1402130D01*
X26079209Y1402185D01*
X26074861Y1403334D01*
X26070429Y1404472D01*
X26070098Y1404592D01*
X26069763Y1404681D01*
X26065495Y1406268D01*
X26061248Y1407814D01*
X26060938Y1407963D01*
X26060606Y1408086D01*
X26056488Y1410095D01*
X26052438Y1412035D01*
X26052141Y1412215D01*
X26051825Y1412369D01*
X26047961Y1414746D01*
X26044081Y1417096D01*
X26043800Y1417306D01*
X26043503Y1417489D01*
X26039878Y1420241D01*
X26036258Y1422949D01*
X26036002Y1423182D01*
X26035721Y1423396D01*
X26032378Y1426492D01*
X26029043Y1429537D01*
X26028809Y1429797D01*
X26028553Y1430034D01*
X26025538Y1433430D01*
X26022506Y1436797D01*
X26022300Y1437077D01*
X26022066Y1437340D01*
X26019403Y1441006D01*
X26016708Y1444661D01*
X26016527Y1444964D01*
X26016324Y1445244D01*
X26014051Y1449117D01*
X26011705Y1453053D01*
X26011555Y1453372D01*
X26011380Y1453670D01*
X26009503Y1457732D01*
X26007545Y1461893D01*
X26007426Y1462228D01*
X26007282Y1462539D01*
X26005813Y1466757D01*
X26004268Y1471097D01*
X26004182Y1471441D01*
X26004069Y1471766D01*
X26003013Y1476131D01*
X26001904Y1480577D01*
X26001853Y1480924D01*
X26001771Y1481262D01*
X26001148Y1485699D01*
X26000477Y1490242D01*
X26000460Y1490598D01*
X26000412Y1490937D01*
X26000223Y1495447D01*
X26000000Y1500000D01*
X26000000Y5500000D01*
X26000010Y5501396D01*
X26000120Y5503146D01*
X26000120Y5504885D01*
X26018733Y5885458D01*
X26018812Y5886852D01*
X26019276Y5890996D01*
X26019687Y5895181D01*
X26075349Y6272123D01*
X26075563Y6273502D01*
X26076424Y6277553D01*
X26077246Y6281706D01*
X26169425Y6651416D01*
X26169773Y6652768D01*
X26171025Y6656715D01*
X26172249Y6660769D01*
X26300065Y7019719D01*
X26300543Y7021031D01*
X26302176Y7024842D01*
X26303788Y7028752D01*
X26466022Y7373517D01*
X26466626Y7374776D01*
X26468640Y7378440D01*
X26470609Y7382143D01*
X26665712Y7709431D01*
X26666436Y7710625D01*
X26668803Y7714083D01*
X26671119Y7717568D01*
X26897228Y8024256D01*
X26898064Y8025374D01*
X26900784Y8028616D01*
X26903403Y8031827D01*
X27006572Y8146409D01*
X27275699Y8146409D01*
X27339382Y8210092D01*
X27303713Y8177521D01*
X27275699Y8146409D01*
X27006572Y8146409D01*
X27158360Y8314986D01*
X27159302Y8316017D01*
X27162304Y8318957D01*
X27165245Y8321919D01*
X27446617Y8578847D01*
X27447655Y8579781D01*
X27450914Y8582401D01*
X27454145Y8585074D01*
X27759233Y8813310D01*
X27759246Y8813320D01*
X27759262Y8813331D01*
X27760369Y8814147D01*
X27763878Y8816444D01*
X27767345Y8818782D01*
X28093263Y9016165D01*
X28093264Y9016166D01*
X28093275Y9016172D01*
X28094462Y9016880D01*
X28098202Y9018836D01*
X28101858Y9020812D01*
X28445465Y9185440D01*
X28445481Y9185449D01*
X28445501Y9185457D01*
X28446745Y9186042D01*
X28450596Y9187598D01*
X28454488Y9189234D01*
X28812519Y9319548D01*
X28812537Y9319555D01*
X28812559Y9319562D01*
X28813852Y9320022D01*
X28817836Y9321195D01*
X28821870Y9322443D01*
X29190903Y9417194D01*
X29190927Y9417201D01*
X29190955Y9417207D01*
X29192282Y9417538D01*
X29196364Y9418317D01*
X29200497Y9419165D01*
X29577040Y9477457D01*
X29578421Y9477660D01*
X29582555Y9478036D01*
X29586757Y9478478D01*
X29967191Y9499748D01*
X29968585Y9499816D01*
X29972773Y9499787D01*
X29976961Y9499816D01*
X30357654Y9483860D01*
G37*
%TD*%
%TO.C,J101*%
G36*
X29642346Y50516140D02*
G01*
X29642344Y50516140D01*
X29640951Y50516208D01*
X29636783Y50516646D01*
X29632616Y50517025D01*
X29255296Y50570054D01*
X29253915Y50570258D01*
X29249789Y50571105D01*
X29245699Y50571885D01*
X28875359Y50661479D01*
X28875354Y50661480D01*
X28875348Y50661482D01*
X28874001Y50661818D01*
X28870024Y50663049D01*
X28865982Y50664238D01*
X28506154Y50789544D01*
X28506148Y50789546D01*
X28506141Y50789549D01*
X28504833Y50790015D01*
X28501003Y50791625D01*
X28497090Y50793206D01*
X28151208Y50953026D01*
X28151200Y50953029D01*
X28151191Y50953034D01*
X28149938Y50953624D01*
X28146252Y50955616D01*
X28142543Y50957556D01*
X27813909Y51150364D01*
X27813900Y51150369D01*
X27813890Y51150376D01*
X27812702Y51151084D01*
X27809281Y51153391D01*
X27805725Y51155718D01*
X27497467Y51379681D01*
X27496344Y51380510D01*
X27493148Y51383154D01*
X27489853Y51385803D01*
X27204921Y51638777D01*
X27203884Y51639712D01*
X27200948Y51642668D01*
X27197941Y51645613D01*
X26939054Y51925185D01*
X26938113Y51926216D01*
X26935466Y51929461D01*
X26932774Y51932669D01*
X26702405Y52236169D01*
X26701569Y52237287D01*
X26699272Y52240745D01*
X26696885Y52244230D01*
X26497232Y52568762D01*
X26496509Y52569957D01*
X26494533Y52573673D01*
X26492526Y52577324D01*
X26325498Y52919782D01*
X26325493Y52919790D01*
X26325489Y52919800D01*
X26324891Y52921049D01*
X26323300Y52924909D01*
X26321645Y52928770D01*
X26188833Y53285890D01*
X26188828Y53285901D01*
X26188824Y53285915D01*
X26188352Y53287212D01*
X26187145Y53291209D01*
X26185875Y53295213D01*
X26088546Y53663587D01*
X26088542Y53663601D01*
X26088538Y53663618D01*
X26088196Y53664952D01*
X26087393Y53669006D01*
X26086511Y53673157D01*
X26025592Y54049283D01*
X26025379Y54050662D01*
X26024972Y54054811D01*
X26024503Y54058992D01*
X26000578Y54439269D01*
X26000501Y54440663D01*
X26000501Y54442746D01*
X26000383Y54444850D01*
X26000003Y54499302D01*
X26000003Y54499950D01*
X26000001Y54500000D01*
X26000000Y58500000D01*
X26000005Y58500637D01*
X26000002Y58500698D01*
X26000005Y58500759D01*
X26000010Y58501396D01*
X26000293Y58505902D01*
X26000548Y58510453D01*
X26000601Y58510794D01*
X26000623Y58511147D01*
X26001349Y58515628D01*
X26002042Y58520108D01*
X26002130Y58520449D01*
X26002185Y58520791D01*
X26003334Y58525139D01*
X26004472Y58529571D01*
X26004592Y58529902D01*
X26004681Y58530237D01*
X26006268Y58534505D01*
X26007814Y58538752D01*
X26007963Y58539062D01*
X26008086Y58539394D01*
X26010095Y58543512D01*
X26012035Y58547562D01*
X26012215Y58547859D01*
X26012369Y58548175D01*
X26014746Y58552039D01*
X26017096Y58555919D01*
X26017306Y58556200D01*
X26017489Y58556497D01*
X26020241Y58560122D01*
X26022949Y58563742D01*
X26023182Y58563998D01*
X26023396Y58564279D01*
X26026492Y58567622D01*
X26029537Y58570957D01*
X26029797Y58571191D01*
X26030034Y58571447D01*
X26033430Y58574462D01*
X26036797Y58577494D01*
X26037077Y58577700D01*
X26037340Y58577934D01*
X26041006Y58580597D01*
X26044661Y58583292D01*
X26044964Y58583473D01*
X26045244Y58583676D01*
X26049117Y58585949D01*
X26053053Y58588295D01*
X26053372Y58588445D01*
X26053670Y58588620D01*
X26057732Y58590497D01*
X26061893Y58592455D01*
X26062228Y58592574D01*
X26062539Y58592718D01*
X26066757Y58594187D01*
X26071097Y58595732D01*
X26071441Y58595818D01*
X26071766Y58595931D01*
X26076131Y58596987D01*
X26080577Y58598096D01*
X26080924Y58598147D01*
X26081262Y58598229D01*
X26085699Y58598852D01*
X26090242Y58599523D01*
X26090598Y58599540D01*
X26090937Y58599588D01*
X26095447Y58599777D01*
X26100000Y58600000D01*
X33900000Y58600000D01*
X33900637Y58599995D01*
X33900698Y58599998D01*
X33900759Y58599995D01*
X33901396Y58599990D01*
X33905902Y58599707D01*
X33910453Y58599452D01*
X33910794Y58599399D01*
X33911147Y58599377D01*
X33915628Y58598651D01*
X33920108Y58597958D01*
X33920449Y58597870D01*
X33920791Y58597815D01*
X33925139Y58596666D01*
X33929571Y58595528D01*
X33929902Y58595408D01*
X33930237Y58595319D01*
X33934505Y58593732D01*
X33938752Y58592186D01*
X33939062Y58592037D01*
X33939394Y58591914D01*
X33943512Y58589905D01*
X33947562Y58587965D01*
X33947859Y58587785D01*
X33948175Y58587631D01*
X33952039Y58585254D01*
X33955919Y58582904D01*
X33956200Y58582694D01*
X33956497Y58582511D01*
X33960122Y58579759D01*
X33963742Y58577051D01*
X33963998Y58576818D01*
X33964279Y58576604D01*
X33967622Y58573508D01*
X33970957Y58570463D01*
X33971191Y58570203D01*
X33971447Y58569966D01*
X33974462Y58566570D01*
X33977494Y58563203D01*
X33977700Y58562923D01*
X33977934Y58562660D01*
X33980597Y58558994D01*
X33983292Y58555339D01*
X33983473Y58555036D01*
X33983676Y58554756D01*
X33985949Y58550883D01*
X33988295Y58546947D01*
X33988445Y58546628D01*
X33988620Y58546330D01*
X33990497Y58542268D01*
X33992455Y58538107D01*
X33992574Y58537772D01*
X33992718Y58537461D01*
X33994187Y58533243D01*
X33995732Y58528903D01*
X33995818Y58528559D01*
X33995931Y58528234D01*
X33996987Y58523869D01*
X33998096Y58519423D01*
X33998147Y58519076D01*
X33998229Y58518738D01*
X33998852Y58514301D01*
X33999523Y58509758D01*
X33999540Y58509402D01*
X33999588Y58509063D01*
X33999777Y58504553D01*
X34000000Y58500000D01*
X34000000Y54500000D01*
X33999990Y54498604D01*
X33999880Y54496854D01*
X33999880Y54495115D01*
X33981267Y54114542D01*
X33981188Y54113148D01*
X33980724Y54109004D01*
X33980313Y54104819D01*
X33924651Y53727877D01*
X33924437Y53726498D01*
X33923576Y53722447D01*
X33922754Y53718294D01*
X33830575Y53348584D01*
X33830227Y53347232D01*
X33828975Y53343285D01*
X33827751Y53339231D01*
X33699935Y52980281D01*
X33699457Y52978969D01*
X33697824Y52975158D01*
X33696212Y52971248D01*
X33533978Y52626483D01*
X33533374Y52625224D01*
X33531360Y52621560D01*
X33529391Y52617857D01*
X33334288Y52290569D01*
X33333564Y52289375D01*
X33331197Y52285917D01*
X33328881Y52282432D01*
X33102772Y51975744D01*
X33101936Y51974626D01*
X33099216Y51971384D01*
X33096597Y51968173D01*
X32993428Y51853591D01*
X32724301Y51853591D01*
X32660618Y51789908D01*
X32696287Y51822479D01*
X32724301Y51853591D01*
X32993428Y51853591D01*
X32841640Y51685014D01*
X32840698Y51683983D01*
X32837696Y51681043D01*
X32834755Y51678081D01*
X32553383Y51421153D01*
X32552345Y51420219D01*
X32549086Y51417599D01*
X32545855Y51414926D01*
X32240767Y51186690D01*
X32240754Y51186680D01*
X32240738Y51186669D01*
X32239631Y51185853D01*
X32236122Y51183556D01*
X32232655Y51181218D01*
X31906737Y50983835D01*
X31906736Y50983834D01*
X31906725Y50983828D01*
X31905538Y50983120D01*
X31901798Y50981164D01*
X31898142Y50979188D01*
X31554535Y50814560D01*
X31554519Y50814551D01*
X31554499Y50814543D01*
X31553255Y50813958D01*
X31549404Y50812402D01*
X31545512Y50810766D01*
X31187481Y50680452D01*
X31187463Y50680445D01*
X31187441Y50680438D01*
X31186148Y50679978D01*
X31182164Y50678805D01*
X31178130Y50677557D01*
X30809097Y50582806D01*
X30809073Y50582799D01*
X30809045Y50582793D01*
X30807718Y50582462D01*
X30803636Y50581683D01*
X30799503Y50580835D01*
X30422960Y50522543D01*
X30421579Y50522340D01*
X30417445Y50521964D01*
X30413243Y50521522D01*
X30032809Y50500252D01*
X30031415Y50500184D01*
X30027227Y50500213D01*
X30023039Y50500184D01*
X29642346Y50516140D01*
G37*
%TD*%
%TO.C,J103*%
G36*
G01*
X50928167Y46826948D02*
X51423141Y47321922D01*
G75*
G02*
X52271669Y47321922I424264J-424264D01*
G01*
X52271669Y47321922D01*
G75*
G02*
X52271669Y46473394I-424264J-424264D01*
G01*
X51776695Y45978420D01*
G75*
G02*
X50928167Y45978420I-424264J424264D01*
G01*
X50928167Y45978420D01*
G75*
G02*
X50928167Y46826948I424264J424264D01*
G01*
G37*
G36*
G01*
X47321922Y51423141D02*
X46826948Y50928167D01*
G75*
G02*
X45978420Y50928167I-424264J424264D01*
G01*
X45978420Y50928167D01*
G75*
G02*
X45978420Y51776695I424264J424264D01*
G01*
X46473394Y52271669D01*
G75*
G02*
X47321922Y52271669I424264J-424264D01*
G01*
X47321922Y52271669D01*
G75*
G02*
X47321922Y51423141I-424264J-424264D01*
G01*
G37*
D25*
X48983623Y45448089D03*
X45448089Y48983623D03*
%TD*%
%TO.C,J104*%
G36*
G01*
X51389087Y15795118D02*
X51389087Y15795118D01*
G75*
G02*
X52591169Y15795118I601041J-601041D01*
G01*
X52591169Y15795118D01*
G75*
G02*
X52591169Y14593036I-601041J-601041D01*
G01*
X52591169Y14593036D01*
G75*
G02*
X51389087Y14593036I-601041J601041D01*
G01*
X51389087Y14593036D01*
G75*
G02*
X51389087Y15795118I601041J601041D01*
G01*
G37*
G36*
G01*
X49593036Y17591169D02*
X49593036Y17591169D01*
G75*
G02*
X50795118Y17591169I601041J-601041D01*
G01*
X50795118Y17591169D01*
G75*
G02*
X50795118Y16389087I-601041J-601041D01*
G01*
X50795118Y16389087D01*
G75*
G02*
X49593036Y16389087I-601041J601041D01*
G01*
X49593036Y16389087D01*
G75*
G02*
X49593036Y17591169I601041J601041D01*
G01*
G37*
G36*
G01*
X49593036Y13999067D02*
X49593036Y13999067D01*
G75*
G02*
X50795118Y13999067I601041J-601041D01*
G01*
X50795118Y13999067D01*
G75*
G02*
X50795118Y12796985I-601041J-601041D01*
G01*
X50795118Y12796985D01*
G75*
G02*
X49593036Y12796985I-601041J601041D01*
G01*
X49593036Y12796985D01*
G75*
G02*
X49593036Y13999067I601041J601041D01*
G01*
G37*
G36*
G01*
X47796985Y15795118D02*
X47796985Y15795118D01*
G75*
G02*
X48999067Y15795118I601041J-601041D01*
G01*
X48999067Y15795118D01*
G75*
G02*
X48999067Y14593036I-601041J-601041D01*
G01*
X48999067Y14593036D01*
G75*
G02*
X47796985Y14593036I-601041J601041D01*
G01*
X47796985Y14593036D01*
G75*
G02*
X47796985Y15795118I601041J601041D01*
G01*
G37*
G36*
G01*
X47796985Y12203015D02*
X47796985Y12203015D01*
G75*
G02*
X48999067Y12203015I601041J-601041D01*
G01*
X48999067Y12203015D01*
G75*
G02*
X48999067Y11000933I-601041J-601041D01*
G01*
X48999067Y11000933D01*
G75*
G02*
X47796985Y11000933I-601041J601041D01*
G01*
X47796985Y11000933D01*
G75*
G02*
X47796985Y12203015I601041J601041D01*
G01*
G37*
G36*
G01*
X46000933Y13999067D02*
X46000933Y13999067D01*
G75*
G02*
X47203015Y13999067I601041J-601041D01*
G01*
X47203015Y13999067D01*
G75*
G02*
X47203015Y12796985I-601041J-601041D01*
G01*
X47203015Y12796985D01*
G75*
G02*
X46000933Y12796985I-601041J601041D01*
G01*
X46000933Y12796985D01*
G75*
G02*
X46000933Y13999067I601041J601041D01*
G01*
G37*
G36*
G01*
X46000933Y10406964D02*
X46000933Y10406964D01*
G75*
G02*
X47203015Y10406964I601041J-601041D01*
G01*
X47203015Y10406964D01*
G75*
G02*
X47203015Y9204882I-601041J-601041D01*
G01*
X47203015Y9204882D01*
G75*
G02*
X46000933Y9204882I-601041J601041D01*
G01*
X46000933Y9204882D01*
G75*
G02*
X46000933Y10406964I601041J601041D01*
G01*
G37*
G36*
G01*
X44204882Y12203015D02*
X44204882Y12203015D01*
G75*
G02*
X45406964Y12203015I601041J-601041D01*
G01*
X45406964Y12203015D01*
G75*
G02*
X45406964Y11000933I-601041J-601041D01*
G01*
X45406964Y11000933D01*
G75*
G02*
X44204882Y11000933I-601041J601041D01*
G01*
X44204882Y11000933D01*
G75*
G02*
X44204882Y12203015I601041J601041D01*
G01*
G37*
G36*
G01*
X44204882Y8610913D02*
X44204882Y8610913D01*
G75*
G02*
X45406964Y8610913I601041J-601041D01*
G01*
X45406964Y8610913D01*
G75*
G02*
X45406964Y7408831I-601041J-601041D01*
G01*
X45406964Y7408831D01*
G75*
G02*
X44204882Y7408831I-601041J601041D01*
G01*
X44204882Y7408831D01*
G75*
G02*
X44204882Y8610913I601041J601041D01*
G01*
G37*
D13*
G36*
X41807790Y9805923D02*
G01*
X43009872Y11008005D01*
X44211954Y9805923D01*
X43009872Y8603841D01*
X41807790Y9805923D01*
G37*
%TD*%
D26*
%TO.C,J105*%
X73500000Y35500000D03*
X73500000Y37500000D03*
X73500000Y39500000D03*
G36*
G01*
X72874999Y42100000D02*
X74125001Y42100000D01*
G75*
G02*
X74375000Y41850001I0J-249999D01*
G01*
X74375000Y41149999D01*
G75*
G02*
X74125001Y40900000I-249999J0D01*
G01*
X72874999Y40900000D01*
G75*
G02*
X72625000Y41149999I0J249999D01*
G01*
X72625000Y41850001D01*
G75*
G02*
X72874999Y42100000I249999J0D01*
G01*
G37*
%TD*%
M02*
