%TF.GenerationSoftware,KiCad,Pcbnew,5.1.10-88a1d61d58~88~ubuntu18.04.1*%
%TF.CreationDate,2021-11-09T17:01:34+11:00*%
%TF.ProjectId,Rockling,526f636b-6c69-46e6-972e-6b696361645f,rev?*%
%TF.SameCoordinates,PX42c1d80PY7bfa480*%
%TF.FileFunction,Soldermask,Top*%
%TF.FilePolarity,Negative*%
%FSLAX46Y46*%
G04 Gerber Fmt 4.6, Leading zero omitted, Abs format (unit mm)*
G04 Created by KiCad (PCBNEW 5.1.10-88a1d61d58~88~ubuntu18.04.1) date 2021-11-09 17:01:34*
%MOMM*%
%LPD*%
G01*
G04 APERTURE LIST*
%ADD10C,5.000000*%
%ADD11C,0.100000*%
%ADD12C,1.500000*%
%ADD13C,2.000000*%
%ADD14O,1.700000X1.700000*%
%ADD15R,1.700000X1.700000*%
%ADD16C,2.500000*%
%ADD17R,1.500000X1.000000*%
%ADD18C,0.350000*%
%ADD19C,1.580000*%
%ADD20R,1.580000X1.580000*%
%ADD21C,1.700000*%
%ADD22C,1.450000*%
%ADD23O,1.750000X1.200000*%
G04 APERTURE END LIST*
D10*
%TO.C,D101*%
X20000000Y37500000D02*
G75*
G03*
X20000000Y37500000I-2500000J0D01*
G01*
%TD*%
D11*
%TO.C,JP1*%
G36*
X75850000Y37450000D02*
G01*
X75850000Y37950000D01*
X75850602Y37950000D01*
X75850602Y37974534D01*
X75855412Y38023365D01*
X75864984Y38071490D01*
X75879228Y38118445D01*
X75898005Y38163778D01*
X75921136Y38207051D01*
X75948396Y38247850D01*
X75979524Y38285779D01*
X76014221Y38320476D01*
X76052150Y38351604D01*
X76092949Y38378864D01*
X76136222Y38401995D01*
X76181555Y38420772D01*
X76228510Y38435016D01*
X76276635Y38444588D01*
X76325466Y38449398D01*
X76350000Y38449398D01*
X76350000Y38450000D01*
X76850000Y38450000D01*
X76850000Y38449398D01*
X76874534Y38449398D01*
X76923365Y38444588D01*
X76971490Y38435016D01*
X77018445Y38420772D01*
X77063778Y38401995D01*
X77107051Y38378864D01*
X77147850Y38351604D01*
X77185779Y38320476D01*
X77220476Y38285779D01*
X77251604Y38247850D01*
X77278864Y38207051D01*
X77301995Y38163778D01*
X77320772Y38118445D01*
X77335016Y38071490D01*
X77344588Y38023365D01*
X77349398Y37974534D01*
X77349398Y37950000D01*
X77350000Y37950000D01*
X77350000Y37450000D01*
X75850000Y37450000D01*
G37*
G36*
X77349398Y36650000D02*
G01*
X77349398Y36625466D01*
X77344588Y36576635D01*
X77335016Y36528510D01*
X77320772Y36481555D01*
X77301995Y36436222D01*
X77278864Y36392949D01*
X77251604Y36352150D01*
X77220476Y36314221D01*
X77185779Y36279524D01*
X77147850Y36248396D01*
X77107051Y36221136D01*
X77063778Y36198005D01*
X77018445Y36179228D01*
X76971490Y36164984D01*
X76923365Y36155412D01*
X76874534Y36150602D01*
X76850000Y36150602D01*
X76850000Y36150000D01*
X76350000Y36150000D01*
X76350000Y36150602D01*
X76325466Y36150602D01*
X76276635Y36155412D01*
X76228510Y36164984D01*
X76181555Y36179228D01*
X76136222Y36198005D01*
X76092949Y36221136D01*
X76052150Y36248396D01*
X76014221Y36279524D01*
X75979524Y36314221D01*
X75948396Y36352150D01*
X75921136Y36392949D01*
X75898005Y36436222D01*
X75879228Y36481555D01*
X75864984Y36528510D01*
X75855412Y36576635D01*
X75850602Y36625466D01*
X75850602Y36650000D01*
X75850000Y36650000D01*
X75850000Y37150000D01*
X77350000Y37150000D01*
X77350000Y36650000D01*
X77349398Y36650000D01*
G37*
%TD*%
%TO.C,R4*%
G36*
G01*
X77725000Y41075000D02*
X78275000Y41075000D01*
G75*
G02*
X78475000Y40875000I0J-200000D01*
G01*
X78475000Y40475000D01*
G75*
G02*
X78275000Y40275000I-200000J0D01*
G01*
X77725000Y40275000D01*
G75*
G02*
X77525000Y40475000I0J200000D01*
G01*
X77525000Y40875000D01*
G75*
G02*
X77725000Y41075000I200000J0D01*
G01*
G37*
G36*
G01*
X77725000Y42725000D02*
X78275000Y42725000D01*
G75*
G02*
X78475000Y42525000I0J-200000D01*
G01*
X78475000Y42125000D01*
G75*
G02*
X78275000Y41925000I-200000J0D01*
G01*
X77725000Y41925000D01*
G75*
G02*
X77525000Y42125000I0J200000D01*
G01*
X77525000Y42525000D01*
G75*
G02*
X77725000Y42725000I200000J0D01*
G01*
G37*
%TD*%
%TO.C,D2*%
G36*
G01*
X77743750Y44150000D02*
X78256250Y44150000D01*
G75*
G02*
X78475000Y43931250I0J-218750D01*
G01*
X78475000Y43493750D01*
G75*
G02*
X78256250Y43275000I-218750J0D01*
G01*
X77743750Y43275000D01*
G75*
G02*
X77525000Y43493750I0J218750D01*
G01*
X77525000Y43931250D01*
G75*
G02*
X77743750Y44150000I218750J0D01*
G01*
G37*
G36*
G01*
X77743750Y45725000D02*
X78256250Y45725000D01*
G75*
G02*
X78475000Y45506250I0J-218750D01*
G01*
X78475000Y45068750D01*
G75*
G02*
X78256250Y44850000I-218750J0D01*
G01*
X77743750Y44850000D01*
G75*
G02*
X77525000Y45068750I0J218750D01*
G01*
X77525000Y45506250D01*
G75*
G02*
X77743750Y45725000I218750J0D01*
G01*
G37*
%TD*%
D12*
%TO.C,TP102*%
X22000000Y30000000D03*
%TD*%
%TO.C,TP802*%
X30000000Y38000000D03*
%TD*%
%TO.C,TP801*%
X30000000Y22000000D03*
%TD*%
%TO.C,TP5*%
X57000000Y29670000D03*
%TD*%
%TO.C,TP4*%
X51920000Y24590000D03*
%TD*%
%TO.C,TP3*%
X54460000Y24590000D03*
%TD*%
%TO.C,TP2*%
X57000000Y27130000D03*
%TD*%
%TO.C,TP1*%
X57000000Y24590000D03*
%TD*%
%TO.C,TP105*%
X59600000Y19400000D03*
%TD*%
%TO.C,TP104*%
X57100000Y18400000D03*
%TD*%
%TO.C,TP103*%
X38000000Y30000000D03*
%TD*%
%TO.C,TP101*%
X35657000Y24343000D03*
%TD*%
D13*
%TO.C,Sp506*%
X4406800Y23127000D03*
%TD*%
%TO.C,Sp505*%
X37230000Y55494600D03*
%TD*%
%TO.C,Sp504*%
X5182300Y20708000D03*
%TD*%
%TO.C,Sp503*%
X5684100Y40535100D03*
%TD*%
%TO.C,Sp501*%
X39638000Y54685300D03*
%TD*%
%TO.C,Sp1*%
X4787200Y38158800D03*
%TD*%
%TO.C,R3*%
G36*
G01*
X77875000Y19425000D02*
X77325000Y19425000D01*
G75*
G02*
X77125000Y19625000I0J200000D01*
G01*
X77125000Y20025000D01*
G75*
G02*
X77325000Y20225000I200000J0D01*
G01*
X77875000Y20225000D01*
G75*
G02*
X78075000Y20025000I0J-200000D01*
G01*
X78075000Y19625000D01*
G75*
G02*
X77875000Y19425000I-200000J0D01*
G01*
G37*
G36*
G01*
X77875000Y17775000D02*
X77325000Y17775000D01*
G75*
G02*
X77125000Y17975000I0J200000D01*
G01*
X77125000Y18375000D01*
G75*
G02*
X77325000Y18575000I200000J0D01*
G01*
X77875000Y18575000D01*
G75*
G02*
X78075000Y18375000I0J-200000D01*
G01*
X78075000Y17975000D01*
G75*
G02*
X77875000Y17775000I-200000J0D01*
G01*
G37*
%TD*%
%TO.C,D1*%
G36*
G01*
X77856250Y16250000D02*
X77343750Y16250000D01*
G75*
G02*
X77125000Y16468750I0J218750D01*
G01*
X77125000Y16906250D01*
G75*
G02*
X77343750Y17125000I218750J0D01*
G01*
X77856250Y17125000D01*
G75*
G02*
X78075000Y16906250I0J-218750D01*
G01*
X78075000Y16468750D01*
G75*
G02*
X77856250Y16250000I-218750J0D01*
G01*
G37*
G36*
G01*
X77856250Y14675000D02*
X77343750Y14675000D01*
G75*
G02*
X77125000Y14893750I0J218750D01*
G01*
X77125000Y15331250D01*
G75*
G02*
X77343750Y15550000I218750J0D01*
G01*
X77856250Y15550000D01*
G75*
G02*
X78075000Y15331250I0J-218750D01*
G01*
X78075000Y14893750D01*
G75*
G02*
X77856250Y14675000I-218750J0D01*
G01*
G37*
%TD*%
D14*
%TO.C,P1*%
X70840000Y16900000D03*
D15*
X68300000Y16900000D03*
%TD*%
D11*
%TO.C,JP302*%
G36*
X42277905Y4533164D02*
G01*
X42256243Y4521646D01*
X42210869Y4502968D01*
X42163884Y4488826D01*
X42115738Y4479359D01*
X42066896Y4474656D01*
X42017829Y4474764D01*
X41969008Y4479679D01*
X41920905Y4489357D01*
X41873980Y4503703D01*
X41828689Y4522579D01*
X41785466Y4545804D01*
X41744727Y4573153D01*
X41706865Y4604364D01*
X41672244Y4639136D01*
X41641199Y4677134D01*
X41614028Y4717991D01*
X41602510Y4739653D01*
X41601978Y4739370D01*
X41367242Y5180844D01*
X41367774Y5181127D01*
X41356256Y5202789D01*
X41337578Y5248162D01*
X41323436Y5295148D01*
X41313969Y5343294D01*
X41309266Y5392136D01*
X41309374Y5441203D01*
X41314289Y5490024D01*
X41323967Y5538127D01*
X41338313Y5585052D01*
X41357189Y5630343D01*
X41380414Y5673566D01*
X41407763Y5714305D01*
X41438974Y5752167D01*
X41473746Y5786788D01*
X41511744Y5817832D01*
X41552601Y5845004D01*
X41574263Y5856522D01*
X41573980Y5857054D01*
X42015454Y6091789D01*
X42719661Y4767368D01*
X42278188Y4532632D01*
X42277905Y4533164D01*
G37*
G36*
X42280339Y6232632D02*
G01*
X42721812Y6467368D01*
X42722095Y6466836D01*
X42743757Y6478354D01*
X42789131Y6497032D01*
X42836116Y6511174D01*
X42884262Y6520641D01*
X42933104Y6525344D01*
X42982171Y6525236D01*
X43030992Y6520321D01*
X43079095Y6510643D01*
X43126020Y6496297D01*
X43171311Y6477421D01*
X43214534Y6454196D01*
X43255273Y6426847D01*
X43293135Y6395636D01*
X43327756Y6360864D01*
X43358801Y6322866D01*
X43385972Y6282009D01*
X43397490Y6260347D01*
X43398022Y6260630D01*
X43632758Y5819156D01*
X43632226Y5818873D01*
X43643744Y5797211D01*
X43662422Y5751838D01*
X43676564Y5704852D01*
X43686031Y5656706D01*
X43690734Y5607864D01*
X43690626Y5558797D01*
X43685711Y5509976D01*
X43676033Y5461873D01*
X43661687Y5414948D01*
X43642811Y5369657D01*
X43619586Y5326434D01*
X43592237Y5285695D01*
X43561026Y5247833D01*
X43526254Y5213212D01*
X43488256Y5182168D01*
X43447399Y5154996D01*
X43425737Y5143478D01*
X43426020Y5142946D01*
X42984546Y4908211D01*
X42280339Y6232632D01*
G37*
%TD*%
%TO.C,JP301*%
G36*
X61350000Y17050000D02*
G01*
X61350000Y17550000D01*
X61350602Y17550000D01*
X61350602Y17574534D01*
X61355412Y17623365D01*
X61364984Y17671490D01*
X61379228Y17718445D01*
X61398005Y17763778D01*
X61421136Y17807051D01*
X61448396Y17847850D01*
X61479524Y17885779D01*
X61514221Y17920476D01*
X61552150Y17951604D01*
X61592949Y17978864D01*
X61636222Y18001995D01*
X61681555Y18020772D01*
X61728510Y18035016D01*
X61776635Y18044588D01*
X61825466Y18049398D01*
X61850000Y18049398D01*
X61850000Y18050000D01*
X62350000Y18050000D01*
X62350000Y18049398D01*
X62374534Y18049398D01*
X62423365Y18044588D01*
X62471490Y18035016D01*
X62518445Y18020772D01*
X62563778Y18001995D01*
X62607051Y17978864D01*
X62647850Y17951604D01*
X62685779Y17920476D01*
X62720476Y17885779D01*
X62751604Y17847850D01*
X62778864Y17807051D01*
X62801995Y17763778D01*
X62820772Y17718445D01*
X62835016Y17671490D01*
X62844588Y17623365D01*
X62849398Y17574534D01*
X62849398Y17550000D01*
X62850000Y17550000D01*
X62850000Y17050000D01*
X61350000Y17050000D01*
G37*
G36*
X62849398Y16250000D02*
G01*
X62849398Y16225466D01*
X62844588Y16176635D01*
X62835016Y16128510D01*
X62820772Y16081555D01*
X62801995Y16036222D01*
X62778864Y15992949D01*
X62751604Y15952150D01*
X62720476Y15914221D01*
X62685779Y15879524D01*
X62647850Y15848396D01*
X62607051Y15821136D01*
X62563778Y15798005D01*
X62518445Y15779228D01*
X62471490Y15764984D01*
X62423365Y15755412D01*
X62374534Y15750602D01*
X62350000Y15750602D01*
X62350000Y15750000D01*
X61850000Y15750000D01*
X61850000Y15750602D01*
X61825466Y15750602D01*
X61776635Y15755412D01*
X61728510Y15764984D01*
X61681555Y15779228D01*
X61636222Y15798005D01*
X61592949Y15821136D01*
X61552150Y15848396D01*
X61514221Y15879524D01*
X61479524Y15914221D01*
X61448396Y15952150D01*
X61421136Y15992949D01*
X61398005Y16036222D01*
X61379228Y16081555D01*
X61364984Y16128510D01*
X61355412Y16176635D01*
X61350602Y16225466D01*
X61350602Y16250000D01*
X61350000Y16250000D01*
X61350000Y16750000D01*
X62850000Y16750000D01*
X62850000Y16250000D01*
X62849398Y16250000D01*
G37*
%TD*%
%TO.C,JP104*%
G36*
X60349398Y15750000D02*
G01*
X60349398Y15725466D01*
X60344588Y15676635D01*
X60335016Y15628510D01*
X60320772Y15581555D01*
X60301995Y15536222D01*
X60278864Y15492949D01*
X60251604Y15452150D01*
X60220476Y15414221D01*
X60185779Y15379524D01*
X60147850Y15348396D01*
X60107051Y15321136D01*
X60063778Y15298005D01*
X60018445Y15279228D01*
X59971490Y15264984D01*
X59923365Y15255412D01*
X59874534Y15250602D01*
X59850000Y15250602D01*
X59850000Y15250000D01*
X59350000Y15250000D01*
X59350000Y15250602D01*
X59325466Y15250602D01*
X59276635Y15255412D01*
X59228510Y15264984D01*
X59181555Y15279228D01*
X59136222Y15298005D01*
X59092949Y15321136D01*
X59052150Y15348396D01*
X59014221Y15379524D01*
X58979524Y15414221D01*
X58948396Y15452150D01*
X58921136Y15492949D01*
X58898005Y15536222D01*
X58879228Y15581555D01*
X58864984Y15628510D01*
X58855412Y15676635D01*
X58850602Y15725466D01*
X58850602Y15750000D01*
X58850000Y15750000D01*
X58850000Y16250000D01*
X60350000Y16250000D01*
X60350000Y15750000D01*
X60349398Y15750000D01*
G37*
G36*
X58850000Y16550000D02*
G01*
X58850000Y17050000D01*
X58850602Y17050000D01*
X58850602Y17074534D01*
X58855412Y17123365D01*
X58864984Y17171490D01*
X58879228Y17218445D01*
X58898005Y17263778D01*
X58921136Y17307051D01*
X58948396Y17347850D01*
X58979524Y17385779D01*
X59014221Y17420476D01*
X59052150Y17451604D01*
X59092949Y17478864D01*
X59136222Y17501995D01*
X59181555Y17520772D01*
X59228510Y17535016D01*
X59276635Y17544588D01*
X59325466Y17549398D01*
X59350000Y17549398D01*
X59350000Y17550000D01*
X59850000Y17550000D01*
X59850000Y17549398D01*
X59874534Y17549398D01*
X59923365Y17544588D01*
X59971490Y17535016D01*
X60018445Y17520772D01*
X60063778Y17501995D01*
X60107051Y17478864D01*
X60147850Y17451604D01*
X60185779Y17420476D01*
X60220476Y17385779D01*
X60251604Y17347850D01*
X60278864Y17307051D01*
X60301995Y17263778D01*
X60320772Y17218445D01*
X60335016Y17171490D01*
X60344588Y17123365D01*
X60349398Y17074534D01*
X60349398Y17050000D01*
X60350000Y17050000D01*
X60350000Y16550000D01*
X58850000Y16550000D01*
G37*
%TD*%
%TO.C,JP103*%
G36*
X57849398Y14750000D02*
G01*
X57849398Y14725466D01*
X57844588Y14676635D01*
X57835016Y14628510D01*
X57820772Y14581555D01*
X57801995Y14536222D01*
X57778864Y14492949D01*
X57751604Y14452150D01*
X57720476Y14414221D01*
X57685779Y14379524D01*
X57647850Y14348396D01*
X57607051Y14321136D01*
X57563778Y14298005D01*
X57518445Y14279228D01*
X57471490Y14264984D01*
X57423365Y14255412D01*
X57374534Y14250602D01*
X57350000Y14250602D01*
X57350000Y14250000D01*
X56850000Y14250000D01*
X56850000Y14250602D01*
X56825466Y14250602D01*
X56776635Y14255412D01*
X56728510Y14264984D01*
X56681555Y14279228D01*
X56636222Y14298005D01*
X56592949Y14321136D01*
X56552150Y14348396D01*
X56514221Y14379524D01*
X56479524Y14414221D01*
X56448396Y14452150D01*
X56421136Y14492949D01*
X56398005Y14536222D01*
X56379228Y14581555D01*
X56364984Y14628510D01*
X56355412Y14676635D01*
X56350602Y14725466D01*
X56350602Y14750000D01*
X56350000Y14750000D01*
X56350000Y15250000D01*
X57850000Y15250000D01*
X57850000Y14750000D01*
X57849398Y14750000D01*
G37*
G36*
X56350000Y15550000D02*
G01*
X56350000Y16050000D01*
X56350602Y16050000D01*
X56350602Y16074534D01*
X56355412Y16123365D01*
X56364984Y16171490D01*
X56379228Y16218445D01*
X56398005Y16263778D01*
X56421136Y16307051D01*
X56448396Y16347850D01*
X56479524Y16385779D01*
X56514221Y16420476D01*
X56552150Y16451604D01*
X56592949Y16478864D01*
X56636222Y16501995D01*
X56681555Y16520772D01*
X56728510Y16535016D01*
X56776635Y16544588D01*
X56825466Y16549398D01*
X56850000Y16549398D01*
X56850000Y16550000D01*
X57350000Y16550000D01*
X57350000Y16549398D01*
X57374534Y16549398D01*
X57423365Y16544588D01*
X57471490Y16535016D01*
X57518445Y16520772D01*
X57563778Y16501995D01*
X57607051Y16478864D01*
X57647850Y16451604D01*
X57685779Y16420476D01*
X57720476Y16385779D01*
X57751604Y16347850D01*
X57778864Y16307051D01*
X57801995Y16263778D01*
X57820772Y16218445D01*
X57835016Y16171490D01*
X57844588Y16123365D01*
X57849398Y16074534D01*
X57849398Y16050000D01*
X57850000Y16050000D01*
X57850000Y15550000D01*
X56350000Y15550000D01*
G37*
%TD*%
D16*
%TO.C,GROUND101*%
X7408200Y16149000D03*
%TD*%
D11*
%TO.C,JP102*%
G36*
X75250602Y35300000D02*
G01*
X75250602Y35324534D01*
X75255412Y35373365D01*
X75264984Y35421490D01*
X75279228Y35468445D01*
X75298005Y35513778D01*
X75321136Y35557051D01*
X75348396Y35597850D01*
X75379524Y35635779D01*
X75414221Y35670476D01*
X75452150Y35701604D01*
X75492949Y35728864D01*
X75536222Y35751995D01*
X75581555Y35770772D01*
X75628510Y35785016D01*
X75676635Y35794588D01*
X75725466Y35799398D01*
X75750000Y35799398D01*
X75750000Y35800000D01*
X76250000Y35800000D01*
X76250000Y35799398D01*
X76274534Y35799398D01*
X76323365Y35794588D01*
X76371490Y35785016D01*
X76418445Y35770772D01*
X76463778Y35751995D01*
X76507051Y35728864D01*
X76547850Y35701604D01*
X76585779Y35670476D01*
X76620476Y35635779D01*
X76651604Y35597850D01*
X76678864Y35557051D01*
X76701995Y35513778D01*
X76720772Y35468445D01*
X76735016Y35421490D01*
X76744588Y35373365D01*
X76749398Y35324534D01*
X76749398Y35300000D01*
X76750000Y35300000D01*
X76750000Y34750000D01*
X75250000Y34750000D01*
X75250000Y35300000D01*
X75250602Y35300000D01*
G37*
D17*
X76000000Y34000000D03*
D11*
G36*
X76750000Y33250000D02*
G01*
X76750000Y32700000D01*
X76749398Y32700000D01*
X76749398Y32675466D01*
X76744588Y32626635D01*
X76735016Y32578510D01*
X76720772Y32531555D01*
X76701995Y32486222D01*
X76678864Y32442949D01*
X76651604Y32402150D01*
X76620476Y32364221D01*
X76585779Y32329524D01*
X76547850Y32298396D01*
X76507051Y32271136D01*
X76463778Y32248005D01*
X76418445Y32229228D01*
X76371490Y32214984D01*
X76323365Y32205412D01*
X76274534Y32200602D01*
X76250000Y32200602D01*
X76250000Y32200000D01*
X75750000Y32200000D01*
X75750000Y32200602D01*
X75725466Y32200602D01*
X75676635Y32205412D01*
X75628510Y32214984D01*
X75581555Y32229228D01*
X75536222Y32248005D01*
X75492949Y32271136D01*
X75452150Y32298396D01*
X75414221Y32329524D01*
X75379524Y32364221D01*
X75348396Y32402150D01*
X75321136Y32442949D01*
X75298005Y32486222D01*
X75279228Y32531555D01*
X75264984Y32578510D01*
X75255412Y32626635D01*
X75250602Y32675466D01*
X75250602Y32700000D01*
X75250000Y32700000D01*
X75250000Y33250000D01*
X76750000Y33250000D01*
G37*
%TD*%
D18*
%TO.C,U101*%
X75484500Y30000000D03*
%TD*%
D19*
%TO.C,S101*%
X62190000Y39730000D03*
X69810000Y39730000D03*
X62190000Y42270000D03*
D20*
X69810000Y42270000D03*
%TD*%
D21*
%TO.C,J106*%
X66760000Y21500000D03*
X73760000Y21500000D03*
%TD*%
D11*
%TO.C,J102*%
G36*
X30357654Y9483860D02*
G01*
X30357656Y9483860D01*
X30359049Y9483792D01*
X30363217Y9483354D01*
X30367384Y9482975D01*
X30744704Y9429946D01*
X30746085Y9429742D01*
X30750211Y9428895D01*
X30754301Y9428115D01*
X31124641Y9338521D01*
X31124646Y9338520D01*
X31124652Y9338518D01*
X31125999Y9338182D01*
X31129976Y9336951D01*
X31134018Y9335762D01*
X31493846Y9210456D01*
X31493852Y9210454D01*
X31493859Y9210451D01*
X31495167Y9209985D01*
X31498997Y9208375D01*
X31502910Y9206794D01*
X31848792Y9046974D01*
X31848800Y9046971D01*
X31848809Y9046966D01*
X31850062Y9046376D01*
X31853748Y9044384D01*
X31857457Y9042444D01*
X32186091Y8849636D01*
X32186100Y8849631D01*
X32186110Y8849624D01*
X32187298Y8848916D01*
X32190719Y8846609D01*
X32194275Y8844282D01*
X32502533Y8620319D01*
X32503656Y8619490D01*
X32506852Y8616846D01*
X32510147Y8614197D01*
X32795079Y8361223D01*
X32796116Y8360288D01*
X32799052Y8357332D01*
X32802059Y8354387D01*
X33060946Y8074815D01*
X33061887Y8073784D01*
X33064534Y8070539D01*
X33067226Y8067331D01*
X33297595Y7763831D01*
X33298431Y7762713D01*
X33300728Y7759255D01*
X33303115Y7755770D01*
X33502768Y7431238D01*
X33503491Y7430043D01*
X33505467Y7426327D01*
X33507474Y7422676D01*
X33674502Y7080218D01*
X33674507Y7080210D01*
X33674511Y7080200D01*
X33675109Y7078951D01*
X33676700Y7075091D01*
X33678355Y7071230D01*
X33811167Y6714110D01*
X33811172Y6714099D01*
X33811176Y6714085D01*
X33811648Y6712788D01*
X33812855Y6708791D01*
X33814125Y6704787D01*
X33911454Y6336413D01*
X33911458Y6336399D01*
X33911462Y6336382D01*
X33911804Y6335048D01*
X33912607Y6330994D01*
X33913489Y6326843D01*
X33974408Y5950717D01*
X33974621Y5949338D01*
X33975028Y5945189D01*
X33975497Y5941008D01*
X33999422Y5560731D01*
X33999499Y5559337D01*
X33999499Y5557254D01*
X33999617Y5555150D01*
X33999997Y5500698D01*
X33999997Y5500050D01*
X33999999Y5500000D01*
X34000000Y1500000D01*
X33999995Y1499363D01*
X33999998Y1499302D01*
X33999995Y1499241D01*
X33999990Y1498604D01*
X33999707Y1494098D01*
X33999452Y1489547D01*
X33999399Y1489206D01*
X33999377Y1488853D01*
X33998651Y1484372D01*
X33997958Y1479892D01*
X33997870Y1479551D01*
X33997815Y1479209D01*
X33996666Y1474861D01*
X33995528Y1470429D01*
X33995408Y1470098D01*
X33995319Y1469763D01*
X33993732Y1465495D01*
X33992186Y1461248D01*
X33992037Y1460938D01*
X33991914Y1460606D01*
X33989905Y1456488D01*
X33987965Y1452438D01*
X33987785Y1452141D01*
X33987631Y1451825D01*
X33985254Y1447961D01*
X33982904Y1444081D01*
X33982694Y1443800D01*
X33982511Y1443503D01*
X33979759Y1439878D01*
X33977051Y1436258D01*
X33976818Y1436002D01*
X33976604Y1435721D01*
X33973508Y1432378D01*
X33970463Y1429043D01*
X33970203Y1428809D01*
X33969966Y1428553D01*
X33966570Y1425538D01*
X33963203Y1422506D01*
X33962923Y1422300D01*
X33962660Y1422066D01*
X33958994Y1419403D01*
X33955339Y1416708D01*
X33955036Y1416527D01*
X33954756Y1416324D01*
X33950883Y1414051D01*
X33946947Y1411705D01*
X33946628Y1411555D01*
X33946330Y1411380D01*
X33942268Y1409503D01*
X33938107Y1407545D01*
X33937772Y1407426D01*
X33937461Y1407282D01*
X33933243Y1405813D01*
X33928903Y1404268D01*
X33928559Y1404182D01*
X33928234Y1404069D01*
X33923869Y1403013D01*
X33919423Y1401904D01*
X33919076Y1401853D01*
X33918738Y1401771D01*
X33914301Y1401148D01*
X33909758Y1400477D01*
X33909402Y1400460D01*
X33909063Y1400412D01*
X33904553Y1400223D01*
X33900000Y1400000D01*
X26100000Y1400000D01*
X26099363Y1400005D01*
X26099302Y1400002D01*
X26099241Y1400005D01*
X26098604Y1400010D01*
X26094098Y1400293D01*
X26089547Y1400548D01*
X26089206Y1400601D01*
X26088853Y1400623D01*
X26084372Y1401349D01*
X26079892Y1402042D01*
X26079551Y1402130D01*
X26079209Y1402185D01*
X26074861Y1403334D01*
X26070429Y1404472D01*
X26070098Y1404592D01*
X26069763Y1404681D01*
X26065495Y1406268D01*
X26061248Y1407814D01*
X26060938Y1407963D01*
X26060606Y1408086D01*
X26056488Y1410095D01*
X26052438Y1412035D01*
X26052141Y1412215D01*
X26051825Y1412369D01*
X26047961Y1414746D01*
X26044081Y1417096D01*
X26043800Y1417306D01*
X26043503Y1417489D01*
X26039878Y1420241D01*
X26036258Y1422949D01*
X26036002Y1423182D01*
X26035721Y1423396D01*
X26032378Y1426492D01*
X26029043Y1429537D01*
X26028809Y1429797D01*
X26028553Y1430034D01*
X26025538Y1433430D01*
X26022506Y1436797D01*
X26022300Y1437077D01*
X26022066Y1437340D01*
X26019403Y1441006D01*
X26016708Y1444661D01*
X26016527Y1444964D01*
X26016324Y1445244D01*
X26014051Y1449117D01*
X26011705Y1453053D01*
X26011555Y1453372D01*
X26011380Y1453670D01*
X26009503Y1457732D01*
X26007545Y1461893D01*
X26007426Y1462228D01*
X26007282Y1462539D01*
X26005813Y1466757D01*
X26004268Y1471097D01*
X26004182Y1471441D01*
X26004069Y1471766D01*
X26003013Y1476131D01*
X26001904Y1480577D01*
X26001853Y1480924D01*
X26001771Y1481262D01*
X26001148Y1485699D01*
X26000477Y1490242D01*
X26000460Y1490598D01*
X26000412Y1490937D01*
X26000223Y1495447D01*
X26000000Y1500000D01*
X26000000Y5500000D01*
X26000010Y5501396D01*
X26000120Y5503146D01*
X26000120Y5504885D01*
X26018733Y5885458D01*
X26018812Y5886852D01*
X26019276Y5890996D01*
X26019687Y5895181D01*
X26075349Y6272123D01*
X26075563Y6273502D01*
X26076424Y6277553D01*
X26077246Y6281706D01*
X26169425Y6651416D01*
X26169773Y6652768D01*
X26171025Y6656715D01*
X26172249Y6660769D01*
X26300065Y7019719D01*
X26300543Y7021031D01*
X26302176Y7024842D01*
X26303788Y7028752D01*
X26466022Y7373517D01*
X26466626Y7374776D01*
X26468640Y7378440D01*
X26470609Y7382143D01*
X26665712Y7709431D01*
X26666436Y7710625D01*
X26668803Y7714083D01*
X26671119Y7717568D01*
X26897228Y8024256D01*
X26898064Y8025374D01*
X26900784Y8028616D01*
X26903403Y8031827D01*
X27006572Y8146409D01*
X27275699Y8146409D01*
X27339382Y8210092D01*
X27303713Y8177521D01*
X27275699Y8146409D01*
X27006572Y8146409D01*
X27158360Y8314986D01*
X27159302Y8316017D01*
X27162304Y8318957D01*
X27165245Y8321919D01*
X27446617Y8578847D01*
X27447655Y8579781D01*
X27450914Y8582401D01*
X27454145Y8585074D01*
X27759233Y8813310D01*
X27759246Y8813320D01*
X27759262Y8813331D01*
X27760369Y8814147D01*
X27763878Y8816444D01*
X27767345Y8818782D01*
X28093263Y9016165D01*
X28093264Y9016166D01*
X28093275Y9016172D01*
X28094462Y9016880D01*
X28098202Y9018836D01*
X28101858Y9020812D01*
X28445465Y9185440D01*
X28445481Y9185449D01*
X28445501Y9185457D01*
X28446745Y9186042D01*
X28450596Y9187598D01*
X28454488Y9189234D01*
X28812519Y9319548D01*
X28812537Y9319555D01*
X28812559Y9319562D01*
X28813852Y9320022D01*
X28817836Y9321195D01*
X28821870Y9322443D01*
X29190903Y9417194D01*
X29190927Y9417201D01*
X29190955Y9417207D01*
X29192282Y9417538D01*
X29196364Y9418317D01*
X29200497Y9419165D01*
X29577040Y9477457D01*
X29578421Y9477660D01*
X29582555Y9478036D01*
X29586757Y9478478D01*
X29967191Y9499748D01*
X29968585Y9499816D01*
X29972773Y9499787D01*
X29976961Y9499816D01*
X30357654Y9483860D01*
G37*
%TD*%
%TO.C,J101*%
G36*
X29642346Y50516140D02*
G01*
X29642344Y50516140D01*
X29640951Y50516208D01*
X29636783Y50516646D01*
X29632616Y50517025D01*
X29255296Y50570054D01*
X29253915Y50570258D01*
X29249789Y50571105D01*
X29245699Y50571885D01*
X28875359Y50661479D01*
X28875354Y50661480D01*
X28875348Y50661482D01*
X28874001Y50661818D01*
X28870024Y50663049D01*
X28865982Y50664238D01*
X28506154Y50789544D01*
X28506148Y50789546D01*
X28506141Y50789549D01*
X28504833Y50790015D01*
X28501003Y50791625D01*
X28497090Y50793206D01*
X28151208Y50953026D01*
X28151200Y50953029D01*
X28151191Y50953034D01*
X28149938Y50953624D01*
X28146252Y50955616D01*
X28142543Y50957556D01*
X27813909Y51150364D01*
X27813900Y51150369D01*
X27813890Y51150376D01*
X27812702Y51151084D01*
X27809281Y51153391D01*
X27805725Y51155718D01*
X27497467Y51379681D01*
X27496344Y51380510D01*
X27493148Y51383154D01*
X27489853Y51385803D01*
X27204921Y51638777D01*
X27203884Y51639712D01*
X27200948Y51642668D01*
X27197941Y51645613D01*
X26939054Y51925185D01*
X26938113Y51926216D01*
X26935466Y51929461D01*
X26932774Y51932669D01*
X26702405Y52236169D01*
X26701569Y52237287D01*
X26699272Y52240745D01*
X26696885Y52244230D01*
X26497232Y52568762D01*
X26496509Y52569957D01*
X26494533Y52573673D01*
X26492526Y52577324D01*
X26325498Y52919782D01*
X26325493Y52919790D01*
X26325489Y52919800D01*
X26324891Y52921049D01*
X26323300Y52924909D01*
X26321645Y52928770D01*
X26188833Y53285890D01*
X26188828Y53285901D01*
X26188824Y53285915D01*
X26188352Y53287212D01*
X26187145Y53291209D01*
X26185875Y53295213D01*
X26088546Y53663587D01*
X26088542Y53663601D01*
X26088538Y53663618D01*
X26088196Y53664952D01*
X26087393Y53669006D01*
X26086511Y53673157D01*
X26025592Y54049283D01*
X26025379Y54050662D01*
X26024972Y54054811D01*
X26024503Y54058992D01*
X26000578Y54439269D01*
X26000501Y54440663D01*
X26000501Y54442746D01*
X26000383Y54444850D01*
X26000003Y54499302D01*
X26000003Y54499950D01*
X26000001Y54500000D01*
X26000000Y58500000D01*
X26000005Y58500637D01*
X26000002Y58500698D01*
X26000005Y58500759D01*
X26000010Y58501396D01*
X26000293Y58505902D01*
X26000548Y58510453D01*
X26000601Y58510794D01*
X26000623Y58511147D01*
X26001349Y58515628D01*
X26002042Y58520108D01*
X26002130Y58520449D01*
X26002185Y58520791D01*
X26003334Y58525139D01*
X26004472Y58529571D01*
X26004592Y58529902D01*
X26004681Y58530237D01*
X26006268Y58534505D01*
X26007814Y58538752D01*
X26007963Y58539062D01*
X26008086Y58539394D01*
X26010095Y58543512D01*
X26012035Y58547562D01*
X26012215Y58547859D01*
X26012369Y58548175D01*
X26014746Y58552039D01*
X26017096Y58555919D01*
X26017306Y58556200D01*
X26017489Y58556497D01*
X26020241Y58560122D01*
X26022949Y58563742D01*
X26023182Y58563998D01*
X26023396Y58564279D01*
X26026492Y58567622D01*
X26029537Y58570957D01*
X26029797Y58571191D01*
X26030034Y58571447D01*
X26033430Y58574462D01*
X26036797Y58577494D01*
X26037077Y58577700D01*
X26037340Y58577934D01*
X26041006Y58580597D01*
X26044661Y58583292D01*
X26044964Y58583473D01*
X26045244Y58583676D01*
X26049117Y58585949D01*
X26053053Y58588295D01*
X26053372Y58588445D01*
X26053670Y58588620D01*
X26057732Y58590497D01*
X26061893Y58592455D01*
X26062228Y58592574D01*
X26062539Y58592718D01*
X26066757Y58594187D01*
X26071097Y58595732D01*
X26071441Y58595818D01*
X26071766Y58595931D01*
X26076131Y58596987D01*
X26080577Y58598096D01*
X26080924Y58598147D01*
X26081262Y58598229D01*
X26085699Y58598852D01*
X26090242Y58599523D01*
X26090598Y58599540D01*
X26090937Y58599588D01*
X26095447Y58599777D01*
X26100000Y58600000D01*
X33900000Y58600000D01*
X33900637Y58599995D01*
X33900698Y58599998D01*
X33900759Y58599995D01*
X33901396Y58599990D01*
X33905902Y58599707D01*
X33910453Y58599452D01*
X33910794Y58599399D01*
X33911147Y58599377D01*
X33915628Y58598651D01*
X33920108Y58597958D01*
X33920449Y58597870D01*
X33920791Y58597815D01*
X33925139Y58596666D01*
X33929571Y58595528D01*
X33929902Y58595408D01*
X33930237Y58595319D01*
X33934505Y58593732D01*
X33938752Y58592186D01*
X33939062Y58592037D01*
X33939394Y58591914D01*
X33943512Y58589905D01*
X33947562Y58587965D01*
X33947859Y58587785D01*
X33948175Y58587631D01*
X33952039Y58585254D01*
X33955919Y58582904D01*
X33956200Y58582694D01*
X33956497Y58582511D01*
X33960122Y58579759D01*
X33963742Y58577051D01*
X33963998Y58576818D01*
X33964279Y58576604D01*
X33967622Y58573508D01*
X33970957Y58570463D01*
X33971191Y58570203D01*
X33971447Y58569966D01*
X33974462Y58566570D01*
X33977494Y58563203D01*
X33977700Y58562923D01*
X33977934Y58562660D01*
X33980597Y58558994D01*
X33983292Y58555339D01*
X33983473Y58555036D01*
X33983676Y58554756D01*
X33985949Y58550883D01*
X33988295Y58546947D01*
X33988445Y58546628D01*
X33988620Y58546330D01*
X33990497Y58542268D01*
X33992455Y58538107D01*
X33992574Y58537772D01*
X33992718Y58537461D01*
X33994187Y58533243D01*
X33995732Y58528903D01*
X33995818Y58528559D01*
X33995931Y58528234D01*
X33996987Y58523869D01*
X33998096Y58519423D01*
X33998147Y58519076D01*
X33998229Y58518738D01*
X33998852Y58514301D01*
X33999523Y58509758D01*
X33999540Y58509402D01*
X33999588Y58509063D01*
X33999777Y58504553D01*
X34000000Y58500000D01*
X34000000Y54500000D01*
X33999990Y54498604D01*
X33999880Y54496854D01*
X33999880Y54495115D01*
X33981267Y54114542D01*
X33981188Y54113148D01*
X33980724Y54109004D01*
X33980313Y54104819D01*
X33924651Y53727877D01*
X33924437Y53726498D01*
X33923576Y53722447D01*
X33922754Y53718294D01*
X33830575Y53348584D01*
X33830227Y53347232D01*
X33828975Y53343285D01*
X33827751Y53339231D01*
X33699935Y52980281D01*
X33699457Y52978969D01*
X33697824Y52975158D01*
X33696212Y52971248D01*
X33533978Y52626483D01*
X33533374Y52625224D01*
X33531360Y52621560D01*
X33529391Y52617857D01*
X33334288Y52290569D01*
X33333564Y52289375D01*
X33331197Y52285917D01*
X33328881Y52282432D01*
X33102772Y51975744D01*
X33101936Y51974626D01*
X33099216Y51971384D01*
X33096597Y51968173D01*
X32993428Y51853591D01*
X32724301Y51853591D01*
X32660618Y51789908D01*
X32696287Y51822479D01*
X32724301Y51853591D01*
X32993428Y51853591D01*
X32841640Y51685014D01*
X32840698Y51683983D01*
X32837696Y51681043D01*
X32834755Y51678081D01*
X32553383Y51421153D01*
X32552345Y51420219D01*
X32549086Y51417599D01*
X32545855Y51414926D01*
X32240767Y51186690D01*
X32240754Y51186680D01*
X32240738Y51186669D01*
X32239631Y51185853D01*
X32236122Y51183556D01*
X32232655Y51181218D01*
X31906737Y50983835D01*
X31906736Y50983834D01*
X31906725Y50983828D01*
X31905538Y50983120D01*
X31901798Y50981164D01*
X31898142Y50979188D01*
X31554535Y50814560D01*
X31554519Y50814551D01*
X31554499Y50814543D01*
X31553255Y50813958D01*
X31549404Y50812402D01*
X31545512Y50810766D01*
X31187481Y50680452D01*
X31187463Y50680445D01*
X31187441Y50680438D01*
X31186148Y50679978D01*
X31182164Y50678805D01*
X31178130Y50677557D01*
X30809097Y50582806D01*
X30809073Y50582799D01*
X30809045Y50582793D01*
X30807718Y50582462D01*
X30803636Y50581683D01*
X30799503Y50580835D01*
X30422960Y50522543D01*
X30421579Y50522340D01*
X30417445Y50521964D01*
X30413243Y50521522D01*
X30032809Y50500252D01*
X30031415Y50500184D01*
X30027227Y50500213D01*
X30023039Y50500184D01*
X29642346Y50516140D01*
G37*
%TD*%
%TO.C,J103*%
G36*
G01*
X50928167Y46826948D02*
X51423141Y47321922D01*
G75*
G02*
X52271669Y47321922I424264J-424264D01*
G01*
X52271669Y47321922D01*
G75*
G02*
X52271669Y46473394I-424264J-424264D01*
G01*
X51776695Y45978420D01*
G75*
G02*
X50928167Y45978420I-424264J424264D01*
G01*
X50928167Y45978420D01*
G75*
G02*
X50928167Y46826948I424264J424264D01*
G01*
G37*
G36*
G01*
X47321922Y51423141D02*
X46826948Y50928167D01*
G75*
G02*
X45978420Y50928167I-424264J424264D01*
G01*
X45978420Y50928167D01*
G75*
G02*
X45978420Y51776695I424264J424264D01*
G01*
X46473394Y52271669D01*
G75*
G02*
X47321922Y52271669I424264J-424264D01*
G01*
X47321922Y52271669D01*
G75*
G02*
X47321922Y51423141I-424264J-424264D01*
G01*
G37*
D22*
X48983623Y45448089D03*
X45448089Y48983623D03*
%TD*%
%TO.C,J104*%
G36*
G01*
X51389087Y15795118D02*
X51389087Y15795118D01*
G75*
G02*
X52591169Y15795118I601041J-601041D01*
G01*
X52591169Y15795118D01*
G75*
G02*
X52591169Y14593036I-601041J-601041D01*
G01*
X52591169Y14593036D01*
G75*
G02*
X51389087Y14593036I-601041J601041D01*
G01*
X51389087Y14593036D01*
G75*
G02*
X51389087Y15795118I601041J601041D01*
G01*
G37*
G36*
G01*
X49593036Y17591169D02*
X49593036Y17591169D01*
G75*
G02*
X50795118Y17591169I601041J-601041D01*
G01*
X50795118Y17591169D01*
G75*
G02*
X50795118Y16389087I-601041J-601041D01*
G01*
X50795118Y16389087D01*
G75*
G02*
X49593036Y16389087I-601041J601041D01*
G01*
X49593036Y16389087D01*
G75*
G02*
X49593036Y17591169I601041J601041D01*
G01*
G37*
G36*
G01*
X49593036Y13999067D02*
X49593036Y13999067D01*
G75*
G02*
X50795118Y13999067I601041J-601041D01*
G01*
X50795118Y13999067D01*
G75*
G02*
X50795118Y12796985I-601041J-601041D01*
G01*
X50795118Y12796985D01*
G75*
G02*
X49593036Y12796985I-601041J601041D01*
G01*
X49593036Y12796985D01*
G75*
G02*
X49593036Y13999067I601041J601041D01*
G01*
G37*
G36*
G01*
X47796985Y15795118D02*
X47796985Y15795118D01*
G75*
G02*
X48999067Y15795118I601041J-601041D01*
G01*
X48999067Y15795118D01*
G75*
G02*
X48999067Y14593036I-601041J-601041D01*
G01*
X48999067Y14593036D01*
G75*
G02*
X47796985Y14593036I-601041J601041D01*
G01*
X47796985Y14593036D01*
G75*
G02*
X47796985Y15795118I601041J601041D01*
G01*
G37*
G36*
G01*
X47796985Y12203015D02*
X47796985Y12203015D01*
G75*
G02*
X48999067Y12203015I601041J-601041D01*
G01*
X48999067Y12203015D01*
G75*
G02*
X48999067Y11000933I-601041J-601041D01*
G01*
X48999067Y11000933D01*
G75*
G02*
X47796985Y11000933I-601041J601041D01*
G01*
X47796985Y11000933D01*
G75*
G02*
X47796985Y12203015I601041J601041D01*
G01*
G37*
G36*
G01*
X46000933Y13999067D02*
X46000933Y13999067D01*
G75*
G02*
X47203015Y13999067I601041J-601041D01*
G01*
X47203015Y13999067D01*
G75*
G02*
X47203015Y12796985I-601041J-601041D01*
G01*
X47203015Y12796985D01*
G75*
G02*
X46000933Y12796985I-601041J601041D01*
G01*
X46000933Y12796985D01*
G75*
G02*
X46000933Y13999067I601041J601041D01*
G01*
G37*
G36*
G01*
X46000933Y10406964D02*
X46000933Y10406964D01*
G75*
G02*
X47203015Y10406964I601041J-601041D01*
G01*
X47203015Y10406964D01*
G75*
G02*
X47203015Y9204882I-601041J-601041D01*
G01*
X47203015Y9204882D01*
G75*
G02*
X46000933Y9204882I-601041J601041D01*
G01*
X46000933Y9204882D01*
G75*
G02*
X46000933Y10406964I601041J601041D01*
G01*
G37*
G36*
G01*
X44204882Y12203015D02*
X44204882Y12203015D01*
G75*
G02*
X45406964Y12203015I601041J-601041D01*
G01*
X45406964Y12203015D01*
G75*
G02*
X45406964Y11000933I-601041J-601041D01*
G01*
X45406964Y11000933D01*
G75*
G02*
X44204882Y11000933I-601041J601041D01*
G01*
X44204882Y11000933D01*
G75*
G02*
X44204882Y12203015I601041J601041D01*
G01*
G37*
G36*
G01*
X44204882Y8610913D02*
X44204882Y8610913D01*
G75*
G02*
X45406964Y8610913I601041J-601041D01*
G01*
X45406964Y8610913D01*
G75*
G02*
X45406964Y7408831I-601041J-601041D01*
G01*
X45406964Y7408831D01*
G75*
G02*
X44204882Y7408831I-601041J601041D01*
G01*
X44204882Y7408831D01*
G75*
G02*
X44204882Y8610913I601041J601041D01*
G01*
G37*
D11*
G36*
X41807790Y9805923D02*
G01*
X43009872Y11008005D01*
X44211954Y9805923D01*
X43009872Y8603841D01*
X41807790Y9805923D01*
G37*
%TD*%
D23*
%TO.C,J105*%
X73500000Y35500000D03*
X73500000Y37500000D03*
X73500000Y39500000D03*
G36*
G01*
X72874999Y42100000D02*
X74125001Y42100000D01*
G75*
G02*
X74375000Y41850001I0J-249999D01*
G01*
X74375000Y41149999D01*
G75*
G02*
X74125001Y40900000I-249999J0D01*
G01*
X72874999Y40900000D01*
G75*
G02*
X72625000Y41149999I0J249999D01*
G01*
X72625000Y41850001D01*
G75*
G02*
X72874999Y42100000I249999J0D01*
G01*
G37*
%TD*%
M02*
